<svg width="1920" height="305" viewBox="0 0 1920 305" fill="none" xmlns="http://www.w3.org/2000/svg">
<mask id="mask0_514_2169" style="mask-type:alpha" maskUnits="userSpaceOnUse" x="-126" y="0" width="2169" height="305">
<rect width="2161.77" height="248" transform="matrix(-0.999659 -0.0261211 -0.0261211 0.999659 2042.5 56.5881)" fill="#D9D9D9"/>
</mask>
<g mask="url(#mask0_514_2169)">
<path d="M-361.171 -326.433C-363.21 -248.404 -328.036 -173.003 -262.484 -103.44C-196.928 -33.8732 -101.043 29.7904 18.1632 84.2909C256.571 193.29 588.054 265.543 956.093 275.16C1324.13 284.777 1658.94 229.934 1902.71 133.534C2024.6 85.3335 2123.68 26.7642 2192.78 -39.2843C2261.88 -105.328 2300.94 -178.79 2302.98 -256.819C2305.02 -334.848 2269.84 -410.249 2204.29 -479.812C2138.73 -549.379 2042.85 -613.043 1923.64 -667.543C1685.23 -776.542 1353.75 -848.795 985.713 -858.412C617.674 -868.029 282.871 -813.186 39.0953 -716.786C-82.7944 -668.586 -181.873 -610.016 -250.973 -543.968C-320.069 -477.924 -359.133 -404.462 -361.171 -326.433Z" stroke="#3A80D2" stroke-width="2.25185"/>
</g>
</svg>
