<svg width="1920" height="361" viewBox="0 0 1920 361" fill="none" xmlns="http://www.w3.org/2000/svg">
<mask id="mask0_514_605" style="mask-type:alpha" maskUnits="userSpaceOnUse" x="-32" y="0" width="2170" height="361">
<rect width="2161.77" height="303.999" transform="matrix(-0.999656 0.0262328 0.0262328 0.999656 2129.03 0)" fill="#D9D9D9"/>
</mask>
<g mask="url(#mask0_514_605)">
<path d="M-293.287 -351.953C-288.259 -160.348 -134.945 9.48824 109.483 129.066C353.857 248.618 689.014 317.766 1057.02 308.109C1425.03 298.452 1756.1 211.82 1993.87 79.6166C2231.69 -52.6166 2375.88 -230.26 2370.85 -421.865C2365.83 -613.469 2212.51 -783.305 1968.08 -902.883C1723.71 -1022.43 1388.55 -1091.58 1020.54 -1081.93C652.536 -1072.27 321.467 -985.637 83.7008 -853.434C-154.119 -721.201 -298.316 -543.557 -293.287 -351.953Z" stroke="#3A80D2" stroke-width="2.25185"/>
</g>
</svg>
