<svg width="1920" height="691" viewBox="0 0 1920 691" fill="none" xmlns="http://www.w3.org/2000/svg">
<mask id="mask0_514_573" style="mask-type:alpha" maskUnits="userSpaceOnUse" x="-124" y="0" width="2182" height="691">
<rect x="-123.258" y="391.17" width="2161.77" height="303.999" transform="rotate(-10.4243 -123.258 391.17)" fill="#D9D9D9"/>
</mask>
<g mask="url(#mask0_514_573)">
<path d="M2178.77 -431.308C2213.45 -242.802 2098.55 -44.9458 1884.11 122.567C1669.72 290.043 1356.09 426.967 994.035 493.576C631.976 560.184 290.15 543.846 30.1936 463.637C-229.821 383.41 -407.618 239.403 -442.298 50.8959C-476.978 -137.611 -362.074 -335.467 -147.637 -502.98C66.7522 -670.455 380.382 -807.38 742.441 -873.988C1104.5 -940.597 1446.33 -924.259 1706.28 -844.049C1966.3 -763.822 2144.09 -619.815 2178.77 -431.308Z" stroke="#3A80D2" stroke-width="2.25185"/>
</g>
</svg>
