<svg width="1350" height="472" fill="none" xmlns="http://www.w3.org/2000/svg"><mask id="a" style="mask-type:alpha" maskUnits="userSpaceOnUse" x="-89" y="0" width="2180" height="472"><path fill="#D9D9D9" stroke="#fff" stroke-width="1.126" d="M2065.973.605-88.113 168.877l23.587 301.953L2089.56 302.558z"/></mask><g mask="url(#a)"><path d="M-369.593-203.278C-354.665-12.19-192.775 149.493 57.508 256.274 307.735 363.031 646.02 414.76 1013.04 386.089c367.01-28.67 693.16-132.303 923.77-276.622 230.67-144.351 365.49-329.213 350.56-520.301-14.93-191.088-176.82-352.771-427.1-459.552-250.23-106.757-588.51-158.484-955.528-129.814-367.016 28.669-693.164 132.301-923.777 276.621-230.666 144.351-365.485 329.213-350.558 520.301Z" stroke="#fff" stroke-width="2.252"/></g></svg>