<svg width="1350" height="472" viewBox="0 0 1350 472" fill="none" xmlns="http://www.w3.org/2000/svg">
<mask id="mask0_514_616" style="mask-type:alpha" maskUnits="userSpaceOnUse" x="-89" y="0" width="2180" height="472">
<rect x="-0.517408" y="0.605095" width="2160.65" height="302.873" transform="matrix(-0.996962 0.0778802 0.0778802 0.996962 2065.41 0.0421338)" fill="#D9D9D9" stroke="white" stroke-width="1.12592"/>
</mask>
<g mask="url(#mask0_514_616)">
<path d="M-369.593 -203.278C-354.665 -12.1903 -192.775 149.493 57.5084 256.274C307.735 363.031 646.019 414.76 1013.04 386.089C1380.05 357.419 1706.2 253.786 1936.81 109.467C2167.48 -34.8845 2302.3 -219.746 2287.37 -410.834C2272.44 -601.922 2110.55 -763.605 1860.27 -870.386C1610.04 -977.143 1271.76 -1028.87 904.742 -1000.2C537.726 -971.531 211.578 -867.899 -19.0353 -723.579C-249.701 -579.228 -384.52 -394.366 -369.593 -203.278Z" stroke="white" stroke-width="2.25185"/>
</g>
</svg>
