<svg width="212" height="49" fill="none" xmlns="http://www.w3.org/2000/svg"><g clip-path="url(#a)"><mask id="b" style="mask-type:luminance" maskUnits="userSpaceOnUse" x="0" y="0" width="178" height="15"><path d="M178 0H0v15h178V0Z" fill="#fff"/></mask><g mask="url(#b)" fill-rule="evenodd" clip-rule="evenodd" fill="#232323"><path d="M7.613.11h.189c1.31 0 2.433 0 3.331.112.961.12 1.876.39 2.617 1.081.74.69 1.031 1.542 1.16 2.438.121.837.121 1.884.121 3.104v6.604c0 .733-.638 1.328-1.425 1.328-.788 0-1.426-.595-1.426-1.328V6.933c0-1.333-.003-2.199-.095-2.838-.087-.601-.228-.8-.351-.914-.123-.114-.336-.246-.98-.327-.687-.086-1.616-.089-3.047-.089-1.43 0-2.36.003-3.046.09-.645.08-.857.212-.98.326-.123.115-.264.313-.351.914-.092.639-.095 1.505-.095 2.838v6.516c0 .733-.639 1.328-1.426 1.328-.787 0-1.425-.595-1.425-1.328V6.845c0-1.22 0-2.267.12-3.104.13-.896.42-1.748 1.161-2.438.74-.69 1.655-.96 2.617-1.081C5.18.109 6.303.109 7.612.109ZM17.382 2.459c0-1.24 1.078-2.244 2.408-2.244h6.882c2.415 0 4.374 1.825 4.374 4.076v1.497c0 2.25-1.959 4.075-4.374 4.075h-6.44v3.587c0 .733-.638 1.328-1.425 1.328s-1.425-.595-1.425-1.328V2.459Zm2.85 4.748h6.44c.841 0 1.523-.635 1.523-1.42V4.292c0-.784-.682-1.42-1.523-1.42h-6.44v4.336ZM131.196 2.427c0-1.24 1.079-2.244 2.409-2.244h6.881c2.416 0 4.375 1.824 4.375 4.075v1.497c0 2.251-1.959 4.076-4.375 4.076h-6.439v3.586c0 .734-.638 1.328-1.425 1.328-.788 0-1.426-.594-1.426-1.328V2.427Zm2.851 4.748h6.439c.841 0 1.524-.635 1.524-1.42V4.258c0-.784-.683-1.42-1.524-1.42h-6.439v4.337ZM166.422.241h-.067c-.404 0-.837 0-1.202.046-.426.053-.964.19-1.418.611-.452.422-.599.924-.656 1.321-.049.34-.049.743-.049 1.12v10.078c0 .734.638 1.329 1.426 1.329.073 0 .145-.006.216-.016.07.01.142.015.216.015h8.005c.376 0 .694 0 .981-.034 1.963-.241 3.508-1.68 3.766-3.51.038-.267.038-.564.038-.913v-.152c0-.35 0-.647-.038-.914a3.994 3.994 0 0 0-1.397-2.487c.59-.667.943-1.521.943-2.477 0-2.25-1.959-4.017-4.375-4.017h-6.389Zm-.541 7.974v3.874h6.93c.503 0 .615-.003.691-.012.683-.084 1.221-.585 1.312-1.222.009-.07.013-.176.013-.643 0-.468-.004-.573-.013-.643-.091-.637-.629-1.258-1.312-1.342-.076-.01-.188-.012-.691-.012h-6.93Zm6.93-2.537h-6.93V3.401c0-.203 0-.363.003-.5.148-.004.321-.004.538-.004h6.389c.842 0 1.524.577 1.524 1.361 0 .785-.682 1.42-1.524 1.42ZM74.398.168h.166c1.16 0 2.154 0 2.96.08.857.086 1.687.275 2.42.772.323.22.612.475.861.76.561.648.776 1.381.873 2.138.091.713.091 1.592.091 2.615v2c0 1.024 0 1.903-.091 2.616-.097.756-.312 1.49-.873 2.137a4.436 4.436 0 0 1-.862.76c-.732.497-1.562.687-2.419.772-.806.08-1.8.08-2.96.08h-.166c-1.159 0-2.153 0-2.96-.08-.856-.085-1.687-.275-2.42-.771a4.45 4.45 0 0 1-.86-.761c-.563-.647-.778-1.38-.874-2.137-.09-.713-.09-1.592-.09-2.616v-2c0-1.023 0-1.902.09-2.615.096-.757.311-1.49.873-2.137.249-.286.538-.542.862-.761.732-.497 1.563-.686 2.42-.772.806-.08 1.8-.08 2.959-.08Zm-2.819 2.75c-.585.058-.793.156-.908.233a1.551 1.551 0 0 0-.3.266c-.088.1-.198.285-.264.802-.07.544-.072 1.27-.072 2.388V8.46c0 1.118.002 1.843.072 2.387.066.518.176.702.264.803.086.1.187.189.3.265.115.078.323.175.908.234.616.06 1.637.063 2.902.063 1.265 0 2.366-.002 2.981-.063.585-.059.794-.156.909-.234.113-.076.213-.165.3-.265.088-.101.198-.286.264-.803.07-.544.072-1.27.072-2.387V6.607c0-1.118-.003-1.844-.072-2.388-.066-.517-.176-.701-.264-.802a1.555 1.555 0 0 0-.3-.266c-.115-.077-.324-.175-.909-.233-.615-.061-1.716-.063-2.981-.063s-2.286.002-2.902.063ZM40.074.168h.166c1.159 0 2.154 0 2.96.08.857.086 1.687.275 2.42.772.323.22.612.475.86.76.563.648.777 1.381.874 2.138.09.713.09 1.592.09 2.615v2c0 1.024 0 1.903-.09 2.616-.097.756-.312 1.49-.873 2.137a4.43 4.43 0 0 1-.862.76c-.732.497-1.562.687-2.419.772-.806.08-1.801.08-2.96.08h-.166c-1.159 0-2.154 0-2.96-.08-.857-.085-1.687-.275-2.42-.771a4.435 4.435 0 0 1-.86-.761c-.563-.647-.778-1.38-.874-2.137-.09-.713-.09-1.592-.09-2.616v-2c0-1.023 0-1.902.09-2.615.096-.757.311-1.49.873-2.137.249-.286.538-.542.862-.761.732-.497 1.562-.686 2.419-.772.806-.08 1.801-.08 2.96-.08Zm-2.819 2.75c-.585.058-.793.156-.908.233a1.549 1.549 0 0 0-.3.266c-.088.1-.198.285-.264.802-.07.544-.072 1.27-.072 2.388V8.46c0 1.118.002 1.843.072 2.387.066.518.176.702.264.803.086.1.187.189.3.265.115.078.323.175.908.234.616.06 1.637.063 2.902.063 1.265 0 2.365-.002 2.981-.063.585-.059.794-.156.909-.234.112-.076.213-.165.3-.265.088-.101.198-.286.264-.803.07-.544.071-1.27.071-2.387V6.607c0-1.118-.002-1.844-.071-2.388-.066-.517-.176-.701-.264-.802a1.55 1.55 0 0 0-.3-.266c-.115-.077-.324-.175-.909-.233-.616-.061-1.716-.063-2.981-.063s-2.286.002-2.902.063ZM121.815.174a1141.453 1141.453 0 0 0 .165 0c1.159 0 2.155 0 2.961.08.857.085 1.686.275 2.419.772.324.22.613.475.861.76.562.648.777 1.381.874 2.138.091.713.091 1.591.091 2.615v2c0 1.024 0 1.903-.091 2.615-.097.757-.312 1.49-.874 2.137a4.413 4.413 0 0 1-.861.761c-.733.497-1.562.687-2.419.772-.806.08-1.802.08-2.961.08h-.165c-1.159 0-2.154 0-2.961-.08-.856-.085-1.686-.275-2.418-.771a4.448 4.448 0 0 1-.862-.762c-.562-.647-.777-1.38-.873-2.137-.091-.712-.091-1.591-.091-2.615v-2c0-1.024 0-1.902.091-2.615.096-.757.311-1.49.873-2.137.249-.286.538-.542.862-.761.732-.497 1.562-.687 2.418-.772.807-.08 1.802-.08 2.961-.08Zm-2.819 2.75c-.585.058-.793.155-.908.233a1.523 1.523 0 0 0-.3.265c-.089.102-.198.286-.265.803-.069.544-.071 1.27-.071 2.388v1.853c0 1.117.002 1.843.071 2.387.067.517.176.702.265.803.086.1.187.189.3.265.115.078.323.175.908.233.615.062 1.636.064 2.901.064 1.266 0 2.366-.002 2.982-.064.585-.058.793-.155.908-.233.113-.076.214-.165.3-.265.089-.101.199-.286.265-.803.069-.544.071-1.27.071-2.387V6.613c0-1.118-.002-1.844-.071-2.388-.066-.517-.176-.701-.265-.803a1.523 1.523 0 0 0-.3-.265c-.115-.078-.323-.175-.908-.233-.616-.061-1.716-.063-2.982-.063-1.265 0-2.286.002-2.901.063ZM153.749.176h.166c1.159 0 2.154 0 2.961.08.856.085 1.686.275 2.419.772.323.22.612.475.861.76.562.648.777 1.381.873 2.138.091.712.091 1.591.091 2.615v2c0 1.024 0 1.903-.091 2.615-.096.757-.311 1.49-.873 2.137a4.475 4.475 0 0 1-.861.762c-.733.496-1.563.686-2.419.771-.807.08-1.802.08-2.961.08h-.165c-1.159 0-2.155 0-2.961-.08-.857-.085-1.686-.275-2.419-.771a4.416 4.416 0 0 1-.861-.761c-.562-.648-.777-1.381-.874-2.138-.09-.712-.09-1.591-.09-2.615v-2c0-1.024 0-1.903.09-2.615.097-.757.312-1.49.874-2.137.248-.286.537-.542.861-.761.733-.497 1.562-.687 2.419-.772.806-.08 1.802-.08 2.96-.08Zm-2.818 2.75c-.585.058-.794.155-.909.233a1.551 1.551 0 0 0-.3.265c-.088.102-.198.286-.264.803-.069.544-.072 1.27-.072 2.388v1.853c0 1.117.003 1.843.072 2.387.066.517.176.701.264.803.086.1.188.189.3.265.115.078.324.175.909.233.616.062 1.636.064 2.902.064 1.265 0 2.364-.002 2.98-.064.586-.058.794-.155.909-.233.113-.076.214-.165.3-.265.088-.101.198-.286.264-.803.07-.544.071-1.27.071-2.387V6.615c0-1.118-.001-1.844-.071-2.388-.066-.517-.176-.701-.264-.803a1.522 1.522 0 0 0-.3-.265c-.115-.078-.323-.175-.909-.233-.616-.062-1.715-.064-2.98-.064-1.266 0-2.286.002-2.902.064ZM61.864 12.186l-4.403-9.12-4.387 9.12h8.79Zm2.96 0-5.41-11.134c-.549-1.063-3.37-1.073-3.913 0l-5.404 11.134h-.286c-.787 0-1.425.572-1.425 1.278 0 .706.638 1.278 1.425 1.278h15.3c.786 0 1.425-.572 1.425-1.278 0-.706-.639-1.278-1.425-1.278h-.288ZM96.983 2.614l-7.24 4.864 7.643 4.816c.652.41.823 1.236.382 1.844-.44.607-1.327.767-1.98.356l-8.191-5.162a2.29 2.29 0 0 1-.803-.845v4.93c0 .734-.638 1.329-1.425 1.329s-1.425-.595-1.425-1.328V1.51c0-.733.638-1.328 1.425-1.328s1.425.595 1.425 1.328v4.95c.18-.334.456-.632.825-.86L95.41.398c.657-.404 1.542-.236 1.976.376.433.612.253 1.436-.403 1.84ZM99.12 1.513c0-.734.637-1.328 1.425-1.328h11.796c.787 0 1.425.594 1.425 1.328 0 .733-.638 1.328-1.425 1.328h-11.796c-.788 0-1.426-.595-1.426-1.328Z"/><path d="M106.444.253c.786 0 1.424.595 1.424 1.328v11.907c0 .733-.638 1.328-1.424 1.328-.788 0-1.426-.595-1.426-1.328V1.58c0-.733.638-1.328 1.426-1.328Z"/></g></g><path d="m9 28 2.02 6.219h6.54l-5.29 3.843 2.02 6.22L9 40.437 3.71 44.28l2.02-6.219L.44 34.22h6.54L9 28ZM31 28l2.02 6.219h6.54l-5.29 3.843 2.02 6.22L31 40.437l-5.29 3.843 2.02-6.219-5.29-3.843h6.54L31 28ZM53 28l2.02 6.219h6.54l-5.29 3.843 2.02 6.22L53 40.437l-5.29 3.843 2.02-6.219-5.29-3.843h6.54L53 28ZM75 28l2.02 6.219h6.54l-5.29 3.843 2.02 6.22L75 40.437l-5.29 3.843 2.02-6.219-5.29-3.843h6.54L75 28ZM97 28l2.02 6.219h6.54l-5.291 3.843 2.021 6.22L97 40.437l-5.29 3.843 2.02-6.219-5.29-3.843h6.54L97 28Z" fill="#EA9537"/><path d="M118.128 43V32.792l-2.168 1.304v-1.32l2.168-1.296h1.192V43h-1.192Zm6.234 0V32.792l-2.168 1.304v-1.32l2.168-1.296h1.192V43h-1.192Zm4.843 0 4.24-10.376h-5.336V31.48h6.592v1.144L130.469 43h-1.264Zm11.175.24a3.76 3.76 0 0 1-1.92-.496 3.696 3.696 0 0 1-1.344-1.344 3.756 3.756 0 0 1-.496-1.92V35c0-.71.165-1.347.496-1.912a3.677 3.677 0 0 1 1.344-1.352 3.76 3.76 0 0 1 1.92-.496c.709 0 1.347.165 1.912.496.571.33 1.021.781 1.352 1.352.331.565.496 1.203.496 1.912v4.48c0 .71-.165 1.35-.496 1.92a3.673 3.673 0 0 1-1.352 1.344c-.565.33-1.203.496-1.912.496Zm0-1.136c.475 0 .907-.115 1.296-.344.389-.235.699-.547.928-.936.229-.39.344-.819.344-1.288v-4.592c0-.475-.115-.907-.344-1.296a2.58 2.58 0 0 0-.928-.928 2.46 2.46 0 0 0-1.296-.352 2.46 2.46 0 0 0-1.296.352 2.58 2.58 0 0 0-.928.928c-.229.39-.344.821-.344 1.296v4.592c0 .47.115.899.344 1.288.229.39.539.701.928.936.389.23.821.344 1.296.344Zm12.817 1.136c-.859 0-1.592-.195-2.2-.584a3.797 3.797 0 0 1-1.4-1.616c-.326-.688-.488-1.477-.488-2.368 0-.907.165-1.701.496-2.384.33-.683.8-1.213 1.408-1.592.613-.384 1.341-.576 2.184-.576.864 0 1.6.195 2.208.584a3.68 3.68 0 0 1 1.4 1.608c.325.683.488 1.47.488 2.36 0 .907-.163 1.704-.488 2.392a3.745 3.745 0 0 1-1.408 1.6c-.614.384-1.347.576-2.2.576Zm0-1.128c.96 0 1.674-.317 2.144-.952.469-.64.704-1.47.704-2.488 0-1.045-.238-1.877-.712-2.496-.47-.619-1.182-.928-2.136-.928-.646 0-1.179.147-1.6.44-.416.288-.728.69-.936 1.208-.203.512-.304 1.104-.304 1.776 0 1.04.24 1.875.72 2.504.48.624 1.186.936 2.12.936Zm7.986.888v-7.552h-3.064V34.36h7.304v1.088h-3.064V43h-1.176Zm8.877.24c-.869 0-1.629-.19-2.28-.568a4.14 4.14 0 0 1-1.528-1.592l.944-.6c.315.533.707.939 1.176 1.216s1.008.416 1.616.416c.635 0 1.144-.147 1.528-.44.384-.293.576-.696.576-1.208 0-.352-.083-.632-.248-.84-.16-.208-.405-.357-.736-.448-.325-.09-.733-.136-1.224-.136h-1.024v-1.008h1.008c.597 0 1.077-.107 1.44-.32.368-.219.552-.56.552-1.024 0-.49-.184-.853-.552-1.088-.363-.24-.797-.36-1.304-.36-.512 0-.997.107-1.456.32a3.6 3.6 0 0 0-1.144.808l-.752-.792a4.307 4.307 0 0 1 1.512-1.08 4.818 4.818 0 0 1 1.928-.376c.555 0 1.056.099 1.504.296.453.192.811.475 1.072.848.267.373.4.821.4 1.344 0 .49-.12.915-.36 1.272-.235.357-.568.653-1 .888l-.064-.44c.373.07.683.219.928.448.245.23.427.504.544.824.117.32.176.645.176.976 0 .55-.144 1.024-.432 1.424a2.783 2.783 0 0 1-1.16.92c-.485.213-1.032.32-1.64.32Zm5.006-.24-.016-8.64h1.184v3.256h1.504c.25 0 .496.005.736.016.24.01.456.032.648.064.426.085.805.23 1.136.432.33.203.592.483.784.84.192.352.288.797.288 1.336 0 .741-.192 1.325-.576 1.752a2.67 2.67 0 0 1-1.448.832c-.219.048-.456.08-.712.096-.256.01-.507.016-.752.016h-2.776Zm1.168-1.008h1.56c.176 0 .376-.005.6-.016.224-.01.421-.04.592-.088.288-.08.546-.24.776-.48.234-.245.352-.613.352-1.104 0-.485-.112-.85-.336-1.096-.224-.25-.523-.416-.896-.496a3.45 3.45 0 0 0-.544-.072 9.519 9.519 0 0 0-.544-.016h-1.56v3.368ZM182.362 43v-8.64h1.176V43h-1.176Zm3.406 0v-8.64h3.56c.182 0 .4.01.656.032.262.021.504.061.728.12.486.128.875.39 1.168.784.299.395.448.87.448 1.424 0 .31-.048.587-.144.832-.09.24-.221.448-.392.624a1.6 1.6 0 0 1-.264.24 2.165 2.165 0 0 1-.28.16c.171.032.355.107.552.224.31.181.544.427.704.736.16.304.24.675.24 1.112 0 .592-.141 1.075-.424 1.448-.282.373-.661.63-1.136.768a3.443 3.443 0 0 1-.696.112c-.245.016-.477.024-.696.024h-4.024Zm1.184-1h2.784c.112 0 .254-.008.424-.024.171-.021.323-.048.456-.08.315-.08.544-.24.688-.48.15-.245.224-.512.224-.8 0-.379-.112-.688-.336-.928-.218-.245-.512-.395-.88-.448a2.2 2.2 0 0 0-.384-.048 9.129 9.129 0 0 0-.36-.008h-2.616V42Zm0-3.824h2.416c.139 0 .294-.008.464-.024.176-.021.328-.056.456-.104.278-.096.48-.261.608-.496.134-.235.2-.49.2-.768 0-.304-.072-.57-.216-.8a1.096 1.096 0 0 0-.632-.48c-.192-.07-.4-.11-.624-.12-.218-.01-.357-.016-.416-.016h-2.256v2.808Zm10.995 5.064c-.859 0-1.592-.195-2.2-.584a3.797 3.797 0 0 1-1.4-1.616c-.326-.688-.488-1.477-.488-2.368 0-.907.165-1.701.496-2.384.33-.683.8-1.213 1.408-1.592.613-.384 1.341-.576 2.184-.576.864 0 1.6.195 2.208.584a3.68 3.68 0 0 1 1.4 1.608c.325.683.488 1.47.488 2.36 0 .907-.163 1.704-.488 2.392a3.745 3.745 0 0 1-1.408 1.6c-.614.384-1.347.576-2.2.576Zm0-1.128c.96 0 1.674-.317 2.144-.952.469-.64.704-1.47.704-2.488 0-1.045-.238-1.877-.712-2.496-.47-.619-1.182-.928-2.136-.928-.646 0-1.179.147-1.6.44-.416.288-.728.69-.936 1.208-.203.512-.304 1.104-.304 1.776 0 1.04.24 1.875.72 2.504.48.624 1.186.936 2.12.936ZM203.8 43v-8.64h3.56c.181 0 .4.01.656.032.261.021.504.061.728.12.485.128.874.39 1.168.784.298.395.448.87.448 1.424 0 .31-.048.587-.144.832-.091.24-.222.448-.392.624a1.6 1.6 0 0 1-.264.24c-.096.064-.19.117-.28.16.17.032.354.107.552.224a1.8 1.8 0 0 1 .704.736c.16.304.24.675.24 1.112 0 .592-.142 1.075-.424 1.448-.283.373-.662.63-1.136.768a3.466 3.466 0 0 1-.696.112c-.246.016-.478.024-.696.024H203.8Zm1.184-1h2.784c.112 0 .253-.008.424-.024.17-.021.322-.048.456-.08.314-.08.544-.24.688-.48.149-.245.224-.512.224-.8 0-.379-.112-.688-.336-.928-.219-.245-.512-.395-.88-.448a2.225 2.225 0 0 0-.384-.048 9.211 9.211 0 0 0-.36-.008h-2.616V42Zm0-3.824h2.416c.138 0 .293-.008.464-.024.176-.021.328-.056.456-.104.277-.096.48-.261.608-.496.133-.235.2-.49.2-.768 0-.304-.072-.57-.216-.8-.139-.23-.35-.39-.632-.48-.192-.07-.4-.11-.624-.12-.219-.01-.358-.016-.416-.016h-2.256v2.808Z" fill="#232323"/><defs><clipPath id="a"><path fill="#fff" d="M0 0h178v15H0z"/></clipPath></defs></svg>