<svg xmlns="http://www.w3.org/2000/svg" width="170" height="52" fill="none"><g fill="#232323" clip-path="url(#a)"><path d="M26.81 10.769c0 2.915-2.314 5.063-5.154 5.063s-5.153-2.148-5.153-5.063c0-2.936 2.314-5.063 5.153-5.063 2.84 0 5.154 2.127 5.154 5.063Zm-2.256 0c0-1.822-1.341-3.068-2.898-3.068-1.556 0-2.897 1.246-2.897 3.068 0 1.803 1.341 3.068 2.897 3.068 1.557 0 2.898-1.267 2.898-3.068ZM37.927 10.769c0 2.915-2.314 5.063-5.153 5.063-2.84 0-5.154-2.148-5.154-5.063 0-2.933 2.314-5.063 5.154-5.063s5.153 2.127 5.153 5.063Zm-2.256 0c0-1.822-1.34-3.068-2.897-3.068-1.557 0-2.898 1.246-2.898 3.068 0 1.803 1.341 3.068 2.898 3.068 1.556 0 2.897-1.267 2.897-3.068ZM48.582 6.012v9.09c0 3.738-2.238 5.265-4.883 5.265-2.49 0-3.988-1.64-4.553-2.983l1.964-.806c.35.824 1.206 1.797 2.587 1.797 1.693 0 2.742-1.03 2.742-2.968v-.728h-.078c-.505.614-1.478 1.15-2.706 1.15-2.568 0-4.922-2.205-4.922-5.042 0-2.858 2.354-5.081 4.922-5.081 1.225 0 2.198.536 2.706 1.132h.078v-.824h2.143v-.002Zm-1.983 4.775c0-1.783-1.207-3.086-2.742-3.086-1.557 0-2.86 1.303-2.86 3.086 0 1.765 1.303 3.05 2.86 3.05 1.535 0 2.742-1.285 2.742-3.05ZM52.114.685V15.52h-2.2V.685h2.2ZM60.689 12.435l1.75 1.15c-.564.825-1.926 2.245-4.28 2.245-2.918 0-5.097-2.223-5.097-5.063 0-3.01 2.198-5.063 4.845-5.063 2.666 0 3.97 2.091 4.396 3.22l.234.576-6.867 2.803c.525 1.016 1.343 1.534 2.49 1.534 1.148 0 1.945-.557 2.529-1.402Zm-5.39-1.821 4.59-1.879c-.252-.632-1.012-1.072-1.906-1.072-1.146 0-2.742.997-2.684 2.951ZM8.173 9.452V7.304h7.345c.072.375.109.818.109 1.297 0 1.611-.447 3.604-1.888 5.024-1.401 1.438-3.192 2.205-5.563 2.205-4.396 0-8.093-3.529-8.093-7.861C.083 3.636 3.78.107 8.176.107c2.432 0 4.164.94 5.466 2.167l-1.538 1.515c-.933-.863-2.198-1.534-3.93-1.534A5.68 5.68 0 0 0 2.451 7.97a5.68 5.68 0 0 0 5.721 5.713c2.083 0 3.268-.824 4.028-1.573.616-.607 1.022-1.474 1.181-2.659l-5.209.002Z"/></g><path fill="#EA9537" d="m9 30.5 2.02 6.219h6.54l-5.29 3.843 2.02 6.22L9 42.937 3.71 46.78l2.02-6.219L.44 36.72h6.54L9 30.5ZM31 30.5l2.02 6.219h6.54l-5.29 3.843 2.02 6.22L31 42.937l-5.29 3.843 2.02-6.219-5.29-3.843h6.54L31 30.5ZM53 30.5l2.02 6.219h6.54l-5.29 3.843 2.02 6.22L53 42.937l-5.29 3.843 2.02-6.219-5.29-3.843h6.54L53 30.5ZM75 30.5l2.02 6.219h6.54l-5.29 3.843 2.02 6.22L75 42.937l-5.29 3.843 2.02-6.219-5.29-3.843h6.54L75 30.5Z"/><mask id="b" width="9" height="20" x="88" y="28" maskUnits="userSpaceOnUse" style="mask-type:alpha"><path fill="#D9D9D9" d="M88 28.5h9v19h-9z"/></mask><g mask="url(#b)"><path fill="#EA9537" d="m97 30 2.02 6.219h6.54l-5.291 3.843 2.021 6.22L97 42.437l-5.29 3.843 2.02-6.219-5.29-3.843h6.54L97 30Z"/></g><path fill="#EA9537" d="m97 30 2.02 6.219h6.54l-5.291 3.843 2.021 6.22L97 42.437l-5.29 3.843 2.02-6.219-5.29-3.843h6.54L97 30Z" opacity=".5"/><path fill="#232323" d="M121.192 46v-2.232H115.8v-1.12l3.856-8.168h1.32l-3.856 8.168h4.072v-3.36h1.184v3.36h1.256v1.12h-1.256V46h-1.184Zm4.277 0v-1.368h1.368V46h-1.368Zm6.935.232a4.009 4.009 0 0 1-1.576-.304 3.556 3.556 0 0 1-1.24-.864c-.347-.379-.6-.83-.76-1.352l1.12-.336c.192.57.506 1.003.944 1.296.442.293.941.435 1.496.424.512-.01.952-.125 1.32-.344a2.18 2.18 0 0 0 .856-.912c.197-.39.296-.84.296-1.352 0-.784-.23-1.413-.688-1.888-.454-.48-1.054-.72-1.8-.72-.208 0-.427.03-.656.088a2.75 2.75 0 0 0-.64.232l-.592-.936 4.48-4.136.192.48h-5.872V34.48h6.656v1.144l-3.904 3.728-.016-.464c.8-.101 1.504-.01 2.112.272a3.165 3.165 0 0 1 1.424 1.296c.346.576.52 1.253.52 2.032 0 .736-.16 1.387-.48 1.952-.315.56-.75 1-1.304 1.32-.555.315-1.184.472-1.888.472Zm15.814-8.872V46h-1.144v-6.728L142.338 46h-.992v-8.64h1.144v6.672l4.744-6.672h.984Zm5.358 8.88c-.87 0-1.63-.19-2.28-.568a4.132 4.132 0 0 1-1.528-1.592l.944-.6c.314.533.706.939 1.176 1.216.469.277 1.008.416 1.616.416.634 0 1.144-.147 1.528-.44.384-.293.576-.696.576-1.208 0-.352-.083-.632-.248-.84-.16-.208-.406-.357-.736-.448-.326-.09-.734-.136-1.224-.136h-1.024v-1.008h1.008c.597 0 1.077-.107 1.44-.32.368-.219.552-.56.552-1.024 0-.49-.184-.853-.552-1.088-.363-.24-.798-.36-1.304-.36a3.41 3.41 0 0 0-1.456.32 3.588 3.588 0 0 0-1.144.808l-.752-.792a4.307 4.307 0 0 1 1.512-1.08 4.818 4.818 0 0 1 1.928-.376c.554 0 1.056.099 1.504.296.453.192.81.475 1.072.848.266.373.4.821.4 1.344 0 .49-.12.915-.36 1.272-.235.357-.568.653-1 .888l-.064-.44c.373.07.682.219.928.448.245.23.426.504.544.824.117.32.176.645.176.976 0 .55-.144 1.024-.432 1.424a2.79 2.79 0 0 1-1.16.92 4.038 4.038 0 0 1-1.64.32Zm11.6 0a3.752 3.752 0 0 1-1.656-.368 3.839 3.839 0 0 1-1.296-1.016 3.968 3.968 0 0 1-.768-1.488l1.128-.304c.102.416.286.776.552 1.08.267.299.579.53.936.696.363.165.742.248 1.136.248.512 0 .971-.123 1.376-.368.411-.25.736-.581.976-.992.24-.41.36-.861.36-1.352 0-.507-.125-.963-.376-1.368a2.796 2.796 0 0 0-.992-.976c-.41-.24-.858-.36-1.344-.36-.544 0-1.013.12-1.408.36a2.86 2.86 0 0 0-.944.888l-1.072-.448.352-5.992h6.152v1.128h-5.632l.584-.552-.312 5.112-.296-.392a3.495 3.495 0 0 1 1.2-.888 3.54 3.54 0 0 1 1.48-.32c.71 0 1.35.17 1.92.512a3.756 3.756 0 0 1 1.36 1.368c.336.576.504 1.219.504 1.928 0 .704-.178 1.35-.536 1.936a4.11 4.11 0 0 1-1.424 1.4 3.763 3.763 0 0 1-1.96.528Z"/><defs><clipPath id="a"><path fill="#fff" d="M0 0h63v21H0z"/></clipPath></defs></svg>