<svg width="178" height="49" fill="none" xmlns="http://www.w3.org/2000/svg"><g clip-path="url(#a)"><path d="M4.416 13.216c-.576 0-1.12-.112-1.632-.336a3.953 3.953 0 0 1-1.336-.952 3.681 3.681 0 0 1-.808-1.456l1.864-.504c.133.459.376.813.728 1.064.357.245.75.365 1.176.36.379 0 .717-.088 1.016-.264.299-.176.533-.413.704-.712A2.04 2.04 0 0 0 6.384 9.4c0-.57-.184-1.048-.552-1.432-.368-.384-.843-.576-1.424-.576-.176 0-.35.024-.52.072a2.345 2.345 0 0 0-.48.2l-.88-1.52L6.4 2.832l.168.464h-5.48V1.48h7.064v1.824L5.04 6.296l-.016-.568c.699.048 1.293.243 1.784.584.496.341.875.781 1.136 1.32.267.539.4 1.128.4 1.768 0 .725-.179 1.376-.536 1.952a3.853 3.853 0 0 1-1.424 1.368 3.966 3.966 0 0 1-1.968.496Zm5.68-.232v-1.68l4.929-4.392c.384-.341.65-.664.8-.968.15-.304.224-.597.224-.88A2.08 2.08 0 0 0 15.8 4.04a1.861 1.861 0 0 0-1.688-.984c-.4 0-.755.093-1.064.28a1.942 1.942 0 0 0-.712.728c-.17.304-.25.632-.24.984h-1.984c0-.768.17-1.437.512-2.008a3.56 3.56 0 0 1 1.424-1.328c.608-.315 1.31-.472 2.104-.472.736 0 1.397.165 1.984.496a3.57 3.57 0 0 1 1.384 1.36c.336.576.504 1.24.504 1.992 0 .55-.075 1.01-.224 1.384-.15.373-.373.717-.672 1.032-.294.315-.659.664-1.096 1.048l-3.496 3.096-.176-.48h5.664v1.816h-7.928ZM25.013 13c-.57.107-1.13.152-1.68.136a3.85 3.85 0 0 1-1.464-.296 2.029 2.029 0 0 1-.984-.904 2.577 2.577 0 0 1-.312-1.144c-.01-.39-.016-.83-.016-1.32V1.96h1.92v7.4c0 .347.003.65.008.912.01.261.067.475.168.64.192.32.499.499.92.536a6.18 6.18 0 0 0 1.44-.064V13Zm-6.024-7.128V4.36h6.024v1.512h-6.024Zm11.26 7.368c-.864 0-1.618-.195-2.264-.584a4.01 4.01 0 0 1-1.504-1.608c-.352-.688-.527-1.477-.527-2.368 0-.907.18-1.701.544-2.384a4.012 4.012 0 0 1 1.512-1.6c.645-.384 1.392-.576 2.24-.576.869 0 1.626.195 2.271.584.646.39 1.147.928 1.505 1.616.357.683.535 1.47.535 2.36 0 .896-.18 1.688-.544 2.376a4.01 4.01 0 0 1-1.503 1.608c-.646.384-1.4.576-2.264.576Zm0-1.808c.768 0 1.34-.256 1.712-.768.374-.512.56-1.173.56-1.984 0-.837-.189-1.504-.568-2-.378-.501-.946-.752-1.704-.752-.517 0-.944.117-1.28.352-.33.23-.576.552-.735.968-.16.41-.24.888-.24 1.432 0 .837.189 1.507.568 2.008.384.496.946.744 1.688.744Zm10.227 1.808c-.843 0-1.55-.2-2.12-.6-.57-.4-1-.944-1.288-1.632-.288-.693-.432-1.47-.432-2.328 0-.87.144-1.648.432-2.336.288-.688.71-1.23 1.264-1.624.56-.4 1.25-.6 2.072-.6.816 0 1.523.2 2.12.6.603.395 1.07.936 1.4 1.624.33.683.496 1.461.496 2.336 0 .864-.162 1.64-.488 2.328a3.971 3.971 0 0 1-1.376 1.632c-.592.4-1.285.6-2.08.6Zm-4.168 3.6V4.36h1.704v6.064h.24v6.416h-1.944Zm3.872-5.328c.502 0 .915-.125 1.24-.376.326-.25.566-.59.72-1.016.16-.432.24-.912.24-1.44 0-.523-.08-.997-.24-1.424a2.19 2.19 0 0 0-.744-1.024c-.336-.256-.763-.384-1.28-.384-.49 0-.89.12-1.2.36-.31.235-.538.565-.688.992-.144.421-.216.915-.216 1.48 0 .56.072 1.053.216 1.48.15.427.382.76.696 1 .32.235.739.352 1.256.352ZM46.19 13v-1.976h1.976V13H46.19Zm4.54 0V4.36h1.703v2.104l-.208-.272a3.08 3.08 0 0 1 .424-.784 2.36 2.36 0 0 1 .648-.592c.214-.144.448-.256.704-.336.262-.085.528-.136.8-.152.272-.021.536-.01.792.032v1.8a2.473 2.473 0 0 0-.888-.072c-.33.027-.629.12-.896.28a2.013 2.013 0 0 0-.656.552c-.165.224-.288.48-.368.768-.08.283-.12.59-.12.92V13H50.73Zm9.63.248c-.64 0-1.168-.107-1.584-.32a2.797 2.797 0 0 1-.992-.816 3.553 3.553 0 0 1-.544-1.056A5.651 5.651 0 0 1 57.008 10a8.993 8.993 0 0 1-.048-.816V4.36h1.952v4.16c0 .267.019.568.056.904.037.33.123.65.256.96.139.304.341.555.608.752.272.197.637.296 1.096.296.245 0 .488-.04.728-.12.24-.08.456-.216.648-.408.197-.197.355-.467.472-.808.117-.341.176-.773.176-1.296l1.144.488c0 .736-.144 1.403-.432 2a3.402 3.402 0 0 1-1.256 1.432c-.555.352-1.237.528-2.048.528ZM63.184 13v-2.68h-.232V4.36h1.936V13h-1.704Z" fill="#232323"/></g><path d="m9 27.5 2.02 6.219h6.54l-5.29 3.843 2.02 6.22L9 39.937 3.71 43.78l2.02-6.219L.44 33.72h6.54L9 27.5ZM31 27.5l2.02 6.219h6.54l-5.29 3.843 2.02 6.22L31 39.937l-5.29 3.843 2.02-6.219-5.29-3.843h6.54L31 27.5ZM53 27.5l2.02 6.219h6.54l-5.29 3.843 2.02 6.22L53 39.937l-5.29 3.843 2.02-6.219-5.29-3.843h6.54L53 27.5ZM75 27.5l2.02 6.219h6.54l-5.29 3.843 2.02 6.22L75 39.937l-5.29 3.843 2.02-6.219-5.29-3.843h6.54L75 27.5Z" fill="#EA9537"/><mask id="b" style="mask-type:alpha" maskUnits="userSpaceOnUse" x="88" y="25" width="9" height="20"><path fill="#D9D9D9" d="M88 25.5h9v19h-9z"/></mask><g mask="url(#b)"><path d="m97 27 2.02 6.219h6.54l-5.291 3.843 2.021 6.22L97 39.437l-5.29 3.843 2.02-6.219-5.29-3.843h6.54L97 27Z" fill="#EA9537"/></g><path opacity=".5" d="m97 27 2.02 6.219h6.54l-5.291 3.843 2.021 6.22L97 39.437l-5.29 3.843 2.02-6.219-5.29-3.843h6.54L97 27Z" fill="#EA9537"/><path d="M121.192 43v-2.232H115.8v-1.12l3.856-8.168h1.32l-3.856 8.168h4.072v-3.36h1.184v3.36h1.256v1.12h-1.256V43h-1.184Zm4.277 0v-1.368h1.368V43h-1.368Zm3.519-.008.008-1.072 5.208-4.704c.448-.405.744-.79.888-1.152.149-.368.224-.752.224-1.152a2.509 2.509 0 0 0-1.24-2.2 2.41 2.41 0 0 0-1.272-.344c-.491 0-.928.117-1.312.352a2.62 2.62 0 0 0-.912.928 2.425 2.425 0 0 0-.32 1.256h-1.2c0-.699.165-1.325.496-1.88.33-.555.778-.99 1.344-1.304.565-.32 1.205-.48 1.92-.48.698 0 1.325.165 1.88.496.56.325 1 .768 1.32 1.328.325.555.488 1.173.488 1.856a4.2 4.2 0 0 1-.176 1.272 3.167 3.167 0 0 1-.536 1.016c-.24.31-.547.63-.92.96l-4.624 4.176-.184-.48h6.44v1.128h-7.52ZM148.5 34.36V43h-1.144v-6.728L142.62 43h-.992v-8.64h1.144v6.672l4.744-6.672h.984Zm5.357 8.88c-.869 0-1.629-.19-2.28-.568a4.14 4.14 0 0 1-1.528-1.592l.944-.6c.315.533.707.939 1.176 1.216s1.008.416 1.616.416c.635 0 1.144-.147 1.528-.44.384-.293.576-.696.576-1.208 0-.352-.083-.632-.248-.84-.16-.208-.405-.357-.736-.448-.325-.09-.733-.136-1.224-.136h-1.024v-1.008h1.008c.597 0 1.077-.107 1.44-.32.368-.219.552-.56.552-1.024 0-.49-.184-.853-.552-1.088-.363-.24-.797-.36-1.304-.36-.512 0-.997.107-1.456.32a3.6 3.6 0 0 0-1.144.808l-.752-.792a4.307 4.307 0 0 1 1.512-1.08 4.818 4.818 0 0 1 1.928-.376c.555 0 1.056.099 1.504.296.453.192.811.475 1.072.848.267.373.4.821.4 1.344 0 .49-.12.915-.36 1.272-.235.357-.568.653-1 .888l-.064-.44c.373.07.683.219.928.448.245.23.427.504.544.824.117.32.176.645.176.976 0 .55-.144 1.024-.432 1.424a2.783 2.783 0 0 1-1.16.92c-.485.213-1.032.32-1.64.32Zm11.6 0a3.744 3.744 0 0 1-1.655-.368 3.82 3.82 0 0 1-1.296-1.016 3.94 3.94 0 0 1-.768-1.488l1.128-.304c.101.416.285.776.552 1.08.266.299.578.53.936.696.362.165.741.248 1.136.248.512 0 .97-.123 1.376-.368.41-.25.736-.581.976-.992.24-.41.36-.861.36-1.352 0-.507-.126-.963-.376-1.368a2.812 2.812 0 0 0-.992-.976 2.618 2.618 0 0 0-1.344-.36c-.544 0-1.014.12-1.408.36-.395.235-.71.53-.944.888l-1.072-.448.352-5.992h6.152v1.128h-5.632l.584-.552-.312 5.112-.296-.392c.33-.379.73-.675 1.2-.888.469-.213.962-.32 1.48-.32.709 0 1.349.17 1.92.512a3.764 3.764 0 0 1 1.864 3.296c0 .704-.179 1.35-.536 1.936a4.12 4.12 0 0 1-1.424 1.4 3.766 3.766 0 0 1-1.961.528Z" fill="#232323"/><defs><clipPath id="a"><path fill="#fff" d="M0 0h178v15H0z"/></clipPath></defs></svg>