<svg width="212" height="49" viewBox="0 0 212 49" fill="none" xmlns="http://www.w3.org/2000/svg">
<g clip-path="url(#clip0_514_941)">
<mask id="mask0_514_941" style="mask-type:luminance" maskUnits="userSpaceOnUse" x="0" y="0" width="178" height="15">
<path d="M178 0H0V15H178V0Z" fill="white"/>
</mask>
<g mask="url(#mask0_514_941)">
<path fill-rule="evenodd" clip-rule="evenodd" d="M7.61293 0.109378C7.64429 0.109379 7.67578 0.109381 7.70741 0.109381C7.73897 0.109381 7.77053 0.109379 7.80182 0.109378C9.11128 0.109314 10.2347 0.109258 11.1333 0.221821C12.0944 0.342218 13.0089 0.61287 13.7498 1.30314C14.4906 1.99341 14.7811 2.84539 14.9103 3.7409C15.0311 4.57812 15.0311 5.6248 15.031 6.84477V13.449C15.031 14.1825 14.3928 14.7771 13.6056 14.7771C12.8183 14.7771 12.1802 14.1825 12.1802 13.449V6.93282C12.1802 5.60002 12.1771 4.73399 12.085 4.09482C11.9982 3.49385 11.8568 3.2958 11.7339 3.18129C11.611 3.06678 11.3984 2.93504 10.7534 2.85424C10.0674 2.76831 9.13791 2.76549 7.70741 2.76549C6.2769 2.76549 5.3474 2.76831 4.66136 2.85424C4.01634 2.93504 3.80377 3.06678 3.68088 3.18129C3.55797 3.2958 3.41658 3.49385 3.32985 4.09482C3.23762 4.73399 3.23459 5.60002 3.23459 6.93282V13.449C3.23459 14.1825 2.59642 14.7771 1.80919 14.7771C1.02197 14.7771 0.383796 14.1825 0.383796 13.449V6.93282C0.383796 6.9034 0.383794 6.87405 0.383792 6.84477C0.383723 5.6248 0.383664 4.57812 0.50448 3.7409C0.6337 2.84539 0.924192 1.99341 1.66506 1.30314C2.40593 0.61287 3.32035 0.342218 4.2815 0.221821C5.1801 0.109258 6.3035 0.109314 7.61293 0.109378Z" fill="#232323"/>
<path fill-rule="evenodd" clip-rule="evenodd" d="M17.3818 2.4588C17.3818 1.2195 18.4602 0.214844 19.7902 0.214844H26.6715C29.0875 0.214844 31.046 2.03962 31.046 4.2906V5.78767C31.046 8.03866 29.0875 9.86344 26.6715 9.86344H20.2326V13.4496C20.2326 14.1831 19.5944 14.7776 18.8073 14.7776C18.02 14.7776 17.3818 14.1831 17.3818 13.4496V2.4588ZM20.2326 7.20733H26.6715C27.513 7.20733 28.1952 6.57172 28.1952 5.78767V4.2906C28.1952 3.50655 27.513 2.87095 26.6715 2.87095H20.2326V7.20733Z" fill="#232323"/>
<path fill-rule="evenodd" clip-rule="evenodd" d="M131.196 2.42657C131.196 1.18727 132.275 0.182617 133.605 0.182617H140.486C142.902 0.182617 144.861 2.00739 144.861 4.25837V5.75545C144.861 8.0064 142.902 9.83119 140.486 9.83119H134.047V13.4174C134.047 14.1508 133.409 14.7454 132.622 14.7454C131.834 14.7454 131.196 14.1508 131.196 13.4174V2.42657ZM134.047 7.17514H140.486C141.327 7.17514 142.01 6.53953 142.01 5.75545V4.25837C142.01 3.47432 141.327 2.83872 140.486 2.83872H134.047V7.17514Z" fill="#232323"/>
<path fill-rule="evenodd" clip-rule="evenodd" d="M166.422 0.241242L166.355 0.241227C165.951 0.241086 165.518 0.240936 165.153 0.286617C164.727 0.339949 164.189 0.476469 163.735 0.898484C163.283 1.32049 163.136 1.82246 163.079 2.21914C163.03 2.55891 163.03 2.96227 163.03 3.3391V3.40109V6.99703C163.03 7.00003 163.03 7.0031 163.03 7.00616C163.03 7.00871 163.03 7.01132 163.03 7.01386V13.4174C163.03 14.1509 163.668 14.7455 164.456 14.7455C164.529 14.7455 164.601 14.7403 164.672 14.7303C164.742 14.7403 164.814 14.7455 164.888 14.7455H172.811H172.893C173.269 14.7457 173.587 14.7459 173.874 14.7106C175.837 14.4699 177.382 13.0307 177.64 11.2018C177.678 10.9343 177.678 10.6375 177.678 10.2876V10.2119V10.1361C177.678 9.78619 177.678 9.48945 177.64 9.22193C177.501 8.23838 176.99 7.3676 176.243 6.73525C176.833 6.06827 177.186 5.21385 177.186 4.25846C177.186 2.00749 175.227 0.241242 172.811 0.241242H166.422ZM165.881 8.2149V12.0894H172.811C173.314 12.0894 173.426 12.0865 173.502 12.0773C174.185 11.9934 174.723 11.4921 174.814 10.855C174.823 10.7845 174.827 10.6794 174.827 10.2119C174.827 9.74425 174.823 9.63912 174.814 9.56862C174.723 8.93151 174.185 8.3109 173.502 8.22703C173.426 8.21771 173.314 8.2149 172.811 8.2149H165.881ZM172.811 5.67808H165.881V3.40109C165.881 3.19845 165.881 3.03806 165.884 2.90028C166.032 2.89742 166.205 2.89735 166.422 2.89735H172.811C173.653 2.89735 174.335 3.47441 174.335 4.25846C174.335 5.04252 173.653 5.67808 172.811 5.67808Z" fill="#232323"/>
<path fill-rule="evenodd" clip-rule="evenodd" d="M74.3977 0.167971C74.4258 0.167972 74.4532 0.167973 74.4805 0.167973C74.5086 0.167973 74.5367 0.167972 74.5641 0.167971C75.7231 0.167926 76.7179 0.167887 77.5243 0.248222C78.3808 0.333521 79.2106 0.523398 79.9431 1.01992C80.2669 1.23925 80.5565 1.4951 80.805 1.78094C81.3664 2.42802 81.5814 3.16144 81.6779 3.91807C81.769 4.63067 81.769 5.50959 81.769 6.53349V8.53312C81.769 9.55697 81.769 10.4359 81.6779 11.1485C81.5814 11.9051 81.3664 12.6386 80.805 13.2856C80.5565 13.5715 80.2669 13.8273 79.9431 14.0466C79.2106 14.5432 78.3808 14.733 77.5243 14.8183C76.7179 14.8987 75.7231 14.8986 74.5641 14.8986H74.3977C73.2393 14.8986 72.2446 14.8987 71.4381 14.8183C70.5817 14.733 69.7512 14.5432 69.0187 14.0466C68.6955 13.8273 68.4059 13.5715 68.1574 13.2856C67.5954 12.6386 67.3803 11.9051 67.2839 11.1485C67.1934 10.4359 67.1934 9.5569 67.1934 8.53306V6.60679C67.1934 6.58227 67.1934 6.55782 67.1934 6.53349C67.1934 5.50959 67.1934 4.63067 67.2839 3.91807C67.3803 3.16144 67.5954 2.42802 68.1574 1.78094C68.4059 1.4951 68.6955 1.23925 69.0187 1.01992C69.7512 0.523398 70.5817 0.333521 71.4381 0.248222C72.2446 0.167887 73.2393 0.167926 74.3977 0.167971ZM71.5791 2.91803C70.9938 2.97631 70.7857 3.07361 70.6707 3.15143C70.5584 3.22783 70.4571 3.31695 70.3708 3.41651C70.2832 3.51793 70.1729 3.70203 70.1065 4.21906C70.0374 4.76315 70.0347 5.48907 70.0347 6.60679V8.45975C70.0347 9.57751 70.0374 10.3034 70.1065 10.8475C70.1729 11.3645 70.2832 11.5486 70.3708 11.6501C70.4571 11.7496 70.5584 11.8387 70.6707 11.9151C70.7857 11.9929 70.9938 12.0902 71.5791 12.1485C72.1946 12.2099 73.2161 12.2119 74.4805 12.2119C75.7464 12.2119 76.8466 12.2099 77.462 12.1485C78.0474 12.0902 78.2562 11.9929 78.3705 11.9151C78.4835 11.8387 78.5841 11.7496 78.6711 11.6501C78.7587 11.5486 78.8689 11.3645 78.9346 10.8475C79.0045 10.3034 79.0065 9.57751 79.0065 8.45975V6.60679C79.0065 5.48907 79.0045 4.76315 78.9346 4.21906C78.8689 3.70203 78.7587 3.51793 78.6711 3.41651C78.5841 3.31695 78.4835 3.22783 78.3705 3.15143C78.2562 3.07361 78.0474 2.97631 77.462 2.91803C76.8466 2.85668 75.7464 2.85469 74.4805 2.85469C73.2161 2.85469 72.1946 2.85668 71.5791 2.91803Z" fill="#232323"/>
<path fill-rule="evenodd" clip-rule="evenodd" d="M40.074 0.167971C40.1016 0.167972 40.1292 0.167973 40.157 0.167973C40.1847 0.167973 40.2124 0.167972 40.24 0.167971C41.3988 0.167926 42.3937 0.167887 43.2003 0.248222C44.0567 0.333521 44.8867 0.523398 45.6191 1.01992C45.9427 1.23925 46.2323 1.4951 46.4805 1.78094C47.0425 2.42802 47.2574 3.16144 47.354 3.91807C47.4449 4.63067 47.4449 5.50959 47.4448 6.53349V8.53312C47.4449 9.55697 47.4449 10.4359 47.354 11.1485C47.2574 11.9051 47.0425 12.6386 46.4805 13.2856C46.2323 13.5715 45.9427 13.8273 45.6191 14.0466C44.8867 14.5432 44.0567 14.733 43.2003 14.8183C42.3937 14.8987 41.3988 14.8986 40.24 14.8986H40.074C38.9151 14.8986 37.9202 14.8987 37.1137 14.8183C36.2573 14.733 35.4272 14.5432 34.6948 14.0466C34.3713 13.8273 34.0817 13.5715 33.8334 13.2856C33.2714 12.6386 33.0565 11.9051 32.96 11.1485C32.8691 10.4359 32.8691 9.5569 32.8691 8.53306V6.60679C32.8691 6.58227 32.8691 6.55782 32.8691 6.53349C32.8691 5.50959 32.8691 4.63067 32.96 3.91807C33.0565 3.16144 33.2714 2.42802 33.8334 1.78094C34.0817 1.4951 34.3713 1.23925 34.6948 1.01992C35.4272 0.523398 36.2573 0.333521 37.1137 0.248222C37.9202 0.167887 38.9151 0.167926 40.074 0.167971ZM37.2552 2.91803C36.67 2.97631 36.4616 3.07361 36.3468 3.15143C36.2342 3.22783 36.1333 3.31695 36.0468 3.41651C35.9587 3.51793 35.8486 3.70203 35.7826 4.21906C35.7132 4.76315 35.7109 5.48907 35.7109 6.60679V8.45975C35.7109 9.57751 35.7132 10.3034 35.7826 10.8475C35.8486 11.3645 35.9587 11.5486 36.0468 11.6501C36.1333 11.7496 36.2342 11.8387 36.3468 11.9151C36.4616 11.9929 36.67 12.0902 37.2552 12.1485C37.871 12.2099 38.8918 12.2119 40.157 12.2119C41.4222 12.2119 42.5223 12.2099 43.1382 12.1485C43.7234 12.0902 43.9317 11.9929 44.0465 11.9151C44.1592 11.8387 44.26 11.7496 44.3466 11.6501C44.4346 11.5486 44.5448 11.3645 44.6107 10.8475C44.6801 10.3034 44.6824 9.57751 44.6824 8.45975V6.60679C44.6824 5.48907 44.6801 4.76315 44.6107 4.21906C44.5448 3.70203 44.4346 3.51793 44.3466 3.41651C44.26 3.31695 44.1592 3.22783 44.0465 3.15143C43.9317 3.07361 43.7234 2.97631 43.1382 2.91803C42.5223 2.85668 41.4222 2.85469 40.157 2.85469C38.8918 2.85469 37.871 2.85668 37.2552 2.91803Z" fill="#232323"/>
<path fill-rule="evenodd" clip-rule="evenodd" d="M121.815 0.17383C121.843 0.173832 121.87 0.173833 121.897 0.173833C121.925 0.173833 121.953 0.173832 121.98 0.17383C123.139 0.173785 124.135 0.173747 124.941 0.254082C125.798 0.339381 126.627 0.529253 127.36 1.02577C127.684 1.24511 127.973 1.50096 128.221 1.7868C128.783 2.43388 128.998 3.1673 129.095 3.92393C129.186 4.63653 129.186 5.51544 129.186 6.53929V8.53898C129.186 9.56283 129.186 10.4417 129.095 11.1543C128.998 11.911 128.783 12.6444 128.221 13.2915C127.973 13.5773 127.684 13.8332 127.36 14.0525C126.627 14.549 125.798 14.7389 124.941 14.8242C124.135 14.9045 123.139 14.9045 121.98 14.9045H121.815C120.656 14.9045 119.661 14.9045 118.854 14.8242C117.998 14.7389 117.168 14.549 116.436 14.0525C116.112 13.8332 115.823 13.5773 115.574 13.2915C115.012 12.6444 114.797 11.911 114.701 11.1543C114.61 10.4417 114.61 9.56283 114.61 8.53898V6.61266C114.61 6.5882 114.61 6.56368 114.61 6.53935C114.61 5.51548 114.61 4.63654 114.701 3.92393C114.797 3.1673 115.012 2.43388 115.574 1.7868C115.823 1.50096 116.112 1.24511 116.436 1.02577C117.168 0.529253 117.998 0.339381 118.854 0.254082C119.661 0.173747 120.656 0.173785 121.815 0.17383ZM118.996 2.92389C118.411 2.98217 118.203 3.07947 118.088 3.15729C117.975 3.23369 117.874 3.3228 117.788 3.42236C117.699 3.52379 117.59 3.70789 117.523 4.22492C117.454 4.76901 117.452 5.49492 117.452 6.61266V8.46561C117.452 9.58337 117.454 10.3092 117.523 10.8534C117.59 11.3704 117.699 11.5545 117.788 11.6559C117.874 11.7555 117.975 11.8446 118.088 11.921C118.203 11.9988 118.411 12.0961 118.996 12.1544C119.611 12.2157 120.632 12.2177 121.897 12.2177C123.163 12.2177 124.263 12.2157 124.879 12.1544C125.464 12.0961 125.672 11.9988 125.787 11.921C125.9 11.8446 126.001 11.7555 126.087 11.6559C126.176 11.5545 126.286 11.3704 126.352 10.8534C126.421 10.3092 126.423 9.58337 126.423 8.46561V6.61266C126.423 5.49492 126.421 4.76901 126.352 4.22492C126.286 3.70789 126.176 3.52379 126.087 3.42236C126.001 3.3228 125.9 3.23369 125.787 3.15729C125.672 3.07947 125.464 2.98217 124.879 2.92389C124.263 2.86254 123.163 2.86055 121.897 2.86055C120.632 2.86055 119.611 2.86254 118.996 2.92389Z" fill="#232323"/>
<path fill-rule="evenodd" clip-rule="evenodd" d="M153.749 0.175783C153.777 0.175784 153.805 0.175785 153.833 0.175785C153.86 0.175785 153.887 0.175784 153.915 0.175783C155.074 0.175738 156.069 0.175699 156.876 0.256034C157.732 0.341334 158.562 0.531208 159.295 1.02773C159.618 1.24706 159.907 1.50291 160.156 1.78875C160.718 2.43584 160.933 3.16925 161.029 3.92588C161.12 4.63848 161.12 5.51738 161.12 6.54124V8.54093C161.12 9.56478 161.12 10.4437 161.029 11.1563C160.933 11.9129 160.718 12.6464 160.156 13.2935C159.907 13.5792 159.618 13.8352 159.295 14.0545C158.562 14.551 157.732 14.7408 156.876 14.8261C156.069 14.9065 155.074 14.9065 153.915 14.9064H153.75C152.591 14.9065 151.595 14.9065 150.789 14.8261C149.932 14.7408 149.103 14.551 148.37 14.0545C148.046 13.8352 147.757 13.5792 147.509 13.2935C146.947 12.6464 146.732 11.9129 146.635 11.1563C146.545 10.4437 146.545 9.56478 146.545 8.54093V6.61467C146.545 6.59015 146.545 6.56563 146.545 6.5413C146.545 5.51744 146.545 4.63849 146.635 3.92588C146.732 3.16925 146.947 2.43584 147.509 1.78875C147.757 1.50291 148.046 1.24706 148.37 1.02773C149.103 0.531208 149.932 0.341334 150.789 0.256034C151.595 0.175699 152.591 0.175738 153.749 0.175783ZM150.931 2.92583C150.346 2.98413 150.137 3.08142 150.022 3.15925C149.91 3.23564 149.808 3.32476 149.722 3.42432C149.634 3.52574 149.524 3.70984 149.458 4.22686C149.389 4.77097 149.386 5.49687 149.386 6.61467V8.46756C149.386 9.58533 149.389 10.3113 149.458 10.8553C149.524 11.3723 149.634 11.5565 149.722 11.6579C149.808 11.7575 149.91 11.8465 150.022 11.9229C150.137 12.0008 150.346 12.0981 150.931 12.1563C151.547 12.2177 152.567 12.2197 153.833 12.2197C155.098 12.2197 156.197 12.2177 156.813 12.1563C157.399 12.0981 157.607 12.0008 157.722 11.9229C157.835 11.8465 157.936 11.7575 158.022 11.6579C158.11 11.5565 158.22 11.3723 158.286 10.8553C158.356 10.3113 158.357 9.58533 158.357 8.46756V6.61467C158.357 5.49687 158.356 4.77097 158.286 4.22686C158.22 3.70984 158.11 3.52574 158.022 3.42432C157.936 3.32476 157.835 3.23564 157.722 3.15925C157.607 3.08142 157.399 2.98413 156.813 2.92583C156.197 2.8645 155.098 2.8625 153.833 2.8625C152.567 2.8625 151.547 2.8645 150.931 2.92583Z" fill="#232323"/>
<path fill-rule="evenodd" clip-rule="evenodd" d="M61.8645 12.1857L57.4605 3.06645L53.0735 12.1857H61.8645ZM64.8235 12.1857L59.414 1.0524C58.865 -0.011365 56.0435 -0.0205157 55.501 1.0511L50.0975 12.1857H49.8112C49.0239 12.1857 48.3857 12.758 48.3857 13.464C48.3857 14.1699 49.0239 14.7422 49.8112 14.7422H65.1105C65.8975 14.7422 66.536 14.1699 66.536 13.464C66.536 12.758 65.8975 12.1857 65.1105 12.1857H64.8235Z" fill="#232323"/>
<path fill-rule="evenodd" clip-rule="evenodd" d="M96.9828 2.61398L89.7424 7.4775L97.3861 12.2938C98.0378 12.7047 98.209 13.5303 97.7681 14.1379C97.3272 14.7455 96.4413 14.9049 95.7889 14.494L87.5968 9.33228C87.2387 9.10643 86.971 8.81321 86.7944 8.4868V13.4178C86.7944 14.1513 86.1563 14.7459 85.369 14.7459C84.5817 14.7459 83.9443 14.1513 83.9443 13.4178V1.51117C83.9443 0.777708 84.5817 0.183114 85.369 0.183114C86.1563 0.183114 86.7944 0.777708 86.7944 1.51117V6.46032C86.9744 6.12703 87.2497 5.82853 87.6187 5.6013L95.4103 0.397889C96.0675 -0.00643547 96.952 0.161883 97.3861 0.773841C97.8194 1.38579 97.6387 2.20965 96.9828 2.61398Z" fill="#232323"/>
<path fill-rule="evenodd" clip-rule="evenodd" d="M99.1191 1.51263C99.1191 0.779159 99.7572 0.18457 100.545 0.18457H112.341C113.128 0.18457 113.766 0.779159 113.766 1.51263C113.766 2.24609 113.128 2.84067 112.341 2.84067H100.545C99.7572 2.84067 99.1191 2.24609 99.1191 1.51263Z" fill="#232323"/>
<path fill-rule="evenodd" clip-rule="evenodd" d="M106.444 0.25293C107.23 0.25293 107.868 0.847519 107.868 1.58098V13.4876C107.868 14.2211 107.23 14.8157 106.444 14.8157C105.656 14.8157 105.018 14.2211 105.018 13.4876V1.58098C105.018 0.847519 105.656 0.25293 106.444 0.25293Z" fill="#232323"/>
</g>
</g>
<path d="M9 28L11.0206 34.2188H17.5595L12.2694 38.0623L14.2901 44.2812L9 40.4377L3.70993 44.2812L5.73056 38.0623L0.440492 34.2188H6.97937L9 28Z" fill="#EA9537"/>
<path d="M31 28L33.0206 34.2188H39.5595L34.2694 38.0623L36.2901 44.2812L31 40.4377L25.7099 44.2812L27.7306 38.0623L22.4405 34.2188H28.9794L31 28Z" fill="#EA9537"/>
<path d="M53 28L55.0206 34.2188H61.5595L56.2694 38.0623L58.2901 44.2812L53 40.4377L47.7099 44.2812L49.7306 38.0623L44.4405 34.2188H50.9794L53 28Z" fill="#EA9537"/>
<path d="M75 28L77.0206 34.2188H83.5595L78.2694 38.0623L80.2901 44.2812L75 40.4377L69.7099 44.2812L71.7306 38.0623L66.4405 34.2188H72.9794L75 28Z" fill="#EA9537"/>
<path d="M97 28L99.0206 34.2188H105.56L100.269 38.0623L102.29 44.2812L97 40.4377L91.7099 44.2812L93.7306 38.0623L88.4405 34.2188H94.9794L97 28Z" fill="#EA9537"/>
<path d="M118.128 43V32.792L115.96 34.096V32.776L118.128 31.48H119.32V43H118.128ZM124.362 43V32.792L122.194 34.096V32.776L124.362 31.48H125.554V43H124.362ZM129.205 43L133.445 32.624H128.109V31.48H134.701V32.624L130.469 43H129.205ZM140.38 43.24C139.671 43.24 139.031 43.0747 138.46 42.744C137.895 42.4133 137.447 41.9653 137.116 41.4C136.785 40.8293 136.62 40.1893 136.62 39.48V35C136.62 34.2907 136.785 33.6533 137.116 33.088C137.447 32.5173 137.895 32.0667 138.46 31.736C139.031 31.4053 139.671 31.24 140.38 31.24C141.089 31.24 141.727 31.4053 142.292 31.736C142.863 32.0667 143.313 32.5173 143.644 33.088C143.975 33.6533 144.14 34.2907 144.14 35V39.48C144.14 40.1893 143.975 40.8293 143.644 41.4C143.313 41.9653 142.863 42.4133 142.292 42.744C141.727 43.0747 141.089 43.24 140.38 43.24ZM140.38 42.104C140.855 42.104 141.287 41.9893 141.676 41.76C142.065 41.5253 142.375 41.2133 142.604 40.824C142.833 40.4347 142.948 40.0053 142.948 39.536V34.944C142.948 34.4693 142.833 34.0373 142.604 33.648C142.375 33.2587 142.065 32.9493 141.676 32.72C141.287 32.4853 140.855 32.368 140.38 32.368C139.905 32.368 139.473 32.4853 139.084 32.72C138.695 32.9493 138.385 33.2587 138.156 33.648C137.927 34.0373 137.812 34.4693 137.812 34.944V39.536C137.812 40.0053 137.927 40.4347 138.156 40.824C138.385 41.2133 138.695 41.5253 139.084 41.76C139.473 41.9893 139.905 42.104 140.38 42.104ZM153.197 43.24C152.338 43.24 151.605 43.0453 150.997 42.656C150.389 42.2667 149.922 41.728 149.597 41.04C149.271 40.352 149.109 39.5627 149.109 38.672C149.109 37.7653 149.274 36.9707 149.605 36.288C149.935 35.6053 150.405 35.0747 151.013 34.696C151.626 34.312 152.354 34.12 153.197 34.12C154.061 34.12 154.797 34.3147 155.405 34.704C156.018 35.088 156.485 35.624 156.805 36.312C157.13 36.9947 157.293 37.7813 157.293 38.672C157.293 39.5787 157.13 40.376 156.805 41.064C156.479 41.7467 156.01 42.28 155.397 42.664C154.783 43.048 154.05 43.24 153.197 43.24ZM153.197 42.112C154.157 42.112 154.871 41.7947 155.341 41.16C155.81 40.52 156.045 39.6907 156.045 38.672C156.045 37.6267 155.807 36.7947 155.333 36.176C154.863 35.5573 154.151 35.248 153.197 35.248C152.551 35.248 152.018 35.3947 151.597 35.688C151.181 35.976 150.869 36.3787 150.661 36.896C150.458 37.408 150.357 38 150.357 38.672C150.357 39.712 150.597 40.5467 151.077 41.176C151.557 41.8 152.263 42.112 153.197 42.112ZM161.183 43V35.448H158.119V34.36H165.423V35.448H162.359V43H161.183ZM170.06 43.24C169.191 43.24 168.431 43.0507 167.78 42.672C167.135 42.288 166.625 41.7573 166.252 41.08L167.196 40.48C167.511 41.0133 167.903 41.4187 168.372 41.696C168.841 41.9733 169.38 42.112 169.988 42.112C170.623 42.112 171.132 41.9653 171.516 41.672C171.9 41.3787 172.092 40.976 172.092 40.464C172.092 40.112 172.009 39.832 171.844 39.624C171.684 39.416 171.439 39.2667 171.108 39.176C170.783 39.0853 170.375 39.04 169.884 39.04H168.86V38.032H169.868C170.465 38.032 170.945 37.9253 171.308 37.712C171.676 37.4933 171.86 37.152 171.86 36.688C171.86 36.1973 171.676 35.8347 171.308 35.6C170.945 35.36 170.511 35.24 170.004 35.24C169.492 35.24 169.007 35.3467 168.548 35.56C168.095 35.768 167.713 36.0373 167.404 36.368L166.652 35.576C167.084 35.1013 167.588 34.7413 168.164 34.496C168.745 34.2453 169.388 34.12 170.092 34.12C170.647 34.12 171.148 34.2187 171.596 34.416C172.049 34.608 172.407 34.8907 172.668 35.264C172.935 35.6373 173.068 36.0853 173.068 36.608C173.068 37.0987 172.948 37.5227 172.708 37.88C172.473 38.2373 172.14 38.5333 171.708 38.768L171.644 38.328C172.017 38.3973 172.327 38.5467 172.572 38.776C172.817 39.0053 172.999 39.28 173.116 39.6C173.233 39.92 173.292 40.2453 173.292 40.576C173.292 41.1253 173.148 41.6 172.86 42C172.577 42.3947 172.191 42.7013 171.7 42.92C171.215 43.1333 170.668 43.24 170.06 43.24ZM175.066 43L175.05 34.36H176.234V37.616H177.738C177.988 37.616 178.234 37.6213 178.474 37.632C178.714 37.6427 178.93 37.664 179.122 37.696C179.548 37.7813 179.927 37.9253 180.258 38.128C180.588 38.3307 180.85 38.6107 181.042 38.968C181.234 39.32 181.33 39.7653 181.33 40.304C181.33 41.0453 181.138 41.6293 180.754 42.056C180.37 42.4827 179.887 42.76 179.306 42.888C179.087 42.936 178.85 42.968 178.594 42.984C178.338 42.9947 178.087 43 177.842 43H175.066ZM176.234 41.992H177.794C177.97 41.992 178.17 41.9867 178.394 41.976C178.618 41.9653 178.815 41.936 178.986 41.888C179.274 41.808 179.532 41.648 179.762 41.408C179.996 41.1627 180.114 40.7947 180.114 40.304C180.114 39.8187 180.002 39.4533 179.778 39.208C179.554 38.9573 179.255 38.792 178.882 38.712C178.711 38.6747 178.53 38.6507 178.338 38.64C178.151 38.6293 177.97 38.624 177.794 38.624H176.234V41.992ZM182.362 43V34.36H183.538V43H182.362ZM185.768 43V34.36H189.328C189.51 34.36 189.728 34.3707 189.984 34.392C190.246 34.4133 190.488 34.4533 190.712 34.512C191.198 34.64 191.587 34.9013 191.88 35.296C192.179 35.6907 192.328 36.1653 192.328 36.72C192.328 37.0293 192.28 37.3067 192.184 37.552C192.094 37.792 191.963 38 191.792 38.176C191.712 38.2667 191.624 38.3467 191.528 38.416C191.432 38.48 191.339 38.5333 191.248 38.576C191.419 38.608 191.603 38.6827 191.8 38.8C192.11 38.9813 192.344 39.2267 192.504 39.536C192.664 39.84 192.744 40.2107 192.744 40.648C192.744 41.24 192.603 41.7227 192.32 42.096C192.038 42.4693 191.659 42.7253 191.184 42.864C190.971 42.9227 190.739 42.96 190.488 42.976C190.243 42.992 190.011 43 189.792 43H185.768ZM186.952 42H189.736C189.848 42 189.99 41.992 190.16 41.976C190.331 41.9547 190.483 41.928 190.616 41.896C190.931 41.816 191.16 41.656 191.304 41.416C191.454 41.1707 191.528 40.904 191.528 40.616C191.528 40.2373 191.416 39.928 191.192 39.688C190.974 39.4427 190.68 39.2933 190.312 39.24C190.19 39.2133 190.062 39.1973 189.928 39.192C189.795 39.1867 189.675 39.184 189.568 39.184H186.952V42ZM186.952 38.176H189.368C189.507 38.176 189.662 38.168 189.832 38.152C190.008 38.1307 190.16 38.096 190.288 38.048C190.566 37.952 190.768 37.7867 190.896 37.552C191.03 37.3173 191.096 37.0613 191.096 36.784C191.096 36.48 191.024 36.2133 190.88 35.984C190.742 35.7547 190.531 35.5947 190.248 35.504C190.056 35.4347 189.848 35.3947 189.624 35.384C189.406 35.3733 189.267 35.368 189.208 35.368H186.952V38.176ZM197.947 43.24C197.088 43.24 196.355 43.0453 195.747 42.656C195.139 42.2667 194.672 41.728 194.347 41.04C194.021 40.352 193.859 39.5627 193.859 38.672C193.859 37.7653 194.024 36.9707 194.355 36.288C194.685 35.6053 195.155 35.0747 195.763 34.696C196.376 34.312 197.104 34.12 197.947 34.12C198.811 34.12 199.547 34.3147 200.155 34.704C200.768 35.088 201.235 35.624 201.555 36.312C201.88 36.9947 202.043 37.7813 202.043 38.672C202.043 39.5787 201.88 40.376 201.555 41.064C201.229 41.7467 200.76 42.28 200.147 42.664C199.533 43.048 198.8 43.24 197.947 43.24ZM197.947 42.112C198.907 42.112 199.621 41.7947 200.091 41.16C200.56 40.52 200.795 39.6907 200.795 38.672C200.795 37.6267 200.557 36.7947 200.083 36.176C199.613 35.5573 198.901 35.248 197.947 35.248C197.301 35.248 196.768 35.3947 196.347 35.688C195.931 35.976 195.619 36.3787 195.411 36.896C195.208 37.408 195.107 38 195.107 38.672C195.107 39.712 195.347 40.5467 195.827 41.176C196.307 41.8 197.013 42.112 197.947 42.112ZM203.8 43V34.36H207.36C207.541 34.36 207.76 34.3707 208.016 34.392C208.277 34.4133 208.52 34.4533 208.744 34.512C209.229 34.64 209.618 34.9013 209.912 35.296C210.21 35.6907 210.36 36.1653 210.36 36.72C210.36 37.0293 210.312 37.3067 210.216 37.552C210.125 37.792 209.994 38 209.824 38.176C209.744 38.2667 209.656 38.3467 209.56 38.416C209.464 38.48 209.37 38.5333 209.28 38.576C209.45 38.608 209.634 38.6827 209.832 38.8C210.141 38.9813 210.376 39.2267 210.536 39.536C210.696 39.84 210.776 40.2107 210.776 40.648C210.776 41.24 210.634 41.7227 210.352 42.096C210.069 42.4693 209.69 42.7253 209.216 42.864C209.002 42.9227 208.77 42.96 208.52 42.976C208.274 42.992 208.042 43 207.824 43H203.8ZM204.984 42H207.768C207.88 42 208.021 41.992 208.192 41.976C208.362 41.9547 208.514 41.928 208.648 41.896C208.962 41.816 209.192 41.656 209.336 41.416C209.485 41.1707 209.56 40.904 209.56 40.616C209.56 40.2373 209.448 39.928 209.224 39.688C209.005 39.4427 208.712 39.2933 208.344 39.24C208.221 39.2133 208.093 39.1973 207.96 39.192C207.826 39.1867 207.706 39.184 207.6 39.184H204.984V42ZM204.984 38.176H207.4C207.538 38.176 207.693 38.168 207.864 38.152C208.04 38.1307 208.192 38.096 208.32 38.048C208.597 37.952 208.8 37.7867 208.928 37.552C209.061 37.3173 209.128 37.0613 209.128 36.784C209.128 36.48 209.056 36.2133 208.912 35.984C208.773 35.7547 208.562 35.5947 208.28 35.504C208.088 35.4347 207.88 35.3947 207.656 35.384C207.437 35.3733 207.298 35.368 207.24 35.368H204.984V38.176Z" fill="#232323"/>
<defs>
<clipPath id="clip0_514_941">
<rect width="178" height="15" fill="white"/>
</clipPath>
</defs>
</svg>
