<svg width="170" height="50" fill="none" xmlns="http://www.w3.org/2000/svg"><g clip-path="url(#a)"><path d="M7.393 13.152h2.272V-.024h-3.31c-3.329 0-5.073 1.722-5.073 4.264 0 2.028.955 3.224 2.67 4.456L.979 13.153h2.463l3.31-4.989-1.145-.777C4.213 6.44 3.537 5.7 3.537 4.108c0-1.406.979-2.351 2.842-2.351h1.014v11.395Zm43.875.186c1.038 0 1.768-.185 2.314-.586v-1.837c-.564.395-1.24.64-2.178.64-1.602 0-2.26-1.25-2.26-3.217 0-2.07.813-3.129 2.278-3.129.866 0 1.709.3 2.16.586V3.881c-.47-.269-1.294-.454-2.403-.454-2.86 0-4.35 2.063-4.35 4.964 0 3.188 1.449 4.947 4.439 4.947Zm-13.99-.831v-1.843c-.694.479-1.863.892-2.955.892-1.638 0-2.255-.772-2.35-2.37h5.4v-1.19c0-3.32-1.448-4.57-3.69-4.57-2.724 0-4.023 2.1-4.023 4.983 0 3.32 1.62 4.929 4.48 4.929 1.423 0 2.48-.377 3.138-.831Zm7.149.646h2.533l-3.59-5.067 3.163-4.474h-2.26l-3.157 4.474V3.612h-2.242v9.54h2.242V8.541l3.311 4.611ZM29.114 11.37h-.997V3.612h-6.526v.82c0 2.326-.149 5.341-.938 6.938h-.7v3.96h2.07v-2.178h5.02v2.178h2.07v-3.96ZM16.779 3.612v3.774h-2.99V3.612h-2.243v9.54h2.243V9.17h2.99v3.983h2.237v-9.54h-2.237ZM33.647 5.21c1.11 0 1.447.927 1.447 2.124v.185h-3.12c.059-1.513.599-2.309 1.673-2.309ZM25.88 11.37h-3.162c.623-1.441.795-4.037.795-5.688v-.287h2.367v5.975Zm39.384 1.783h2.652l-4.646-6.92 4.213-6.257h-2.314L61.123 6.04V-.024H58.85v13.177h2.273V6.968l4.14 6.184Zm10.288-6.508c0-2.309-1.17-3.182-3.537-3.182-1.483 0-2.652.472-3.328.873v1.878c.6-.46 1.916-.95 3.067-.95 1.068 0 1.56.376 1.56 1.405v.526h-.361c-3.423 0-4.942 1.143-4.942 3.075 0 1.931 1.163 3.014 2.895 3.014 1.317 0 1.88-.437 2.314-.891h.095c.018.245.095.568.166.76h2.183a23.621 23.621 0 0 1-.112-2.333V6.645Zm-2.237 4.229c-.285.418-.813.76-1.602.76-.938 0-1.412-.533-1.412-1.347 0-1.082.771-1.477 2.694-1.477h.32v2.064Zm6.11-7.262h-2.07v12.286h2.237v-3.864c.57.85 1.394 1.304 2.355 1.304 2.178 0 3.685-1.759 3.685-4.965 0-3.188-1.466-4.946-3.572-4.946-1.056 0-1.922.49-2.521 1.417l-.113-1.232Zm1.959 7.944c-1.187 0-1.792-.963-1.792-3.165 0-2.219.64-3.182 1.904-3.182 1.223 0 1.822.963 1.822 3.164 0 2.22-.64 3.183-1.934 3.183ZM93.51 5.395V3.612h-7.505v1.783h2.634v7.758h2.237V5.394h2.634Zm1.317-1.783v9.54h3.406c2.201 0 3.761-1.136 3.761-3.379 0-2.123-1.394-3.242-3.726-3.242h-1.204V3.612h-2.237Zm7.992 0v9.54h2.242v-9.54h-2.242Zm-4.717 7.758h-1.038V8.314h1.091c.962 0 1.525.436 1.525 1.537 0 1.1-.623 1.52-1.578 1.52Z" fill="#232323"/></g><path d="m9 28.5 2.02 6.219h6.54l-5.29 3.843 2.02 6.22L9 40.937 3.71 44.78l2.02-6.219L.44 34.72h6.54L9 28.5ZM31 28.5l2.02 6.219h6.54l-5.29 3.843 2.02 6.22L31 40.937l-5.29 3.843 2.02-6.219-5.29-3.843h6.54L31 28.5ZM53 28.5l2.02 6.219h6.54l-5.29 3.843 2.02 6.22L53 40.937l-5.29 3.843 2.02-6.219-5.29-3.843h6.54L53 28.5ZM75 28.5l2.02 6.219h6.54l-5.29 3.843 2.02 6.22L75 40.937l-5.29 3.843 2.02-6.219-5.29-3.843h6.54L75 28.5Z" fill="#EA9537"/><mask id="b" style="mask-type:alpha" maskUnits="userSpaceOnUse" x="88" y="26" width="9" height="20"><path fill="#D9D9D9" d="M88 26.5h9v19h-9z"/></mask><g mask="url(#b)"><path d="m97 28 2.02 6.219h6.54l-5.291 3.843 2.021 6.22L97 40.437l-5.29 3.843 2.02-6.219-5.29-3.843h6.54L97 28Z" fill="#EA9537"/></g><path opacity=".5" d="m97 28 2.02 6.219h6.54l-5.291 3.843 2.021 6.22L97 40.437l-5.29 3.843 2.02-6.219-5.29-3.843h6.54L97 28Z" fill="#EA9537"/><path d="M121.192 44v-2.232H115.8v-1.12l3.856-8.168h1.32l-3.856 8.168h4.072v-3.36h1.184v3.36h1.256v1.12h-1.256V44h-1.184Zm4.277 0v-1.368h1.368V44h-1.368Zm6.935.232a4.009 4.009 0 0 1-1.576-.304 3.556 3.556 0 0 1-1.24-.864c-.347-.379-.6-.83-.76-1.352l1.12-.336c.192.57.506 1.003.944 1.296.442.293.941.435 1.496.424.512-.01.952-.125 1.32-.344a2.18 2.18 0 0 0 .856-.912c.197-.39.296-.84.296-1.352 0-.784-.23-1.413-.688-1.888-.454-.48-1.054-.72-1.8-.72-.208 0-.427.03-.656.088a2.75 2.75 0 0 0-.64.232l-.592-.936 4.48-4.136.192.48h-5.872V32.48h6.656v1.144l-3.904 3.728-.016-.464c.8-.101 1.504-.01 2.112.272a3.165 3.165 0 0 1 1.424 1.296c.346.576.52 1.253.52 2.032 0 .736-.16 1.387-.48 1.952-.315.56-.75 1-1.304 1.32-.555.315-1.184.472-1.888.472Zm15.814-8.872V44h-1.144v-6.728L142.338 44h-.992v-8.64h1.144v6.672l4.744-6.672h.984Zm5.358 8.88c-.87 0-1.63-.19-2.28-.568a4.132 4.132 0 0 1-1.528-1.592l.944-.6c.314.533.706.939 1.176 1.216.469.277 1.008.416 1.616.416.634 0 1.144-.147 1.528-.44.384-.293.576-.696.576-1.208 0-.352-.083-.632-.248-.84-.16-.208-.406-.357-.736-.448-.326-.09-.734-.136-1.224-.136h-1.024v-1.008h1.008c.597 0 1.077-.107 1.44-.32.368-.219.552-.56.552-1.024 0-.49-.184-.853-.552-1.088-.363-.24-.798-.36-1.304-.36a3.41 3.41 0 0 0-1.456.32 3.588 3.588 0 0 0-1.144.808l-.752-.792a4.307 4.307 0 0 1 1.512-1.08 4.818 4.818 0 0 1 1.928-.376c.554 0 1.056.099 1.504.296.453.192.81.475 1.072.848.266.373.4.821.4 1.344 0 .49-.12.915-.36 1.272-.235.357-.568.653-1 .888l-.064-.44c.373.07.682.219.928.448.245.23.426.504.544.824.117.32.176.645.176.976 0 .55-.144 1.024-.432 1.424a2.79 2.79 0 0 1-1.16.92 4.038 4.038 0 0 1-1.64.32Zm11.6 0a3.752 3.752 0 0 1-1.656-.368 3.839 3.839 0 0 1-1.296-1.016 3.968 3.968 0 0 1-.768-1.488l1.128-.304c.102.416.286.776.552 1.08.267.299.579.53.936.696.363.165.742.248 1.136.248.512 0 .971-.123 1.376-.368.411-.25.736-.581.976-.992.24-.41.36-.861.36-1.352 0-.507-.125-.963-.376-1.368a2.796 2.796 0 0 0-.992-.976c-.41-.24-.858-.36-1.344-.36-.544 0-1.013.12-1.408.36a2.86 2.86 0 0 0-.944.888l-1.072-.448.352-5.992h6.152v1.128h-5.632l.584-.552-.312 5.112-.296-.392a3.495 3.495 0 0 1 1.2-.888 3.54 3.54 0 0 1 1.48-.32c.71 0 1.35.17 1.92.512a3.756 3.756 0 0 1 1.36 1.368c.336.576.504 1.219.504 1.928 0 .704-.178 1.35-.536 1.936a4.11 4.11 0 0 1-1.424 1.4 3.763 3.763 0 0 1-1.96.528Z" fill="#232323"/><defs><clipPath id="a"><path fill="#fff" d="M0 0h106v16H0z"/></clipPath></defs></svg>