<svg xmlns="http://www.w3.org/2000/svg" width="1985" height="1160" fill="none"><path stroke="#2468C5" stroke-width="3" d="M1527.7 490.338a322.475 322.475 0 0 1 161.12-27.635 322.53 322.53 0 0 1 153.98 54.922 322.521 322.521 0 0 1 107.26 123.369 322.65 322.65 0 0 1 32.99 160.115"/><circle cx="1412" cy="441" r="441" fill="url(#a)"/><circle cx="1006" cy="719" r="441" fill="url(#b)"/><mask id="c" width="826" height="229" x="0" y="637" maskUnits="userSpaceOnUse" style="mask-type:alpha"><path fill="#D9D9D9" d="M0 637h826v229H0z"/></mask><g mask="url(#c)"><path stroke="#2468C5" stroke-width="3" d="M-96.948 733.072c102.226-39.714 212.506-63.784 322.495-70.389 109.991-6.605 216.787 4.428 312.311 32.245 95.525 27.818 177.246 71.681 239.021 128.229 61.768 56.54 101.988 124.288 117.674 198.123"/></g><defs><radialGradient id="a" cx="0" cy="0" r="1" gradientTransform="matrix(0 441 -441 0 1412 441)" gradientUnits="userSpaceOnUse"><stop stop-color="#2468C5"/><stop offset=".818" stop-color="#fff" stop-opacity="0"/></radialGradient><radialGradient id="b" cx="0" cy="0" r="1" gradientTransform="matrix(0 441 -441 0 1006 719)" gradientUnits="userSpaceOnUse"><stop stop-color="#1290D7"/><stop offset=".818" stop-color="#fff" stop-opacity="0"/></radialGradient></defs></svg>