<svg xmlns="http://www.w3.org/2000/svg" width="81" height="110"><path fill="#2468b7" d="M-1-1h83v112H-1z"/><path fill="#fff" d="M22.313 110c-1.68 0-3.056-.608-4.432-1.975-7.489-7.293-9.323-33.274-8.864-43.909.306-7.293-1.681-11.85-3.82-17.32-1.53-3.647-3.057-7.293-4.127-12.307-2.598-12.155.305-20.055 3.21-24.613 3.667-5.622 8.71-8.509 12.378-9.42C22.466-.912 27.051.912 31.33 2.735c3.362 1.367 7.03 2.887 11.31 2.735 3.21 0 6.571-1.216 9.78-2.431 4.891-1.672 9.935-3.495 14.672-1.672C73.052 3.494 79.93 10.332 81 17.624c.917 6.99-.611 13.978-2.445 20.511-.612 2.127-1.376 4.255-1.987 6.382-1.528 4.406-3.057 8.812-3.362 13.37-.153 3.342 0 6.685.152 10.027.153 3.95.459 8.053 0 12.155-1.834 15.801-4.584 25.221-8.405 28.108-.917.759-1.987 1.063-3.057.911-6.724 0-7.794-8.508-8.253-12.61-1.222-10.18-2.903-20.967-6.419-24.158-2.14-2.127-5.043-2.886-7.183-1.975-8.252 3.495-9.934 18.536-10.545 25.829-.153 1.52-.305 2.735-.458 3.495-.917 5.013-2.293 10.179-6.266 10.483-.306-.152-.306-.152-.459-.152zM20.633 1.52c-1.224 0-2.446.151-3.669.455C9.017 3.798-1.834 14.13 2.445 34.337c1.07 4.71 2.446 8.508 3.974 12.003 2.14 5.318 4.28 10.331 3.973 17.928-.305 11.547 1.682 36.008 8.559 42.693 1.07 1.064 2.292 1.672 3.668 1.52 2.904-.152 4.126-5.014 4.89-9.116.153-.76.306-1.975.459-3.495.764-8.052 2.445-23.246 11.462-27.044 2.751-1.216 6.266-.304 8.711 2.279 3.057 2.887 4.891 10.18 6.725 25.069.764 5.774 1.987 11.243 6.877 11.243h.153c.764.152 1.376-.152 1.987-.608 3.362-2.582 6.113-12.154 7.794-27.044.459-3.95.306-7.9 0-11.85-.153-3.343-.305-6.838-.153-10.18.306-4.71 1.835-9.268 3.363-13.826.764-1.975 1.375-4.102 1.987-6.23 1.68-6.38 3.209-13.218 2.445-19.903-.917-6.685-7.336-12.914-12.838-15.041-4.28-1.52-8.711 0-13.602 1.671-3.362 1.216-6.877 2.431-10.24 2.431-4.584.152-8.252-1.367-11.767-2.887-3.515-1.215-6.572-2.43-10.24-2.43z"/></svg>