<svg width="81" height="110" xmlns="http://www.w3.org/2000/svg">

 <g>
  <title>background</title>
  <rect fill="#2468b7" id="canvas_background" height="112" width="83" y="-1" x="-1"/>
 </g>
 <g>
  <title>Layer 1</title>
  <path id="svg_1" fill="white" d="m22.3132,110c-1.6811,0 -3.0566,-0.608 -4.4321,-1.975c-7.4886,-7.293 -9.32261,-33.2736 -8.86412,-43.909c0.30566,-7.2928 -1.68113,-11.8508 -3.82075,-17.3204c-1.5283,-3.6464 -3.05661,-7.2928 -4.12642,-12.3066c-2.59811,-12.1547 0.30566,-20.0553 3.20944,-24.61331c3.66792,-5.62155 8.71135,-8.50829 12.37925,-9.41989c5.8075,-1.3674 10.3924,0.4558 14.6717,2.27901c3.3623,1.3674 7.0302,2.88674 11.3094,2.7348c3.2095,0 6.5717,-1.21546 9.7812,-2.43093c4.8905,-1.67128 9.9339,-3.49448 14.6717,-1.67128c5.9603,2.12708 12.8377,8.9641 13.9075,16.2569c0.917,6.989 -0.6113,13.9779 -2.4453,20.5111c-0.6113,2.127 -1.3755,4.2541 -1.9868,6.3812c-1.5283,4.4061 -3.0566,8.8121 -3.3622,13.3701c-0.1529,3.3426 0,6.6851 0.1528,10.0277c0.1528,3.9502 0.4585,8.0525 0,12.1547c-1.834,15.8011 -4.5849,25.2209 -8.4057,28.1079c-0.917,0.759 -1.9868,1.063 -3.0566,0.911c-6.7245,0 -7.7943,-8.508 -8.2528,-12.6101c-1.2226,-10.1796 -2.9038,-20.9669 -6.4189,-24.1575c-2.1396,-2.127 -5.0434,-2.8867 -7.183,-1.9751c-8.2528,3.4945 -9.934,18.5359 -10.5453,25.8287c-0.1528,1.5194 -0.3056,2.7348 -0.4585,3.4945c-0.9169,5.0135 -2.2924,10.1795 -6.266,10.4835c-0.3057,-0.152 -0.3057,-0.152 -0.4585,-0.152zm-1.6811,-108.48066c-1.2227,0 -2.4453,0.15193 -3.6679,0.4558c-7.94722,1.8232 -18.79816,12.15466 -14.51892,32.36186c1.06982,4.71 2.44529,8.5083 3.97359,12.0028c2.13962,5.3177 4.27923,10.3315 3.97363,17.9282c-0.3057,11.5469 1.6811,36.008 8.5584,42.693c1.0699,1.064 2.2925,1.672 3.668,1.52c2.9037,-0.152 4.1264,-5.014 4.8905,-9.1164c0.1529,-0.7596 0.3057,-1.9751 0.4585,-3.4944c0.7642,-8.0525 2.4453,-23.2459 11.4623,-27.0442c2.7509,-1.2155 6.266,-0.3039 8.7113,2.279c3.0566,2.8867 4.8906,10.1795 6.7245,25.069c0.7642,5.774 1.9868,11.243 6.8774,11.243c0,0 0,0 0.1528,0c0.7642,0.152 1.3755,-0.152 1.9868,-0.608c3.3623,-2.582 6.1132,-12.1543 7.7944,-27.0438c0.4585,-3.9503 0.3056,-7.9006 0,-11.8508c-0.1529,-3.3426 -0.3057,-6.837 -0.1529,-10.1796c0.3057,-4.7099 1.834,-9.2679 3.3623,-13.826c0.7641,-1.9751 1.3755,-4.1022 1.9868,-6.2292c1.6811,-6.3813 3.2094,-13.2183 2.4453,-19.9034c-0.917,-6.685 -7.3359,-12.91432 -12.8378,-15.04139c-4.2792,-1.51934 -8.7113,0 -13.6019,1.67127c-3.3622,1.21547 -6.8773,2.43094 -10.2396,2.43094c-4.5849,0.15193 -8.2528,-1.36741 -11.7679,-2.88674c-3.5151,-1.21547 -6.5717,-2.43094 -10.2396,-2.43094z"/>
 </g>
</svg>