<svg xmlns="http://www.w3.org/2000/svg" width="252" height="75" fill="none"><g fill="#4E73BD" clip-path="url(#a)"><path d="M69.812 14.687c-.055 4.524-1.054 9.27-2.386 13.961-.888 3.184-1.776 6.311-3.385 9.215-1 1.787-2.054 3.518-3.496 4.97-.888.838-1.887 1.396-3.164 1.285-1.276-.056-2.22-.67-2.663-1.9-.722-1.73-.777-3.573-1-5.36-.11-.838-.221-1.62-.499-2.402-.277-.781-.721-1.396-1.609-1.452-.888-.055-1.387.559-1.776 1.285-.5.95-.61 2.01-.721 3.015-.111 1.062-.222 2.178-.333 3.295-.278 2.849-1.776 3.854-4.495 2.96-2.331-.726-3.885-2.457-5.217-4.467-2.774-4.245-4.162-9.047-5.16-13.962-.556-2.736-.944-5.528-.944-8.32 0-3.184 0-6.423 1.11-9.494 1.054-2.848 2.719-5.194 5.55-6.534 2.163-1.061 4.439-.95 6.77-.503 1.664.335 3.33.894 4.939 1.452.444.168.832.112 1.276-.056C54.662.838 56.827.223 59.102.168c4.44-.056 7.769 2.177 9.434 6.31.943 2.569 1.276 5.194 1.276 8.21ZM43.397 1.452c-.555 0-1.11 0-1.665.112-2.608.67-4.44 2.345-5.716 4.69-1.22 2.346-1.554 4.97-1.665 7.596-.222 5.863.833 11.504 2.553 17.088.943 3.016 2.164 5.976 4.051 8.545.777 1.06 1.665 2.066 2.886 2.624 2.441 1.117 3.052.447 3.551-1.731.333-1.62.278-3.239.555-4.858.167-.894.389-1.732.944-2.402.721-.893 1.665-1.564 2.886-1.34 1.276.167 1.997 1.005 2.386 2.178.444 1.173.555 2.401.666 3.63.166 1.452.166 2.96.777 4.356.499 1.228 1.498 1.62 2.719 1.117a4.435 4.435 0 0 0 1.498-1.006c1.498-1.396 2.553-3.127 3.44-4.914 3.608-7.483 5.606-15.357 5.328-23.734-.055-2.01-.388-3.965-1.054-5.864-1.388-3.797-4.107-6.143-8.49-5.864-1.721.112-3.386.447-4.94 1.173-1.665.782-3.163.559-4.772-.056-.111-.056-.167-.056-.278-.111-1.831-.726-3.662-1.229-5.66-1.229ZM65.206 56.18c-.277-.056-.444-.056-.555-.111-.555-.112-.666-.447-.333-.894.167-.223.389-.447.61-.614 1.166-.894 2.498-1.564 3.996-1.787.5-.056 1.11-.168 1.388.446.166.28-.666.95-1.221 1.062-.278.055-.444 0-.388-.336.055-.446-.278-.502-.556-.446-.943.223-1.83.558-2.552 1.396.277.279.61.111.888.167.277 0 .555.056.666.335.11.335-.167.503-.444.67-.389.224-.777.391-1.166.615-.333.223-.61.502-.5.95.112.446.5.446.833.558a3.594 3.594 0 0 0 1.887-.168c1.61-.447 3.108-1.061 4.495-1.955.5-.335.888-.781 1.165-1.284.167-.223.278-.447.389-.67.222-.503.61-.838 1.11-.614.5.223-.111.614 0 1.005.5-.056.888-.335 1.332-.503.666-.279 1.332-.447 2.053-.39.943.111 1.332.781.777 1.507-1.165 1.452-2.664 2.457-4.44 3.016-.277.111-.61.056-.943-.056-.278-.168-.555-.335-.555-.726 0-.335.278-.447.555-.614.333-.168.555 0 .721.279.222.335.555.39.888.335.944-.223 1.72-.726 2.331-1.508.222-.28.388-.67.222-1.005-.222-.391-.61-.335-.999-.28-1.942.168-3.274 1.453-4.495 2.849-1.665 1.843-2.886 4.02-4.328 6.031-2.11 2.96-4.107 5.975-6.77 8.489-.722.67-1.444 1.284-2.443 1.563-1.498.391-2.164-.167-2.053-1.731.111-1.34.777-2.457 1.554-3.518 2.109-2.904 4.55-5.529 7.492-7.651a39.574 39.574 0 0 0 2.386-1.899c-.999.28-1.998.614-3.052.614-.61 0-1.11-.167-1.332-.781-.111-.335-.333-.335-.61-.28-.722.224-1.443.335-2.22.168-.278-.056-.5.112-.722.28-.388.278-.832.558-1.387.67-.555.055-1.11-.056-1.387-.615-.222-.503-.5-.39-.833-.223-.832.39-1.665.726-2.608.893-1.054.168-1.387-.167-1.11-1.172.166-.503.389-.95.61-1.564-.61.167-.943.447-1.331.726-.888.67-1.776 1.452-2.83 1.898-.334.168-.722.336-1.055 0-.333-.335-.055-.67.056-1.005.166-.39.388-.837.499-1.284-.944.67-1.942 1.34-2.886 2.066-.333.28-.721.447-1.165.614-.61.224-1.11.056-1.332-.614-.166-.503-.444-.447-.832-.335-1.166.447-2.331 1.005-3.552 1.284a3.325 3.325 0 0 1-1.276.056c-.888-.167-1.221-.782-.888-1.62.222-.613.777-.893 1.165-1.395-.056-.224-.222-.112-.388-.168-.61-.111-.777-.502-.444-1.06.11-.168.222-.336.388-.448 1.387-1.005 2.941-1.563 4.606-1.787.333-.055.777-.111.888.28.111.446-.166.781-.555.893-.333.112-.943.95-.999-.28 0-.167-.222-.167-.388-.11-.944.167-1.832.446-2.553 1.06-.111.112-.277.224-.222.447.056.167.278.167.444.167.166 0 .388-.055.555-.055.222 0 .5-.112.61.167.111.335-.11.559-.388.67-.333.112-.61.28-.944.447-.61.28-.72.838-.554 1.396.166.614.721.503 1.165.391 1.498-.223 2.886-.726 4.273-1.284.444-.168.721-.224.888.335.055.335.388.447.666.39.444 0 .832-.167 1.22-.446 1.277-.95 2.553-1.843 3.83-2.792.222-.168.444-.391.721-.168.278.224.056.503-.055.726-.333.614-.777 1.229-1.11 1.899-.111.167-.278.335-.111.502.166.168.388 0 .555-.055a18.927 18.927 0 0 0 3.773-2.793c.278-.279.555-.837 1-.502.443.279.055.782-.112 1.117-.222.614-.555 1.228-.832 1.843-.277.558 0 .725.5.67 1.387-.168 2.441-.838 3.273-1.955.555-.726 1.11-1.508 1.665-2.234.444-.614 1-1.172 1.72-1.563.278-.168.611-.391.833-.056.278.335-.055.558-.277.782-.722.726-1.499 1.396-2.22 2.066a4.542 4.542 0 0 0-1.221 2.122c-.111.335-.111.726.333.782.5.056.999 0 1.276-.447.111-.167-.11-.28-.166-.447-.5-.949-.111-2.122.832-2.569.389-.223.833-.223 1.221.056.333.28.389.726.222 1.117-.11.335-.333.67-.444 1.005-.11.168-.388.335-.222.559.167.223.444.167.666.167 1.332-.167 2.22-.781 3.163-1.73Zm6.604.838c-3.718 2.178-7.103 4.747-9.989 8.042-1.332 1.563-2.664 3.183-3.33 5.137-.166.503-.277.95-.166 1.508.111.614.444.838 1.054.559.722-.28 1.277-.782 1.832-1.285 4.217-4.076 7.159-9.214 10.6-13.961ZM13.596 49.032c-.277.67.111.838.61.95.61.167 1.166.446 1.554.893.333.39.722.39 1.166.28 2.441-.56 4.606-1.788 6.604-3.296 1.886-1.396 3.829-2.736 5.882-3.853.166-.056.277-.168.444-.223.166-.056.333-.112.444.111.055.168-.111.28-.222.335-1.942.67-2.997 2.402-4.162 3.91-1.887 2.345-3.44 4.858-5.328 7.203-1.387 1.676-2.94 3.072-4.883 4.077-.056.056-.167.112-.278.224 1 .502 1.998.726 2.997 1.005.61.167 1.22.279 1.831.447.222.055.61 0 .5.446-.111.335-.444.224-.666.168-.722-.168-1.387-.335-2.109-.503-.111 0-.166-.056-.277-.056-1.998-.781-3.94-1.228-6.105-.614-.999.28-2.053.112-3.107-.056-1.943-.39-3.33-1.508-3.996-3.406-.278-.726-.222-1.452 0-2.178.11-.447 0-.726-.278-1.061C1.776 50.819.5 47.357.222 43.447c-.167-2.792.166-5.416 1.332-7.985.666-1.452 1.554-2.68 2.885-3.63 2.553-1.843 5.772-.894 7.437 1.06.943 1.118.444 2.905-.833 3.519-.166.056-.333.168-.444.056-.166-.112-.11-.335-.055-.503.166-.614.333-1.284.277-1.954-.055-1.564-.943-2.513-2.497-2.68-2.164-.28-3.83.67-5.05 2.345C1.72 35.74.888 37.863.832 40.265c-.11 2.96 0 5.863 1.166 8.6.666 1.507 1.553 2.848 2.552 4.188.222.335.389.335.666 0 1.943-2.346 4.44-3.518 7.548-3.24.444-.055.444-.502.832-.781Zm-8.602 6.031c-.388 1.229-.166 2.513.555 3.407.222.28.444.447.777.447 2.442.111 4.884 0 6.993-1.397 1.553-1.005 2.83-2.345 2.83-4.411 0-.95-.111-1.061-1.055-1.173-.943-.112-1.775-.391-1.997-1.508-.111-.39-.389-.502-.722-.502-2.775-.224-5.272 1.172-6.881 3.406-.222.28-.222.559.055.838 1.388 1.508 2.942 2.792 4.828 3.63.167.111.61.056.444.39-.11.28-.444.224-.721.168-.666-.223-1.277-.558-1.887-.893-1.11-.559-2.164-1.452-3.219-2.402Zm21.699-9.102a107.764 107.764 0 0 0-3.108 2.233c-2.053 1.508-4.162 3.072-6.715 3.63-.388.112-.388.335-.333.67.278 1.397-.11 2.625-.999 3.686-1.498 1.787-3.496 2.625-5.716 3.072-1.054.223-2.108.111-3.33.167.278.168.39.28.5.335.222.112.5.224.722.28 2.164.614 4.328.446 6.381-.447 2.054-.894 3.663-2.346 5.161-3.965 1.11-1.229 1.943-2.68 2.942-3.965 1.553-1.955 2.94-3.91 4.495-5.696ZM21.865 62.826a81.659 81.659 0 0 0 2.275-1.843c1.387-1.117 2.941-2.01 4.495-2.96 1.11-.67 2.109-1.452 2.608-2.736.111-.335.888-.503 1.11-.28.278.28-.166.447-.166.782a7.344 7.344 0 0 1 3.052-.67c.5 0 .943.056 1.165.559.222.502 0 .893-.333 1.284-1.165 1.229-2.497 2.122-4.162 2.513-.444.112-.943.112-1.331-.223-.278-.224-.334-.559-.056-.838.222-.223.61-.447.832-.112.389.503.833.391 1.332.335.833-.111 1.554-.558 2.109-1.228.277-.335.444-.782.222-1.229-.222-.447-.666-.279-1.054-.223-1.221.223-2.165.95-3.053 1.731-1.83 1.675-3.274 3.686-4.661 5.752-1.998 2.96-3.885 5.92-6.326 8.544-.944 1.006-1.887 1.955-3.053 2.68-.555.336-1.11.504-1.72.448-.888-.112-1.22-.559-1.11-1.452.167-1.452.777-2.68 1.499-3.91 1.331-2.177 3.107-3.964 4.827-5.807.444-.447.833-.894.666-1.62-.055-.28.056-.558.444-.502.278.055.5.167.444.558-.055.056-.222.223-.055.447Zm7.048-4.133c0-.056-.056-.056-.056-.111l-.333.167c-2.608 1.787-5.16 3.63-7.547 5.696-1.998 1.787-3.774 3.854-5.05 6.255-.277.614-.5 1.228-.5 1.899 0 1.005.61 1.396 1.499.893.555-.279.999-.67 1.443-1.117 2.719-2.569 4.939-5.584 7.103-8.656 1.054-1.675 2.275-3.35 3.44-5.026Z"/><path d="M84.684 55.063c.056-.447.666-.782.278-1.172-.333-.335-.833 0-1.221.111-1.055.335-1.942.894-2.664 1.731-.166.224-.333.447-.444.67-.166.336-.333.67 0 1.006.278.335.666.223 1 .056.665-.28 1.331-.615 1.942-.95.277-.111.499-.335.832-.167.333.167.11.502.055.726-.11.447.222.447.444.447.61 0 1.221-.168 1.776-.447 1.165-.559 2.275-1.229 2.941-2.402.722-1.172.555-2.01-.555-2.792s-2.33-1.117-3.662-1.396c-.167-.056-.333-.056-.5-.112-.222-.056-.61.056-.61-.279s.388-.39.666-.447c1.998-.167 3.829.28 5.16 1.843.833.95.889 2.122.223 3.24-.444.725-1.11 1.284-1.776 1.786-2.553 1.899-5.55 2.96-8.602 3.798-2.22.614-4.384 1.117-6.659 1.396-.278.056-.5.056-.832-.112 1.22-.28 2.497-.502 3.718-.782 1.276-.335 2.608-.67 3.829-1.005 1.276-.39 2.497-.838 3.662-1.396 0-.223-.166-.168-.222-.28-.277-.949-.776-.39-1.22-.167-.61.28-1.221.559-1.943.614-.888.056-1.22-.446-.999-1.284.111-.39.333-.726.555-1.005 1-1.396 2.331-2.401 3.94-3.016a1.53 1.53 0 0 1 .722-.167c.777-.168 1.387.111 1.498.67.111.67-.555 1.228-1.332 1.284ZM61.654 63.44c-.943.391-1.886.559-2.885.67-5.383.559-10.766.447-16.15.224-2.774-.112-5.604-.28-8.379-.503-1.387-.112-2.775-.28-4.162-.447-.222 0-.5-.056-.444-.335.056-.28.333-.28.555-.223 4.051.167 8.047.39 12.098.558 3.94.224 7.935.503 11.876.391 2.386-.056 4.717-.28 7.103-.502.055.055.222-.056.388.167ZM40.455 46.24c-1.442.558-2.719.502-4.05 0-1.055-.447-1.943-1.173-2.942-1.731-1.498-.838-2.886-1.9-4.661-2.123-3.164-.446-6.16.056-9.046 1.397-1.554.726-3.052 1.451-4.218 2.792-.555.67-1.22 1.34-.832 2.345.222.615 1.61 1.117 2.608.95 1.554-.224 2.997-.782 4.329-1.564.721-.447 1.443-.893 2.22-1.452 0 .391-.278.503-.444.67-2.165 1.787-4.606 2.792-7.437 2.625-.333 0-.666-.056-.998-.168-.888-.279-1.221-.893-1-1.843.278-1.172 1-2.066 1.887-2.792 3.053-2.401 6.493-3.63 10.322-3.853 2.72-.112 5.217.726 7.381 2.513 1.887 1.564 3.996 2.345 6.437 2.122.167 0 .222.056.444.112Z"/><path d="M25.916 57.353c-.055.502-.388.67-.666.893-.61.559-1.22 1.117-1.942 1.508-.333.168-.666.391-.999.112-.333-.28-.277-.67-.166-1.005.221-1.285.943-2.346 1.609-3.407 1.831-2.848 3.829-5.584 6.16-7.986.333-.335.721-.67 1.11-.893.222-.112.5-.28.666-.056.222.28-.167.39-.278.558-3.108 3.463-5.938 7.093-8.268 11.114-.223.39-.444.837-.444 1.452 1.276-.447 2.053-1.564 3.218-2.29ZM41.399 32.781c-.722-.502-1.11-1.173-1.443-1.954-.999-2.234-1.443-4.636-1.72-7.093-.333-2.96-.5-5.92-.167-8.88.333-3.182 1.166-6.198 3.108-8.767 1.498-1.954 5.16-2.234 6.826-.502.166.167.388.279.277.558-.11.223-.333.168-.5.168-3.273-.224-4.994 1.73-6.27 4.411-1.166 2.513-1.776 5.138-2.053 7.874-.333 3.016-.333 6.032.11 9.047.222 1.564.777 3.016 1.443 4.412.167.224.278.447.389.726ZM110.737 24.607a2.836 2.836 0 0 1-1.166-.837c-.333-.335-.555-.782-.721-1.285a5.28 5.28 0 0 1-.278-1.675c0-.614.111-1.173.278-1.675.166-.503.388-.95.721-1.285a4.448 4.448 0 0 1 1.166-.838c.444-.223.943-.279 1.498-.279.388 0 .777.056 1.11.168.333.111.666.223.943.447.278.167.5.39.722.67.222.279.333.558.444.893l-1.055.335c-.166-.447-.444-.837-.832-1.06-.389-.28-.833-.392-1.332-.392-.389 0-.777.056-1.054.224a2.12 2.12 0 0 0-.777.614c-.222.28-.389.614-.5.95-.111.39-.166.781-.166 1.284 0 .447.055.893.166 1.284.111.391.278.726.5.95.222.279.499.502.777.614.332.168.665.223 1.109.223.555 0 .999-.111 1.332-.39.389-.224.666-.615.833-1.062l1.054.335c-.166.335-.333.67-.555.894-.222.223-.444.503-.721.67-.278.168-.555.335-.888.391-.333.056-.666.112-1.055.112-.555 0-1.054-.056-1.553-.28ZM121.835 23.49c.388-.279.666-.614.943-1.116l.999.39c-.166.336-.333.67-.555.894-.222.28-.499.503-.777.67-.277.168-.61.335-.943.391-.333.056-.721.168-1.11.168a4.21 4.21 0 0 1-1.498-.28 2.836 2.836 0 0 1-1.166-.837 3.65 3.65 0 0 1-.721-1.285 5.28 5.28 0 0 1-.278-1.675c0-.614.111-1.173.278-1.675.166-.503.444-.95.721-1.285.278-.335.722-.614 1.166-.838.444-.167.943-.279 1.498-.279s1.11.112 1.554.28c.444.223.832.502 1.11.893.277.39.555.838.666 1.396.166.559.222 1.173.222 1.843h-1.11v-.726c-.056-.893-.278-1.508-.722-2.01-.444-.447-.998-.67-1.775-.67-.389 0-.777.055-1.055.223a2.118 2.118 0 0 0-.777.614 3.11 3.11 0 0 0-.499.95c-.111.39-.167.837-.167 1.284 0 .503.056.95.167 1.34.111.391.277.726.499 1.006.222.279.5.446.833.614.333.167.666.223 1.11.223.499-.111.999-.223 1.387-.502Zm2.053-2.4h-6.326l.055-.894h6.049l.222.893ZM127.663 24.663v-6.757h-2.72v-1.005h6.493v1.005h-2.719v6.757h-1.054ZM136.32 24.663h-3.441v-7.762h1.054v2.96h2.387c.444 0 .832.055 1.165.167.333.112.61.28.832.503.222.223.389.447.5.782.111.279.166.614.166.949 0 .335-.055.67-.166.95-.111.279-.278.558-.5.781a2.086 2.086 0 0 1-.832.503 3.668 3.668 0 0 1-1.165.167Zm-.111-.893c.277 0 .555-.056.776-.112.222-.056.389-.168.555-.335.167-.112.222-.28.333-.447.056-.167.111-.39.111-.614 0-.223-.055-.391-.111-.614a.862.862 0 0 0-.333-.447c-.166-.112-.333-.224-.555-.28a2.86 2.86 0 0 0-.776-.111h-2.276v2.96h2.276ZM110.737 43.371a2.836 2.836 0 0 1-1.166-.837c-.333-.335-.555-.782-.721-1.285a5.28 5.28 0 0 1-.278-1.675c0-.614.111-1.173.278-1.675.166-.503.388-.95.721-1.285a4.447 4.447 0 0 1 1.166-.837c.444-.224.943-.28 1.498-.28.388 0 .777.056 1.11.168.333.111.666.223.943.447.278.167.5.39.722.67.222.279.333.558.444.893l-1.055.335c-.166-.447-.444-.837-.832-1.06-.389-.28-.833-.392-1.332-.392-.389 0-.777.056-1.054.224a2.118 2.118 0 0 0-.777.614c-.222.28-.389.614-.5.95a4.505 4.505 0 0 0-.166 1.284c0 .447.055.893.166 1.284.111.391.278.726.5.95.222.223.499.502.777.614.332.167.665.223 1.109.223.555 0 .999-.111 1.332-.39.333-.28.666-.615.833-1.062l1.054.335c-.166.335-.333.67-.555.894-.222.223-.444.502-.721.67-.278.168-.555.335-.888.39a6.106 6.106 0 0 1-1.055.113c-.555 0-1.054-.112-1.553-.28ZM119.171 43.427V36.67h-2.719v-1.005h6.493v1.005h-2.719v6.757h-1.055ZM126.109 43.371a4.448 4.448 0 0 1-1.166-.837c-.333-.335-.555-.782-.721-1.285-.167-.502-.222-1.06-.222-1.675 0-.614.111-1.173.277-1.675.167-.503.389-.95.722-1.285a4.442 4.442 0 0 1 1.165-.837c.444-.224.944-.28 1.554-.28.555 0 1.11.112 1.554.28.444.223.832.502 1.165.837.333.335.555.782.722 1.285.166.502.222 1.06.222 1.675a5.28 5.28 0 0 1-.278 1.675c-.166.503-.388.95-.721 1.285a4.448 4.448 0 0 1-1.166.837c-.443.224-.943.28-1.553.28-.555 0-1.11-.112-1.554-.28Zm2.664-.949c.332-.167.554-.335.776-.614.222-.28.389-.615.5-1.005.111-.391.166-.782.166-1.285 0-.502-.055-.893-.166-1.284-.111-.391-.278-.726-.5-.95-.222-.279-.499-.447-.776-.614-.333-.168-.666-.223-1.11-.223-.444 0-.777.055-1.11.223a2.12 2.12 0 0 0-.777.614c-.222.28-.389.615-.5.95a4.505 4.505 0 0 0-.166 1.284c0 .447.055.894.166 1.285.111.39.278.726.5 1.005.222.279.499.502.777.614.333.168.666.223 1.11.223.388 0 .777-.055 1.11-.223ZM132.99 43.427v-7.762h1.055l2.774 5.473 2.775-5.473h1.054v7.762h-1.054v-5.64l-2.275 4.58h-.944l-2.275-4.58v5.64h-1.11ZM148.028 36.28c.5.557.777 1.34.777 2.4v4.747h-1.054v-1.284c-.278.502-.666.893-1.11 1.117a3.853 3.853 0 0 1-1.665.39 3.56 3.56 0 0 1-1.11-.167 2.931 2.931 0 0 1-.832-.447c-.222-.167-.389-.446-.555-.726a2.623 2.623 0 0 1-.167-.949c0-.39.056-.782.222-1.061.167-.28.389-.503.611-.726.222-.223.61-.335.999-.447a8.562 8.562 0 0 1 1.276-.28l2.497-.334.056.893-2.442.28c-.388.056-.721.111-.999.223-.277.112-.499.168-.666.335-.166.112-.333.28-.388.447-.056.167-.111.39-.111.614 0 .447.166.782.444 1.005.277.224.777.335 1.332.335.333 0 .666-.055.943-.167.278-.112.5-.224.722-.391.222-.168.388-.391.554-.614.167-.224.222-.503.333-.838.056-.223.056-.39.111-.614v-1.452c0-.391-.055-.726-.111-1.006-.055-.279-.222-.502-.388-.67-.166-.167-.388-.335-.666-.39-.277-.112-.555-.112-.888-.112-.61 0-1.054.111-1.387.335-.333.223-.611.614-.722 1.117l-.999-.224c.167-.726.555-1.284 1.055-1.62.555-.39 1.221-.558 2.053-.558.999 0 1.776.28 2.275.838ZM152.857 43.427V36.67h-2.719v-1.005h6.493v1.005h-2.72v6.757h-1.054ZM159.793 43.371a4.442 4.442 0 0 1-1.165-.837c-.333-.335-.555-.782-.721-1.285-.167-.502-.222-1.06-.222-1.675 0-.614.111-1.173.277-1.675.167-.503.389-.95.721-1.285a4.45 4.45 0 0 1 1.166-.838c.444-.223.943-.279 1.554-.279.555 0 1.11.112 1.554.28.443.223.832.502 1.165.837.333.335.555.782.721 1.285.167.502.222 1.06.222 1.675 0 .614-.111 1.173-.277 1.675-.167.503-.389.95-.722 1.285a4.442 4.442 0 0 1-1.165.837c-.444.224-.943.28-1.554.28-.61 0-1.11-.112-1.554-.28Zm2.664-.949a2.12 2.12 0 0 0 .777-.614 2.84 2.84 0 0 0 .499-1.005c.111-.391.167-.782.167-1.285 0-.502-.056-.893-.167-1.284-.111-.391-.277-.726-.499-.95-.222-.279-.499-.447-.777-.614-.333-.168-.666-.223-1.11-.223-.444 0-.777.055-1.11.223a2.118 2.118 0 0 0-.777.614 3.11 3.11 0 0 0-.499.95 4.503 4.503 0 0 0-.167 1.284c0 .447.056.894.167 1.285.111.39.277.726.499 1.005.222.279.5.502.777.614.333.168.666.223 1.11.223.389 0 .777-.055 1.11-.223ZM165.954 42.59a.68.68 0 0 0 .666-.056c.167-.112.333-.335.444-.615.111-.279.166-.67.222-1.116.055-.447.055-.95.055-1.564v-3.63h5.55v7.762h-1.054V36.67h-3.497v2.904c0 .838-.055 1.508-.166 2.066-.111.559-.222 1.005-.444 1.34-.222.336-.444.503-.721.615-.278.111-.666.056-1.055-.056v-.95ZM176.663 43.371a4.459 4.459 0 0 1-1.165-.837c-.333-.335-.555-.782-.721-1.285-.167-.502-.222-1.06-.222-1.675 0-.614.111-1.173.277-1.675.167-.503.389-.95.722-1.285a4.445 4.445 0 0 1 1.165-.838c.444-.223.943-.279 1.554-.279.555 0 1.11.112 1.554.28.444.223.832.502 1.165.837.333.335.555.782.721 1.285.167.502.222 1.06.222 1.675 0 .614-.111 1.173-.277 1.675-.167.503-.388.95-.721 1.285a4.448 4.448 0 0 1-1.166.837c-.444.224-.943.28-1.554.28-.61 0-1.11-.112-1.554-.28Zm2.664-.949a2.12 2.12 0 0 0 .777-.614c.222-.28.389-.615.5-1.005.111-.391.166-.782.166-1.285 0-.502-.055-.893-.166-1.284-.111-.391-.278-.726-.5-.95-.222-.279-.499-.447-.777-.614-.333-.168-.666-.223-1.11-.223-.444 0-.777.055-1.11.223a2.106 2.106 0 0 0-.776.614c-.222.28-.389.615-.5.95a4.505 4.505 0 0 0-.166 1.284c0 .447.055.894.166 1.285.111.39.278.726.5 1.005.221.279.499.502.776.614.333.168.666.223 1.11.223.444 0 .777-.055 1.11-.223ZM183.546 43.427v-7.762h4.994v1.005h-3.94v6.757h-1.054ZM196.198 35.665v7.762h-1.054V37.34l-4.052 6.087h-1.054v-7.762h1.054v6.087l4.052-6.087h1.054ZM202.69 40.3c-.277.167-.61.28-.943.39-.333.113-.777.113-1.221.113-.444 0-.832-.056-1.165-.168-.333-.112-.611-.28-.833-.558-.222-.224-.388-.559-.499-.95a4.915 4.915 0 0 1-.167-1.34v-2.122h1.055v2.01c0 .391 0 .726.055 1.005.056.28.167.503.278.67.111.168.333.336.555.392.222.111.499.111.832.111a3.56 3.56 0 0 0 1.11-.167c.333-.112.61-.224.888-.447l-.056.111V35.61h1.055v7.762h-1.055v-3.127l.111.056ZM210.46 42.255c.388-.28.666-.615.943-1.117l.999.39c-.166.336-.333.67-.555.894-.222.28-.499.503-.777.67-.277.168-.61.335-.943.391a3.556 3.556 0 0 1-1.11.168 4.212 4.212 0 0 1-1.498-.28 2.836 2.836 0 0 1-1.166-.837 3.648 3.648 0 0 1-.721-1.285 5.28 5.28 0 0 1-.278-1.675c0-.614.111-1.173.278-1.675a4.07 4.07 0 0 1 .721-1.285 4.447 4.447 0 0 1 1.166-.837c.444-.224.943-.28 1.498-.28s1.11.112 1.554.28c.444.223.832.502 1.11.893.277.39.555.838.666 1.396.166.559.222 1.173.222 1.843h-1.11v-.782c-.056-.893-.278-1.508-.722-2.01-.444-.447-.998-.67-1.775-.67-.389 0-.777.055-1.055.223a2.12 2.12 0 0 0-.777.614 3.11 3.11 0 0 0-.499.95 4.789 4.789 0 0 0-.167 1.284c0 .447.056.95.167 1.34.111.391.277.726.499 1.006.222.279.5.446.833.614.333.167.666.223 1.11.223.555-.056.999-.167 1.387-.447Zm2.109-2.402h-6.327l.056-.893h6.049l.222.893ZM215.899 43.371a2.836 2.836 0 0 1-1.166-.837c-.333-.335-.555-.782-.721-1.285a5.28 5.28 0 0 1-.278-1.675c0-.614.111-1.173.278-1.675.166-.503.388-.95.721-1.285a4.447 4.447 0 0 1 1.166-.837 4.21 4.21 0 0 1 1.498-.28c.388 0 .777.056 1.11.168.333.111.666.223.943.447.278.167.5.39.722.67.222.279.333.558.444.893l-1.055.335c-.166-.447-.444-.837-.832-1.06-.389-.28-.833-.392-1.332-.392-.388 0-.777.056-1.054.224a2.118 2.118 0 0 0-.777.614c-.222.28-.389.614-.5.95-.111.334-.166.781-.166 1.284 0 .447.055.893.166 1.284.111.391.278.726.5.95.222.279.499.502.777.614.333.167.666.223 1.11.223.554 0 .998-.111 1.331-.39.333-.28.666-.615.833-1.062l1.054.335c-.166.335-.333.67-.555.894-.222.28-.444.502-.721.67-.278.168-.555.335-.888.39a6.105 6.105 0 0 1-1.054.113c-.555 0-1.055-.112-1.554-.28ZM222.28 35.665h1.055v7.762h-1.055v-7.762Zm4.495 0h1.388l-3.607 3.909 4.106 3.91h-1.554l-3.94-3.854 3.607-3.965ZM235.599 35.665v7.762h-1.054V37.34l-4.051 6.087h-1.055v-7.762h1.055v6.087l4.051-6.087h1.054ZM236.875 43.427l2.997-3.909-2.942-3.853h1.277l2.331 3.015 2.275-3.015h1.276l-2.941 3.853 3.052 3.91h-1.276l-2.331-3.128-2.386 3.127h-1.332ZM109.071 54.429h1.055v7.762h-1.055V54.43Zm4.495 0h1.388l-3.607 3.909 4.106 3.909h-1.554l-3.94-3.853 3.607-3.965ZM115.564 61.353a.68.68 0 0 0 .666-.055c.167-.112.333-.335.444-.615.111-.279.167-.67.222-1.117.056-.446.056-.949.056-1.563v-3.63h5.549v7.762h-1.054v-6.757h-3.496v2.904c0 .838-.056 1.508-.167 2.066-.111.559-.222 1.005-.444 1.34-.222.336-.444.503-.721.615-.278.112-.666.056-1.055-.056v-.894ZM130.715 54.429v7.762h-1.055v-6.087l-4.051 6.087h-1.054V54.43h1.054v6.087l4.051-6.087h1.055ZM132.823 62.191V54.43h1.055v3.406h4.328V54.43h1.055v7.762h-1.055v-3.406h-4.328v3.406h-1.055ZM147.529 54.429v7.762h-1.054v-6.087l-4.051 6.087h-1.055V54.43h1.055v6.087l4.051-6.087h1.054ZM149.638 54.429h1.054v7.762h-1.054V54.43Zm4.495 0h1.387l-3.607 3.909 4.107 3.909h-1.554l-3.94-3.853 3.607-3.965Z"/></g><defs><clipPath id="a"><path fill="#fff" d="M0 0h252v75H0z"/></clipPath></defs></svg>