<svg width="252" height="75" viewBox="0 0 252 75" fill="none" xmlns="http://www.w3.org/2000/svg">
<g clip-path="url(#clip0_514_305)">
<path d="M69.8121 14.6873C69.7566 19.2107 68.7577 23.9576 67.4259 28.6485C66.538 31.8317 65.6501 34.959 64.0407 37.863C63.0418 39.65 61.9874 41.3812 60.5446 42.8332C59.6567 43.6709 58.6578 44.2293 57.3814 44.1176C56.105 44.0618 55.1616 43.4475 54.7177 42.2189C53.9962 40.4877 53.9407 38.6448 53.7188 36.8578C53.6078 36.0201 53.4968 35.2383 53.2193 34.4564C52.9418 33.6746 52.4979 33.0603 51.61 33.0045C50.7221 32.9486 50.2226 33.5629 49.8342 34.2889C49.3347 35.2383 49.2237 36.2993 49.1127 37.3045C49.0017 38.3656 48.8908 39.4825 48.7798 40.5994C48.5023 43.4475 47.0039 44.4527 44.2847 43.5592C41.954 42.8332 40.4001 41.102 39.0682 39.0916C36.2935 34.8474 34.9062 30.0447 33.9073 25.1303C33.3523 22.3939 32.9639 19.6016 32.9639 16.8094C32.9639 13.6262 32.9639 10.3872 34.0738 7.31571C35.1281 4.46761 36.793 2.12211 39.6232 0.78183C41.7875 -0.279227 44.0627 -0.167537 46.3935 0.279224C48.0583 0.614295 49.7232 1.17275 51.3325 1.7312C51.7765 1.89873 52.1649 1.84289 52.6089 1.67535C54.6622 0.837676 56.8265 0.223379 59.1017 0.167534C63.5413 0.111689 66.8709 2.34549 68.5358 6.47803C69.4792 9.04691 69.8121 11.6716 69.8121 14.6873ZM43.3968 1.45197C42.8419 1.45197 42.2869 1.45197 41.732 1.56366C39.1237 2.2338 37.2924 3.90916 36.0161 6.25465C34.7952 8.60015 34.4622 11.2249 34.3512 13.8496C34.1292 19.7133 35.1836 25.3537 36.904 30.9382C37.8474 33.9538 39.0683 36.9136 40.9551 39.4825C41.732 40.5436 42.6199 41.5488 43.8408 42.1072C46.2825 43.2241 46.893 42.554 47.3924 40.376C47.7254 38.7565 47.6699 37.137 47.9474 35.5175C48.1138 34.624 48.3358 33.7863 48.8908 33.1162C49.6122 32.2226 50.5556 31.5525 51.7765 31.7759C53.0528 31.9434 53.7743 32.7811 54.1627 33.9538C54.6067 35.1266 54.7177 36.3552 54.8287 37.5838C54.9951 39.0357 54.9951 40.5436 55.6056 41.9397C56.105 43.1683 57.1039 43.5592 58.3248 43.0566C58.8797 42.8332 59.3792 42.4981 59.8232 42.0514C61.3215 40.6552 62.3759 38.924 63.2638 37.137C66.8709 29.6538 68.8687 21.7796 68.5913 13.4028C68.5358 11.3924 68.2028 9.43782 67.5369 7.53909C66.1495 3.74162 63.4303 1.39613 59.0462 1.67535C57.3259 1.78704 55.6611 2.12211 54.1072 2.8481C52.4424 3.62993 50.944 3.40655 49.3347 2.79225C49.2237 2.73641 49.1682 2.73641 49.0572 2.68056C47.2259 1.95458 45.3946 1.45197 43.3968 1.45197Z" fill="#4E73BD"/>
<path d="M65.2063 56.1802C64.9288 56.1244 64.7623 56.1244 64.6514 56.0685C64.0964 55.9568 63.9854 55.6218 64.3184 55.175C64.4849 54.9516 64.7069 54.7282 64.9288 54.5607C66.0942 53.6672 67.4261 52.997 68.9244 52.7736C69.4239 52.7178 70.0343 52.6061 70.3118 53.2204C70.4783 53.4996 69.6459 54.1698 69.0909 54.2815C68.8134 54.3373 68.647 54.2815 68.7025 53.9464C68.7579 53.4996 68.425 53.4438 68.1475 53.4996C67.2041 53.723 66.3162 54.0581 65.5948 54.8958C65.8722 55.175 66.2052 55.0075 66.4827 55.0633C66.7601 55.0633 67.0376 55.1191 67.1486 55.3984C67.2596 55.7334 66.9821 55.901 66.7047 56.0685C66.3162 56.2919 65.9277 56.4594 65.5393 56.6828C65.2063 56.9062 64.9288 57.1854 65.0398 57.6322C65.1508 58.0789 65.5393 58.0789 65.8722 58.1906C66.5382 58.3023 67.1486 58.2465 67.759 58.0231C69.3684 57.5763 70.8667 56.962 72.2541 56.0685C72.7535 55.7334 73.142 55.2867 73.4195 54.7841C73.586 54.5607 73.6969 54.3373 73.8079 54.1139C74.0299 53.6113 74.4184 53.2763 74.9178 53.4996C75.4173 53.723 74.8068 54.1139 74.9178 54.5048C75.4173 54.449 75.8057 54.1698 76.2497 54.0022C76.9156 53.723 77.5816 53.5555 78.303 53.6113C79.2464 53.723 79.6348 54.3932 79.0799 55.1191C77.9145 56.5711 76.4162 57.5763 74.6404 58.1348C74.3629 58.2465 74.0299 58.1906 73.6969 58.0789C73.4195 57.9114 73.142 57.7439 73.142 57.3529C73.142 57.0179 73.4195 56.9062 73.6969 56.7387C74.0299 56.5711 74.2519 56.7387 74.4184 57.0179C74.6404 57.3529 74.9733 57.4088 75.3063 57.3529C76.2497 57.1296 77.0266 56.627 77.637 55.8451C77.859 55.5659 78.0255 55.175 77.859 54.8399C77.637 54.449 77.2486 54.5048 76.8601 54.5607C74.9178 54.7282 73.586 56.0127 72.3651 57.4088C70.7002 59.2517 69.4794 61.4296 68.0365 63.4401C65.9277 66.3999 63.9299 69.4155 61.2662 71.9285C60.5448 72.5987 59.8233 73.213 58.8244 73.4922C57.3261 73.8831 56.6602 73.3247 56.7712 71.761C56.8821 70.4207 57.5481 69.3038 58.325 68.2427C60.4338 65.3388 62.8755 62.7141 65.8167 60.592C66.6492 59.9777 67.4261 59.3634 68.203 58.6932C67.2041 58.9725 66.2052 59.3075 65.1508 59.3075C64.5404 59.3075 64.0409 59.14 63.8189 58.5257C63.708 58.1906 63.486 58.1906 63.2085 58.2465C62.4871 58.4699 61.7657 58.5815 60.9887 58.414C60.7113 58.3582 60.4893 58.5257 60.2673 58.6932C59.8788 58.9725 59.4349 59.2517 58.8799 59.3634C58.325 59.4192 57.7701 59.3075 57.4926 58.7491C57.2706 58.2465 56.9931 58.3582 56.6602 58.5257C55.8278 58.9166 54.9953 59.2517 54.0519 59.4192C52.9975 59.5868 52.6646 59.2517 52.942 58.2465C53.1085 57.7439 53.3305 57.2971 53.5525 56.6828C52.942 56.8503 52.6091 57.1296 52.2206 57.4088C51.3327 58.0789 50.4448 58.8608 49.3904 59.3075C49.0574 59.4751 48.669 59.6426 48.336 59.3075C48.003 58.9725 48.2805 58.6374 48.3915 58.3023C48.558 57.9114 48.78 57.4646 48.891 57.0179C47.9475 57.688 46.9487 58.3582 46.0052 59.0841C45.6723 59.3634 45.2838 59.5309 44.8399 59.6984C44.2294 59.9218 43.73 59.7543 43.508 59.0841C43.3415 58.5815 43.064 58.6374 42.6756 58.7491C41.5102 59.1958 40.3448 59.7543 39.1239 60.0335C38.68 60.1452 38.236 60.1452 37.8476 60.0894C36.9597 59.9218 36.6267 59.3075 36.9597 58.4699C37.1816 57.8556 37.7366 57.5763 38.125 57.0737C38.0695 56.8503 37.9031 56.962 37.7366 56.9062C37.1261 56.7945 36.9597 56.4036 37.2926 55.8451C37.4036 55.6776 37.5146 55.5101 37.6811 55.3984C39.0684 54.3932 40.6223 53.8347 42.2871 53.6113C42.6201 53.5555 43.064 53.4996 43.175 53.8906C43.286 54.3373 43.0086 54.6724 42.6201 54.7841C42.2871 54.8958 41.6767 55.7334 41.6212 54.5048C41.6212 54.3373 41.3992 54.3373 41.2327 54.3932C40.2893 54.5607 39.4014 54.8399 38.68 55.4542C38.569 55.5659 38.4025 55.6776 38.458 55.901C38.5135 56.0685 38.7355 56.0685 38.902 56.0685C39.0684 56.0685 39.2904 56.0127 39.4569 56.0127C39.6789 56.0127 39.9564 55.901 40.0673 56.1802C40.1783 56.5153 39.9564 56.7387 39.6789 56.8503C39.3459 56.962 39.0685 57.1296 38.7355 57.2971C38.125 57.5763 38.0141 58.1348 38.1805 58.6932C38.347 59.3075 38.902 59.1958 39.3459 59.0841C40.8443 58.8608 42.2316 58.3582 43.619 57.7997C44.0629 57.6322 44.3404 57.5763 44.5069 58.1348C44.5624 58.4699 44.8954 58.5815 45.1728 58.5257C45.6168 58.5257 46.0052 58.3582 46.3937 58.0789C47.6701 57.1296 48.9464 56.236 50.2228 55.2867C50.4448 55.1191 50.6668 54.8958 50.9442 55.1191C51.2217 55.3425 50.9997 55.6218 50.8888 55.8451C50.5558 56.4594 50.1118 57.0737 49.7789 57.7439C49.6679 57.9114 49.5014 58.0789 49.6679 58.2465C49.8344 58.414 50.0563 58.2465 50.2228 58.1906C51.6102 57.4088 52.8866 56.4594 53.9964 55.3984C54.2739 55.1191 54.5514 54.5607 54.9953 54.8958C55.4393 55.175 55.0508 55.6776 54.8843 56.0127C54.6624 56.627 54.3294 57.2413 54.0519 57.8556C53.7745 58.414 54.0519 58.5815 54.5514 58.5257C55.9387 58.3582 56.9931 57.688 57.8255 56.5711C58.3805 55.8451 58.9354 55.0633 59.4904 54.3373C59.9343 53.723 60.4893 53.1646 61.2107 52.7736C61.4882 52.6061 61.8211 52.3827 62.0431 52.7178C62.3206 53.0529 61.9876 53.2763 61.7657 53.4996C61.0442 54.2256 60.2673 54.8958 59.5459 55.5659C58.9354 56.1802 58.547 56.8503 58.325 57.688C58.214 58.0231 58.214 58.414 58.658 58.4699C59.1574 58.5257 59.6569 58.4699 59.9343 58.0231C60.0453 57.8556 59.8233 57.7439 59.7679 57.5763C59.2684 56.627 59.6569 55.4542 60.6003 55.0075C60.9887 54.7841 61.4327 54.7841 61.8211 55.0633C62.1541 55.3425 62.2096 55.7893 62.0431 56.1802C61.9321 56.5153 61.7102 56.8503 61.5992 57.1854C61.4882 57.353 61.2107 57.5205 61.3772 57.7439C61.5437 57.9672 61.8211 57.9114 62.0431 57.9114C63.375 57.7439 64.2629 57.1296 65.2063 56.1802ZM71.8101 57.0179C68.092 59.1958 64.7069 61.7647 61.8211 65.0596C60.4893 66.6232 59.1574 68.2427 58.4915 70.1973C58.325 70.6999 58.214 71.1467 58.325 71.7051C58.436 72.3194 58.769 72.5428 59.3794 72.2636C60.1008 71.9844 60.6558 71.4818 61.2107 70.9792C65.4283 66.9025 68.3695 61.7647 71.8101 57.0179Z" fill="#4E73BD"/>
<path d="M13.596 49.032C13.3185 49.7022 13.707 49.8697 14.2064 49.9814C14.8169 50.1489 15.3718 50.4281 15.7603 50.8749C16.0932 51.2658 16.4817 51.2658 16.9256 51.1541C19.3674 50.5957 21.5317 49.3671 23.5295 47.8593C25.4163 46.4631 27.3586 45.1229 29.4119 44.006C29.5784 43.9501 29.6894 43.8384 29.8558 43.7826C30.0223 43.7267 30.1888 43.6709 30.2998 43.8943C30.3553 44.0618 30.1888 44.1735 30.0778 44.2293C28.1355 44.8995 27.0811 46.6307 25.9157 48.1385C24.0289 50.484 22.4751 52.997 20.5883 55.3425C19.2009 57.0179 17.6471 58.414 15.7048 59.4192C15.6493 59.475 15.5383 59.5309 15.4273 59.6426C16.4262 60.1452 17.4251 60.3686 18.424 60.6478C19.0344 60.8153 19.6449 60.927 20.2553 61.0946C20.4773 61.1504 20.8657 61.0946 20.7548 61.5413C20.6438 61.8764 20.3108 61.7647 20.0888 61.7089C19.3674 61.5413 18.7015 61.3738 17.98 61.2062C17.869 61.2062 17.8136 61.1504 17.7026 61.1504C15.7048 60.3686 13.7625 59.9218 11.5982 60.5361C10.5993 60.8153 9.54489 60.6478 8.4905 60.4803C6.5482 60.0893 5.16084 58.9724 4.4949 57.0737C4.21743 56.3477 4.27293 55.6217 4.4949 54.8957C4.60589 54.449 4.4949 54.1698 4.21743 53.8347C1.77568 50.8191 0.499308 47.3567 0.221836 43.4475C0.0553526 40.6552 0.388319 38.0305 1.5537 35.4616C2.21963 34.0097 3.10754 32.7811 4.43941 31.8317C6.99215 29.9888 10.2108 30.9382 11.8757 32.8928C12.8191 34.0097 12.3196 35.7967 11.0432 36.411C10.8768 36.4669 10.7103 36.5786 10.5993 36.4669C10.4328 36.3552 10.4883 36.1318 10.5438 35.9643C10.7103 35.35 10.8768 34.6798 10.8213 34.0097C10.7658 32.446 9.87786 31.4966 8.32402 31.3291C6.15973 31.0499 4.4949 31.9992 3.27403 33.6746C1.72018 35.7409 0.887768 37.863 0.832274 40.2643C0.721285 43.2241 0.832274 46.1281 1.99766 48.8645C2.66359 50.3723 3.5515 51.7126 4.5504 53.0529C4.77237 53.3879 4.93886 53.3879 5.21633 53.0529C7.15863 50.7074 9.65588 49.5346 12.7636 49.8138C13.2075 49.758 13.2075 49.3112 13.596 49.032ZM4.99435 55.0633C4.60589 56.2919 4.82787 57.5763 5.5493 58.4698C5.77127 58.7491 5.99325 58.9166 6.32622 58.9166C8.76797 59.0283 11.2097 58.9166 13.3185 57.5205C14.8724 56.5153 16.1487 55.175 16.1487 53.1087C16.1487 52.1593 16.0377 52.0476 15.0943 51.936C14.1509 51.8243 13.3185 51.545 13.0965 50.4281C12.9855 50.0372 12.7081 49.9255 12.3751 49.9255C9.60038 49.7022 7.10314 51.0983 5.4938 53.3321C5.27182 53.6113 5.27182 53.8905 5.5493 54.1698C6.93666 55.6776 8.4905 56.962 10.3773 57.7997C10.5438 57.9114 10.9877 57.8555 10.8213 58.1906C10.7103 58.4698 10.3773 58.414 10.0998 58.3581C9.4339 58.1348 8.82346 57.7997 8.21303 57.4646C7.10314 56.9062 6.04875 56.0126 4.99435 55.0633ZM26.6927 45.9605C25.6383 46.6865 24.6394 47.4125 23.585 48.1943C21.5317 49.7022 19.4229 51.2658 16.8701 51.8243C16.4817 51.936 16.4817 52.1593 16.5372 52.4944C16.8147 53.8905 16.4262 55.1191 15.5383 56.1802C14.0399 57.9672 12.0421 58.8049 9.82236 59.2517C8.76797 59.475 7.71358 59.3634 6.4927 59.4192C6.77017 59.5867 6.88116 59.6984 6.99215 59.7543C7.21413 59.866 7.4916 59.9777 7.71358 60.0335C9.87786 60.6478 12.0421 60.4803 14.0954 59.5867C16.1487 58.6932 17.7581 57.2412 19.2564 55.6217C20.3663 54.3931 21.1987 52.9412 22.1976 51.6567C23.7515 49.7022 25.1388 47.7476 26.6927 45.9605Z" fill="#4E73BD"/>
<path d="M21.8648 62.8258C22.6418 62.2115 23.4187 61.5972 24.1401 60.9829C25.5275 59.866 27.0813 58.9724 28.6352 58.0231C29.745 57.3529 30.7439 56.5711 31.2434 55.2867C31.3544 54.9516 32.1313 54.7841 32.3533 55.0074C32.6307 55.2867 32.1868 55.4542 32.1868 55.7893C33.1857 55.3425 34.1846 55.1191 35.239 55.1191C35.7384 55.1191 36.1824 55.175 36.4044 55.6776C36.6263 56.1802 36.4044 56.5711 36.0714 56.962C34.906 58.1906 33.5742 59.0841 31.9093 59.4751C31.4654 59.5867 30.9659 59.5867 30.5775 59.2517C30.3 59.0283 30.2445 58.6932 30.522 58.414C30.7439 58.1906 31.1324 57.9672 31.3544 58.3023C31.7428 58.8049 32.1868 58.6932 32.6862 58.6374C33.5187 58.5257 34.2401 58.0789 34.795 57.4088C35.0725 57.0737 35.239 56.627 35.017 56.1802C34.795 55.7334 34.3511 55.901 33.9626 55.9568C32.7417 56.1802 31.7983 56.9062 30.9104 57.688C29.0791 59.3634 27.6363 61.3738 26.2489 63.4401C24.2511 66.3998 22.3643 69.3596 19.9225 71.9844C18.9791 72.9896 18.0357 73.9389 16.8703 74.6649C16.3154 75 15.7605 75.1675 15.15 75.1117C14.2621 75 13.9291 74.5532 14.0401 73.6597C14.2066 72.2077 14.8171 70.9791 15.5385 69.7506C16.8703 67.5726 18.6462 65.7856 20.3665 63.9427C20.8104 63.4959 21.1989 63.0491 21.0324 62.3232C20.9769 62.0439 21.0879 61.7647 21.4764 61.8205C21.7538 61.8764 21.9758 61.9881 21.9203 62.379C21.8648 62.4348 21.6984 62.6024 21.8648 62.8258ZM28.9126 58.6932C28.9126 58.6374 28.8571 58.6374 28.8571 58.5815C28.7461 58.6374 28.6352 58.6932 28.5242 58.7491C25.9159 60.5361 23.3632 62.379 20.9769 64.4453C18.9791 66.2323 17.2033 68.2986 15.9269 70.6999C15.6495 71.3142 15.4275 71.9285 15.4275 72.5987C15.4275 73.6039 16.0379 73.9948 16.9258 73.4922C17.4808 73.213 17.9247 72.822 18.3687 72.3753C21.0879 69.8064 23.3077 66.7908 25.472 63.7193C26.5264 62.0439 27.7472 60.3686 28.9126 58.6932Z" fill="#4E73BD"/>
<path d="M84.6843 55.0633C84.7398 54.6165 85.3503 54.2815 84.9618 53.8905C84.6289 53.5555 84.1294 53.8905 83.7409 54.0022C82.6865 54.3373 81.7986 54.8958 81.0772 55.7334C80.9107 55.9568 80.7442 56.1802 80.6333 56.4036C80.4668 56.7386 80.3003 57.0737 80.6333 57.4088C80.9107 57.7439 81.2992 57.6322 81.6322 57.4646C82.2981 57.1854 82.964 56.8503 83.5745 56.5153C83.8519 56.4036 84.0739 56.1802 84.4069 56.3477C84.7398 56.5153 84.5179 56.8503 84.4624 57.0737C84.3514 57.5205 84.6843 57.5205 84.9063 57.5205C85.5168 57.5205 86.1272 57.3529 86.6821 57.0737C87.8475 56.5153 88.9574 55.8451 89.6233 54.6724C90.3448 53.4996 90.1783 52.6619 89.0684 51.8801C87.9585 51.0983 86.7376 50.7632 85.4058 50.484C85.2393 50.4281 85.0728 50.4281 84.9063 50.3723C84.6843 50.3164 84.2959 50.4281 84.2959 50.0931C84.2959 49.758 84.6843 49.7022 84.9618 49.6463C86.9596 49.4788 88.7909 49.9255 90.1228 51.4892C90.9552 52.4386 91.0107 53.6113 90.3448 54.7282C89.9008 55.4542 89.2349 56.0127 88.569 56.5153C86.0162 58.414 83.0195 59.4751 79.9673 60.3127C77.7476 60.927 75.5833 61.4296 73.308 61.7089C73.0305 61.7647 72.8086 61.7647 72.4756 61.5972C73.6965 61.3179 74.9728 61.0946 76.1937 60.8153C77.4701 60.4803 78.8019 60.1452 80.0228 59.8101C81.2992 59.4192 82.5201 58.9724 83.6854 58.414C83.6854 58.1906 83.519 58.2465 83.4635 58.1348C83.186 57.1854 82.6865 57.7439 82.2426 57.9672C81.6322 58.2465 81.0217 58.5257 80.3003 58.5815C79.4124 58.6374 79.0794 58.1348 79.3014 57.2971C79.4124 56.9062 79.6344 56.5711 79.8563 56.2919C80.8552 54.8958 82.1871 53.8905 83.7964 53.2762C84.0184 53.1646 84.2404 53.1087 84.5179 53.1087C85.2948 52.9412 85.9052 53.2204 86.0162 53.7789C86.1272 54.449 85.4613 55.0074 84.6843 55.0633Z" fill="#4E73BD"/>
<path d="M61.6544 63.4401C60.711 63.831 59.7676 63.9985 58.7687 64.1102C53.3857 64.6687 48.0028 64.557 42.6198 64.3336C39.8451 64.2219 37.0149 64.0544 34.2402 63.831C32.8528 63.7193 31.4654 63.5518 30.0781 63.3842C29.8561 63.3842 29.5786 63.3284 29.6341 63.0491C29.6896 62.7699 29.9671 62.7699 30.1891 62.8258C34.2402 62.9933 38.2358 63.2167 42.2868 63.3842C46.2269 63.6076 50.2225 63.8868 54.1626 63.7751C56.5489 63.7193 58.8797 63.4959 61.2659 63.2725C61.3214 63.3284 61.4879 63.2167 61.6544 63.4401Z" fill="#4E73BD"/>
<path d="M40.4554 46.2398C39.0125 46.7982 37.7362 46.7424 36.4043 46.2398C35.3499 45.793 34.462 45.067 33.4631 44.5086C31.9647 43.6709 30.5774 42.6098 28.8016 42.3864C25.6384 41.9397 22.6417 42.4423 19.756 43.7826C18.2021 44.5086 16.7038 45.2345 15.5384 46.5748C14.9835 47.245 14.3175 47.9151 14.706 48.9203C14.928 49.5346 16.3153 50.0372 17.3142 49.8697C18.8681 49.6463 20.3109 49.0879 21.6428 48.306C22.3642 47.8593 23.0856 47.4125 23.8626 46.854C23.8626 47.245 23.5851 47.3567 23.4186 47.5242C21.2543 49.3112 18.8126 50.3164 15.9824 50.1489C15.6494 50.1489 15.3164 50.0931 14.9835 49.9814C14.0956 49.7021 13.7626 49.0879 13.9846 48.1385C14.262 46.9657 14.9835 46.0722 15.8714 45.3462C18.9236 42.9449 22.3642 41.7163 26.1933 41.4929C28.9126 41.3812 31.4098 42.2189 33.5741 44.0059C35.4609 45.5696 37.5697 46.3514 40.0114 46.1281C40.1779 46.1281 40.2334 46.1839 40.4554 46.2398Z" fill="#4E73BD"/>
<path d="M25.9162 57.3529C25.8607 57.8555 25.5277 58.0231 25.2503 58.2465C24.6398 58.8049 24.0294 59.3634 23.308 59.7543C22.975 59.9218 22.642 60.1452 22.3091 59.866C21.9761 59.5867 22.0316 59.1958 22.1426 58.8608C22.3645 57.5763 23.086 56.5153 23.7519 55.4542C25.5832 52.6061 27.581 49.8697 29.9118 47.4683C30.2448 47.1333 30.6332 46.7982 31.0217 46.5748C31.2437 46.4631 31.5211 46.2956 31.6876 46.519C31.9096 46.7982 31.5211 46.9099 31.4101 47.0774C28.3024 50.5398 25.4722 54.1698 23.1415 58.1906C22.9195 58.5815 22.6975 59.0283 22.6975 59.6426C23.9739 59.1958 24.7508 58.0789 25.9162 57.3529Z" fill="#4E73BD"/>
<path d="M41.3989 32.7811C40.6774 32.2785 40.289 31.6083 39.956 30.8265C38.9571 28.5927 38.5131 26.1914 38.2357 23.7342C37.9027 20.7744 37.7362 17.8146 38.0692 14.8548C38.4022 11.6716 39.2346 8.656 41.1769 6.08712C42.6752 4.13254 46.3379 3.85332 48.0027 5.58452C48.1692 5.75205 48.3911 5.86374 48.2802 6.14297C48.1692 6.36635 47.9472 6.3105 47.7807 6.3105C44.5065 6.08712 42.7862 8.0417 41.5098 10.7223C40.3445 13.2353 39.734 15.86 39.4565 18.5964C39.1236 21.6121 39.1236 24.6277 39.5675 27.6433C39.7895 29.207 40.3445 30.659 41.0104 32.0551C41.1769 32.2785 41.2879 32.5019 41.3989 32.7811Z" fill="#4E73BD"/>
<path d="M110.737 24.6074C110.293 24.4399 109.904 24.1607 109.571 23.7698C109.238 23.4347 109.016 22.9879 108.85 22.4853C108.683 21.9827 108.572 21.4243 108.572 20.81C108.572 20.1957 108.683 19.6372 108.85 19.1346C109.016 18.632 109.238 18.1852 109.571 17.8502C109.904 17.5151 110.293 17.2359 110.737 17.0125C111.181 16.7891 111.68 16.7333 112.235 16.7333C112.623 16.7333 113.012 16.7891 113.345 16.9008C113.678 17.0125 114.011 17.1242 114.288 17.3476C114.566 17.5151 114.788 17.7385 115.01 18.0177C115.232 18.2969 115.343 18.5762 115.454 18.9112L114.399 19.2463C114.233 18.7995 113.955 18.4086 113.567 18.1852C113.178 17.906 112.734 17.7943 112.235 17.7943C111.846 17.7943 111.458 17.8502 111.181 18.0177C110.848 18.1852 110.626 18.3528 110.404 18.632C110.182 18.9112 110.015 19.2463 109.904 19.5814C109.793 19.9723 109.738 20.3632 109.738 20.8658C109.738 21.3126 109.793 21.7593 109.904 22.1503C110.015 22.5412 110.182 22.8762 110.404 23.0996C110.626 23.3788 110.903 23.6022 111.181 23.7139C111.513 23.8815 111.846 23.9373 112.29 23.9373C112.845 23.9373 113.289 23.8256 113.622 23.5464C114.011 23.323 114.288 22.9321 114.455 22.4853L115.509 22.8204C115.343 23.1555 115.176 23.4905 114.954 23.7139C114.732 23.9373 114.51 24.2165 114.233 24.3841C113.955 24.5516 113.678 24.7191 113.345 24.775C113.012 24.8308 112.679 24.8867 112.29 24.8867C111.735 24.8867 111.236 24.8308 110.737 24.6074Z" fill="#4E73BD"/>
<path d="M121.835 23.4905C122.223 23.2113 122.501 22.8762 122.778 22.3736L123.777 22.7645C123.611 23.0996 123.444 23.4347 123.222 23.6581C123 23.9373 122.723 24.1607 122.445 24.3282C122.168 24.4957 121.835 24.6633 121.502 24.7191C121.169 24.775 120.781 24.8867 120.392 24.8867C119.837 24.8867 119.338 24.775 118.894 24.6074C118.45 24.4399 118.061 24.1607 117.728 23.7698C117.395 23.3788 117.173 22.9879 117.007 22.4853C116.84 21.9827 116.729 21.4243 116.729 20.81C116.729 20.1957 116.84 19.6372 117.007 19.1346C117.173 18.632 117.451 18.1852 117.728 17.8502C118.006 17.5151 118.45 17.2359 118.894 17.0125C119.338 16.845 119.837 16.7333 120.392 16.7333C120.947 16.7333 121.502 16.845 121.946 17.0125C122.39 17.2359 122.778 17.5151 123.056 17.906C123.333 18.2969 123.611 18.7437 123.722 19.3022C123.888 19.8606 123.944 20.4749 123.944 21.145H122.834V20.4191C122.778 19.5255 122.556 18.9112 122.112 18.4086C121.668 17.9619 121.114 17.7385 120.337 17.7385C119.948 17.7385 119.56 17.7943 119.282 17.9619C118.949 18.1294 118.727 18.2969 118.505 18.5762C118.283 18.8554 118.117 19.1905 118.006 19.5255C117.895 19.9164 117.839 20.3632 117.839 20.81C117.839 21.3126 117.895 21.7593 118.006 22.1503C118.117 22.5412 118.283 22.8762 118.505 23.1555C118.727 23.4347 119.005 23.6022 119.338 23.7698C119.671 23.9373 120.004 23.9931 120.448 23.9931C120.947 23.8815 121.447 23.7698 121.835 23.4905ZM123.888 21.0892H117.562L117.617 20.1957H123.666L123.888 21.0892Z" fill="#4E73BD"/>
<path d="M127.663 24.6633V17.906H124.943V16.9008H131.436V17.906H128.717V24.6633H127.663Z" fill="#4E73BD"/>
<path d="M136.32 24.6633H132.879V16.9008H133.933V19.8606H136.32C136.764 19.8606 137.152 19.9165 137.485 20.0281C137.818 20.1398 138.095 20.3074 138.317 20.5308C138.539 20.7541 138.706 20.9775 138.817 21.3126C138.928 21.5918 138.983 21.9269 138.983 22.2619C138.983 22.597 138.928 22.9321 138.817 23.2113C138.706 23.4905 138.539 23.7698 138.317 23.9931C138.095 24.2165 137.818 24.3841 137.485 24.4958C137.152 24.6074 136.764 24.6633 136.32 24.6633ZM136.209 23.7698C136.486 23.7698 136.764 23.7139 136.985 23.6581C137.207 23.6022 137.374 23.4905 137.54 23.323C137.707 23.2113 137.762 23.0438 137.873 22.8762C137.929 22.7087 137.984 22.4853 137.984 22.2619C137.984 22.0386 137.929 21.871 137.873 21.6477C137.818 21.4801 137.707 21.3126 137.54 21.2009C137.374 21.0892 137.207 20.9775 136.985 20.9217C136.764 20.8658 136.542 20.81 136.209 20.81H133.933V23.7698H136.209Z" fill="#4E73BD"/>
<path d="M110.737 43.3714C110.293 43.2039 109.904 42.9246 109.571 42.5337C109.238 42.1987 109.016 41.7519 108.85 41.2493C108.683 40.7467 108.572 40.1882 108.572 39.5739C108.572 38.9596 108.683 38.4012 108.85 37.8986C109.016 37.396 109.238 36.9492 109.571 36.6141C109.904 36.2791 110.293 35.9998 110.737 35.7765C111.181 35.5531 111.68 35.4972 112.235 35.4972C112.623 35.4972 113.012 35.5531 113.345 35.6648C113.678 35.7765 114.011 35.8882 114.288 36.1115C114.566 36.2791 114.788 36.5025 115.01 36.7817C115.232 37.0609 115.343 37.3401 115.454 37.6752L114.399 38.0103C114.233 37.5635 113.955 37.1726 113.567 36.9492C113.178 36.67 112.734 36.5583 112.235 36.5583C111.846 36.5583 111.458 36.6141 111.181 36.7817C110.848 36.9492 110.626 37.1167 110.404 37.396C110.182 37.6752 110.015 38.0103 109.904 38.3453C109.793 38.7363 109.738 39.1272 109.738 39.6298C109.738 40.0765 109.793 40.5233 109.904 40.9142C110.015 41.3051 110.182 41.6402 110.404 41.8636C110.626 42.087 110.903 42.3662 111.181 42.4779C111.513 42.6454 111.846 42.7013 112.29 42.7013C112.845 42.7013 113.289 42.5896 113.622 42.3103C113.955 42.0311 114.288 41.696 114.455 41.2493L115.509 41.5844C115.343 41.9194 115.176 42.2545 114.954 42.4779C114.732 42.7013 114.51 42.9805 114.233 43.148C113.955 43.3156 113.678 43.4831 113.345 43.5389C113.012 43.5948 112.679 43.6506 112.29 43.6506C111.735 43.6506 111.236 43.5389 110.737 43.3714Z" fill="#4E73BD"/>
<path d="M119.171 43.4272V36.67H116.452V35.6648H122.945V36.67H120.226V43.4272H119.171Z" fill="#4E73BD"/>
<path d="M126.109 43.3714C125.665 43.148 125.276 42.8688 124.943 42.5337C124.61 42.1987 124.388 41.7519 124.222 41.2493C124.055 40.7467 124 40.1882 124 39.5739C124 38.9596 124.111 38.4012 124.277 37.8986C124.444 37.396 124.666 36.9492 124.999 36.6141C125.332 36.2791 125.72 35.9998 126.164 35.7765C126.608 35.5531 127.108 35.4972 127.718 35.4972C128.273 35.4972 128.828 35.6089 129.272 35.7765C129.716 35.9998 130.104 36.2791 130.437 36.6141C130.77 36.9492 130.992 37.396 131.159 37.8986C131.325 38.4012 131.381 38.9596 131.381 39.5739C131.381 40.1882 131.27 40.7467 131.103 41.2493C130.937 41.7519 130.715 42.1987 130.382 42.5337C130.049 42.8688 129.66 43.148 129.216 43.3714C128.773 43.5948 128.273 43.6506 127.663 43.6506C127.108 43.6506 126.553 43.5389 126.109 43.3714ZM128.773 42.422C129.105 42.2545 129.327 42.087 129.549 41.8077C129.771 41.5285 129.938 41.1934 130.049 40.8025C130.16 40.4116 130.215 40.0207 130.215 39.5181C130.215 39.0155 130.16 38.6246 130.049 38.2336C129.938 37.8427 129.771 37.5077 129.549 37.2843C129.327 37.0051 129.05 36.8375 128.773 36.67C128.44 36.5024 128.107 36.4466 127.663 36.4466C127.219 36.4466 126.886 36.5024 126.553 36.67C126.22 36.8375 125.998 37.0051 125.776 37.2843C125.554 37.5635 125.387 37.8986 125.276 38.2336C125.165 38.6246 125.11 39.0155 125.11 39.5181C125.11 39.9648 125.165 40.4116 125.276 40.8025C125.387 41.1934 125.554 41.5285 125.776 41.8077C125.998 42.087 126.275 42.3103 126.553 42.422C126.886 42.5896 127.219 42.6454 127.663 42.6454C128.051 42.6454 128.44 42.5896 128.773 42.422Z" fill="#4E73BD"/>
<path d="M132.99 43.4272V35.6648H134.045L136.819 41.1376L139.594 35.6648H140.648V43.4272H139.594V37.7869L137.319 42.3662H136.375L134.1 37.7869V43.4272H132.99Z" fill="#4E73BD"/>
<path d="M148.028 36.2791C148.528 36.8375 148.805 37.6193 148.805 38.6804V43.4272H147.751V42.1428C147.473 42.6454 147.085 43.0363 146.641 43.2597C146.197 43.4831 145.587 43.6506 144.976 43.6506C144.588 43.6506 144.199 43.5948 143.866 43.4831C143.533 43.3714 143.256 43.2039 143.034 43.0363C142.812 42.8688 142.645 42.5896 142.479 42.3103C142.368 42.0311 142.312 41.696 142.312 41.361C142.312 40.9701 142.368 40.5791 142.534 40.2999C142.701 40.0207 142.923 39.7973 143.145 39.5739C143.367 39.3506 143.755 39.2389 144.144 39.1272C144.532 39.0155 144.976 38.9038 145.42 38.8479L147.917 38.5129L147.973 39.4064L145.531 39.6856C145.143 39.7415 144.81 39.7973 144.532 39.909C144.255 40.0207 144.033 40.0765 143.866 40.2441C143.7 40.3558 143.533 40.5233 143.478 40.6908C143.422 40.8584 143.367 41.0817 143.367 41.3051C143.367 41.7519 143.533 42.087 143.811 42.3103C144.088 42.5337 144.588 42.6454 145.143 42.6454C145.476 42.6454 145.809 42.5896 146.086 42.4779C146.364 42.3662 146.586 42.2545 146.808 42.087C147.03 41.9194 147.196 41.696 147.362 41.4727C147.529 41.2493 147.584 40.9701 147.695 40.635C147.751 40.4116 147.751 40.2441 147.806 40.0207C147.806 39.7973 147.806 39.5739 147.806 39.4064V38.5687C147.806 38.1778 147.751 37.8427 147.695 37.5635C147.64 37.2843 147.473 37.0609 147.307 36.8934C147.141 36.7258 146.919 36.5583 146.641 36.5024C146.364 36.3908 146.086 36.3908 145.753 36.3908C145.143 36.3908 144.699 36.5024 144.366 36.7258C144.033 36.9492 143.755 37.3401 143.644 37.8427L142.645 37.6194C142.812 36.8934 143.2 36.3349 143.7 35.9998C144.255 35.6089 144.921 35.4414 145.753 35.4414C146.752 35.4414 147.529 35.7206 148.028 36.2791Z" fill="#4E73BD"/>
<path d="M152.857 43.4272V36.67H150.138V35.6648H156.631V36.67H153.911V43.4272H152.857Z" fill="#4E73BD"/>
<path d="M159.793 43.3714C159.349 43.148 158.961 42.8688 158.628 42.5337C158.295 42.1986 158.073 41.7519 157.907 41.2493C157.74 40.7467 157.685 40.1882 157.685 39.5739C157.685 38.9596 157.796 38.4012 157.962 37.8986C158.129 37.396 158.351 36.9492 158.683 36.6141C159.016 36.2791 159.405 35.9998 159.849 35.7764C160.293 35.5531 160.792 35.4972 161.403 35.4972C161.958 35.4972 162.513 35.6089 162.957 35.7764C163.4 35.9998 163.789 36.2791 164.122 36.6141C164.455 36.9492 164.677 37.396 164.843 37.8986C165.01 38.4012 165.065 38.9596 165.065 39.5739C165.065 40.1882 164.954 40.7467 164.788 41.2493C164.621 41.7519 164.399 42.1986 164.066 42.5337C163.733 42.8688 163.345 43.148 162.901 43.3714C162.457 43.5948 161.958 43.6506 161.347 43.6506C160.737 43.6506 160.237 43.5389 159.793 43.3714ZM162.457 42.422C162.79 42.2545 163.012 42.0869 163.234 41.8077C163.456 41.5285 163.622 41.1934 163.733 40.8025C163.844 40.4116 163.9 40.0207 163.9 39.5181C163.9 39.0155 163.844 38.6246 163.733 38.2336C163.622 37.8427 163.456 37.5076 163.234 37.2843C163.012 37.005 162.735 36.8375 162.457 36.67C162.124 36.5024 161.791 36.4466 161.347 36.4466C160.903 36.4466 160.57 36.5024 160.237 36.67C159.904 36.8375 159.682 37.005 159.46 37.2843C159.238 37.5635 159.072 37.8986 158.961 38.2336C158.85 38.6246 158.794 39.0155 158.794 39.5181C158.794 39.9648 158.85 40.4116 158.961 40.8025C159.072 41.1934 159.238 41.5285 159.46 41.8077C159.682 42.0869 159.96 42.3103 160.237 42.422C160.57 42.5896 160.903 42.6454 161.347 42.6454C161.736 42.6454 162.124 42.5896 162.457 42.422Z" fill="#4E73BD"/>
<path d="M165.954 42.5896C166.232 42.7013 166.454 42.6454 166.62 42.5337C166.787 42.422 166.953 42.1987 167.064 41.9194C167.175 41.6402 167.23 41.2493 167.286 40.8025C167.341 40.3558 167.341 39.8532 167.341 39.2389V35.6089H172.891V43.3714H171.837V36.67H168.34V39.5739C168.34 40.4116 168.285 41.0818 168.174 41.6402C168.063 42.1987 167.952 42.6454 167.73 42.9805C167.508 43.3156 167.286 43.4831 167.009 43.5948C166.731 43.7065 166.343 43.6506 165.954 43.5389V42.5896Z" fill="#4E73BD"/>
<path d="M176.663 43.3714C176.22 43.148 175.831 42.8688 175.498 42.5337C175.165 42.1986 174.943 41.7519 174.777 41.2493C174.61 40.7467 174.555 40.1882 174.555 39.5739C174.555 38.9596 174.666 38.4012 174.832 37.8986C174.999 37.396 175.221 36.9492 175.554 36.6141C175.887 36.2791 176.275 35.9998 176.719 35.7764C177.163 35.5531 177.662 35.4972 178.273 35.4972C178.828 35.4972 179.383 35.6089 179.827 35.7764C180.271 35.9998 180.659 36.2791 180.992 36.6141C181.325 36.9492 181.547 37.396 181.713 37.8986C181.88 38.4012 181.935 38.9596 181.935 39.5739C181.935 40.1882 181.824 40.7467 181.658 41.2493C181.491 41.7519 181.27 42.1986 180.937 42.5337C180.604 42.8688 180.215 43.148 179.771 43.3714C179.327 43.5948 178.828 43.6506 178.217 43.6506C177.607 43.6506 177.107 43.5389 176.663 43.3714ZM179.327 42.422C179.66 42.2545 179.882 42.0869 180.104 41.8077C180.326 41.5285 180.493 41.1934 180.604 40.8025C180.715 40.4116 180.77 40.0207 180.77 39.5181C180.77 39.0155 180.715 38.6246 180.604 38.2336C180.493 37.8427 180.326 37.5076 180.104 37.2843C179.882 37.005 179.605 36.8375 179.327 36.67C178.994 36.5024 178.661 36.4466 178.217 36.4466C177.773 36.4466 177.44 36.5024 177.107 36.67C176.774 36.8375 176.552 37.005 176.331 37.2843C176.109 37.5635 175.942 37.8986 175.831 38.2336C175.72 38.6246 175.665 39.0155 175.665 39.5181C175.665 39.9648 175.72 40.4116 175.831 40.8025C175.942 41.1934 176.109 41.5285 176.331 41.8077C176.552 42.0869 176.83 42.3103 177.107 42.422C177.44 42.5896 177.773 42.6454 178.217 42.6454C178.661 42.6454 178.994 42.5896 179.327 42.422Z" fill="#4E73BD"/>
<path d="M183.546 43.4272V35.6648H188.54V36.67H184.6V43.4272H183.546Z" fill="#4E73BD"/>
<path d="M196.198 35.6648V43.4272H195.144V37.3401L191.092 43.4272H190.038V35.6648H191.092V41.7519L195.144 35.6648H196.198Z" fill="#4E73BD"/>
<path d="M202.69 40.2999C202.413 40.4674 202.08 40.5791 201.747 40.6908C201.414 40.8025 200.97 40.8025 200.526 40.8025C200.082 40.8025 199.694 40.7467 199.361 40.635C199.028 40.5233 198.75 40.3558 198.528 40.0765C198.306 39.8531 198.14 39.5181 198.029 39.1272C197.918 38.7362 197.862 38.2895 197.862 37.7869V35.6648H198.917V37.6752C198.917 38.0661 198.917 38.4012 198.972 38.6804C199.028 38.9596 199.139 39.183 199.25 39.3505C199.361 39.5181 199.583 39.6856 199.805 39.7415C200.027 39.8531 200.304 39.8531 200.637 39.8531C201.025 39.8531 201.414 39.7973 201.747 39.6856C202.08 39.5739 202.357 39.4622 202.635 39.2389L202.579 39.3505V35.6089H203.634V43.3714H202.579V40.2441L202.69 40.2999Z" fill="#4E73BD"/>
<path d="M210.46 42.2545C210.848 41.9753 211.126 41.6402 211.403 41.1376L212.402 41.5285C212.236 41.8636 212.069 42.1987 211.847 42.422C211.625 42.7013 211.348 42.9246 211.07 43.0922C210.793 43.2597 210.46 43.4272 210.127 43.4831C209.794 43.5948 209.406 43.6506 209.017 43.6506C208.462 43.6506 207.963 43.5389 207.519 43.3714C207.075 43.2039 206.686 42.9246 206.353 42.5337C206.02 42.1428 205.798 41.7519 205.632 41.2493C205.465 40.7467 205.354 40.1882 205.354 39.5739C205.354 38.9596 205.465 38.4012 205.632 37.8986C205.798 37.396 206.076 36.9492 206.353 36.6141C206.686 36.2791 207.075 35.9998 207.519 35.7765C207.963 35.5531 208.462 35.4972 209.017 35.4972C209.572 35.4972 210.127 35.6089 210.571 35.7765C211.015 35.9998 211.403 36.2791 211.681 36.67C211.958 37.0609 212.236 37.5077 212.347 38.0661C212.513 38.6246 212.569 39.2389 212.569 39.909H211.459V39.1272C211.403 38.2336 211.181 37.6194 210.737 37.1167C210.293 36.67 209.739 36.4466 208.962 36.4466C208.573 36.4466 208.185 36.5024 207.907 36.67C207.574 36.8375 207.352 37.0051 207.13 37.2843C206.908 37.5635 206.742 37.8986 206.631 38.2336C206.52 38.6246 206.464 39.0713 206.464 39.5181C206.464 39.9648 206.52 40.4675 206.631 40.8584C206.742 41.2493 206.908 41.5844 207.13 41.8636C207.352 42.1428 207.63 42.3103 207.963 42.4779C208.296 42.6454 208.629 42.7013 209.073 42.7013C209.628 42.6454 210.072 42.5337 210.46 42.2545ZM212.569 39.8532H206.242L206.298 38.9596H212.347L212.569 39.8532Z" fill="#4E73BD"/>
<path d="M215.899 43.3714C215.455 43.2039 215.066 42.9246 214.733 42.5337C214.4 42.1987 214.178 41.7519 214.012 41.2493C213.845 40.7467 213.734 40.1882 213.734 39.5739C213.734 38.9596 213.845 38.4012 214.012 37.8986C214.178 37.396 214.4 36.9492 214.733 36.6141C215.066 36.2791 215.455 35.9998 215.899 35.7765C216.343 35.6089 216.842 35.4972 217.397 35.4972C217.785 35.4972 218.174 35.5531 218.507 35.6648C218.84 35.7765 219.173 35.8882 219.45 36.1115C219.728 36.2791 219.95 36.5025 220.172 36.7817C220.394 37.0609 220.505 37.3401 220.616 37.6752L219.561 38.0103C219.395 37.5635 219.117 37.1726 218.729 36.9492C218.34 36.67 217.896 36.5583 217.397 36.5583C217.009 36.5583 216.62 36.6141 216.343 36.7817C216.01 36.9492 215.788 37.1167 215.566 37.396C215.344 37.6752 215.177 38.0103 215.066 38.3453C214.955 38.6804 214.9 39.1272 214.9 39.6298C214.9 40.0765 214.955 40.5233 215.066 40.9142C215.177 41.3051 215.344 41.6402 215.566 41.8636C215.788 42.1428 216.065 42.3662 216.343 42.4779C216.676 42.6454 217.009 42.7013 217.453 42.7013C218.007 42.7013 218.451 42.5896 218.784 42.3103C219.117 42.0311 219.45 41.696 219.617 41.2493L220.671 41.5844C220.505 41.9194 220.338 42.2545 220.116 42.4779C219.894 42.7571 219.672 42.9805 219.395 43.148C219.117 43.3156 218.84 43.4831 218.507 43.5389C218.174 43.5948 217.841 43.6506 217.453 43.6506C216.898 43.6506 216.398 43.5389 215.899 43.3714Z" fill="#4E73BD"/>
<path d="M222.28 35.6648H223.335V43.4272H222.28V35.6648ZM226.775 35.6648H228.163L224.556 39.5739L228.662 43.4831H227.108L223.168 39.6298L226.775 35.6648Z" fill="#4E73BD"/>
<path d="M235.599 35.6648V43.4272H234.545V37.3401L230.494 43.4272H229.439V35.6648H230.494V41.7519L234.545 35.6648H235.599Z" fill="#4E73BD"/>
<path d="M236.875 43.4272L239.872 39.5181L236.93 35.6648H238.207L240.538 38.6804L242.813 35.6648H244.089L241.148 39.5181L244.2 43.4272H242.924L240.593 40.2999L238.207 43.4272H236.875Z" fill="#4E73BD"/>
<path d="M109.071 54.4287H110.126V62.1912H109.071V54.4287ZM113.566 54.4287H114.954L111.347 58.3379L115.453 62.247H113.899L109.959 58.3937L113.566 54.4287Z" fill="#4E73BD"/>
<path d="M115.564 61.3535C115.842 61.4652 116.064 61.4094 116.23 61.2977C116.397 61.186 116.563 60.9626 116.674 60.6834C116.785 60.4042 116.841 60.0132 116.896 59.5665C116.952 59.1197 116.952 58.6171 116.952 58.0028V54.3729H122.501V62.1354H121.447V55.3781H117.951V58.2821C117.951 59.1197 117.895 59.7899 117.784 60.3483C117.673 60.9068 117.562 61.3535 117.34 61.6886C117.118 62.0237 116.896 62.1912 116.619 62.3029C116.341 62.4146 115.953 62.3587 115.564 62.2471V61.3535Z" fill="#4E73BD"/>
<path d="M130.715 54.4287V62.1912H129.66V56.1041L125.609 62.1912H124.555V54.4287H125.609V60.5159L129.66 54.4287H130.715Z" fill="#4E73BD"/>
<path d="M132.823 62.1912V54.4287H133.878V57.8353H138.206V54.4287H139.261V62.1912H138.206V58.7847H133.878V62.1912H132.823Z" fill="#4E73BD"/>
<path d="M147.529 54.4287V62.1912H146.475V56.1041L142.424 62.1912H141.369V54.4287H142.424V60.5158L146.475 54.4287H147.529Z" fill="#4E73BD"/>
<path d="M149.638 54.4287H150.692V62.1912H149.638V54.4287ZM154.133 54.4287H155.52L151.913 58.3379L156.02 62.247H154.466L150.526 58.3937L154.133 54.4287Z" fill="#4E73BD"/>
</g>
<defs>
<clipPath id="clip0_514_305">
<rect width="252" height="75" fill="white"/>
</clipPath>
</defs>
</svg>
