<svg width="74" height="60" viewBox="0 0 74 60" fill="none" xmlns="http://www.w3.org/2000/svg">
<path d="M56.5196 11.6718C56.4746 15.2557 55.6659 19.0165 54.5875 22.7331C53.8686 25.2551 53.1497 27.7328 51.8467 30.0336C51.038 31.4494 50.1843 32.821 49.0161 33.9714C48.2972 34.635 47.4884 35.0775 46.455 34.989C45.4216 34.9448 44.6578 34.4581 44.2983 33.4847C43.7142 32.1131 43.6693 30.653 43.4895 29.2371C43.3997 28.5735 43.3098 27.954 43.0852 27.3346C42.8605 26.7152 42.5011 26.2285 41.7822 26.1842C41.0633 26.14 40.6589 26.6267 40.3444 27.2019C39.94 27.954 39.8501 28.7947 39.7603 29.5911C39.6704 30.4318 39.5805 31.3167 39.4907 32.2016C39.266 34.4581 38.0529 35.2545 35.8513 34.5466C33.9641 33.9714 32.7061 32.5998 31.6277 31.0069C29.3812 27.6443 28.2579 23.8392 27.4491 19.9457C26.9998 17.7776 26.6853 15.5654 26.6853 13.3531C26.6853 10.8312 26.6853 8.26494 27.5839 5.83146C28.4376 3.57495 29.7856 1.71666 32.077 0.654774C33.8294 -0.185884 35.6715 -0.0973937 37.5586 0.256567C38.9066 0.522038 40.2545 0.96449 41.5575 1.40694C41.917 1.53968 42.2315 1.49543 42.5909 1.3627C44.2534 0.699019 46.0057 0.212322 47.8479 0.168077C51.4424 0.123832 54.1382 1.89364 55.4862 5.16778C56.25 7.20305 56.5196 9.28258 56.5196 11.6718ZM35.1324 1.18572C34.683 1.18572 34.2337 1.18572 33.7844 1.27421C31.6727 1.80515 30.1899 3.1325 29.1565 4.9908C28.168 6.84909 27.8984 8.92862 27.8086 11.0081C27.6289 15.6539 28.4825 20.1226 29.8754 24.5471C30.6392 26.9364 31.6277 29.2814 33.1554 31.3167C33.7844 32.1573 34.5033 32.9537 35.4918 33.3962C37.4688 34.2811 37.963 33.7501 38.3674 32.0246C38.637 30.7415 38.5921 29.4584 38.8167 28.1753C38.9515 27.4673 39.1312 26.8037 39.5805 26.2727C40.1646 25.5648 40.9285 25.0338 41.917 25.2108C42.9504 25.3436 43.5345 26.0072 43.849 26.9364C44.2084 27.8655 44.2983 28.8389 44.3882 29.8123C44.523 30.9627 44.523 32.1573 45.0172 33.2634C45.4216 34.2368 46.2303 34.5466 47.2188 34.1483C47.6681 33.9714 48.0725 33.7059 48.432 33.3519C49.6451 32.2458 50.4988 30.8742 51.2177 29.4584C54.1382 23.5295 55.7557 17.2909 55.5311 10.6542C55.4862 9.06135 55.2166 7.51277 54.6774 6.00844C53.5541 2.99977 51.3525 1.14147 47.8029 1.3627C46.4101 1.45119 45.0621 1.71666 43.8041 2.29184C42.4561 2.91128 41.243 2.7343 39.94 2.2476C39.8501 2.20335 39.8052 2.20335 39.7153 2.15911C38.2326 1.58392 36.7499 1.18572 35.1324 1.18572Z" fill="#4E73BD"/>
<path d="M52.7911 44.5458C52.5664 44.5015 52.4316 44.5015 52.3418 44.4573C51.8925 44.3688 51.8026 44.1033 52.0722 43.7493C52.207 43.5724 52.3867 43.3954 52.5664 43.2626C53.51 42.5547 54.5883 42.0238 55.8015 41.8468C56.2059 41.8026 56.7001 41.7141 56.9248 42.2008C57.0596 42.422 56.3856 42.9529 55.9363 43.0414C55.7116 43.0857 55.5768 43.0414 55.6218 42.776C55.6667 42.422 55.3971 42.3777 55.1724 42.422C54.4086 42.599 53.6897 42.8644 53.1056 43.5281C53.3303 43.7493 53.5999 43.6166 53.8245 43.6609C54.0492 43.6609 54.2738 43.7051 54.3637 43.9263C54.4536 44.1918 54.2289 44.3245 54.0042 44.4573C53.6897 44.6342 53.3752 44.767 53.0607 44.944C52.7911 45.1209 52.5664 45.3422 52.6563 45.6961C52.7462 46.0501 53.0607 46.0501 53.3303 46.1386C53.8694 46.2271 54.3637 46.1828 54.8579 46.0058C56.1609 45.6519 57.3741 45.1652 58.4974 44.4573C58.9017 44.1918 59.2163 43.8378 59.4409 43.4396C59.5757 43.2626 59.6656 43.0857 59.7554 42.9087C59.9351 42.5105 60.2497 42.245 60.654 42.422C61.0584 42.599 60.5642 42.9087 60.654 43.2184C61.0584 43.1742 61.3729 42.9529 61.7324 42.8202C62.2716 42.599 62.8107 42.4662 63.3948 42.5105C64.1587 42.599 64.4732 43.1299 64.0239 43.7051C63.0803 44.8555 61.8672 45.6519 60.4294 46.0943C60.2047 46.1828 59.9352 46.1386 59.6656 46.0501C59.4409 45.9174 59.2163 45.7846 59.2163 45.4749C59.2163 45.2094 59.4409 45.1209 59.6656 44.9882C59.9352 44.8555 60.1149 44.9882 60.2497 45.2094C60.4294 45.4749 60.699 45.5191 60.9686 45.4749C61.7324 45.2979 62.3614 44.8997 62.8557 44.2803C63.0354 44.0591 63.1702 43.7493 63.0354 43.4839C62.8557 43.1742 62.5412 43.2184 62.2266 43.2626C60.654 43.3954 59.5757 44.413 58.5872 45.5192C57.2393 46.9792 56.2508 48.7048 55.0826 50.2976C53.3752 52.6426 51.7577 55.0319 49.601 57.0229C49.0169 57.5538 48.4328 58.0405 47.624 58.2618C46.4109 58.5715 45.8717 58.129 45.9616 56.8902C46.0514 55.8283 46.5906 54.9434 47.2196 54.1027C48.927 51.802 50.904 49.7224 53.2853 48.0411C53.9593 47.5544 54.5883 47.0677 55.2174 46.5368C54.4086 46.758 53.5999 47.0235 52.7462 47.0235C52.2519 47.0235 51.8475 46.8908 51.6678 46.4041C51.578 46.1386 51.3982 46.1386 51.1736 46.1828C50.5895 46.3598 50.0054 46.4483 49.3763 46.3156C49.1517 46.2713 48.972 46.4041 48.7922 46.5368C48.4777 46.758 48.1183 46.9792 47.6689 47.0677C47.2196 47.112 46.7703 47.0235 46.5457 46.581C46.3659 46.1828 46.1413 46.2713 45.8717 46.4041C45.1977 46.7138 44.5238 46.9792 43.7599 47.112C42.9062 47.2447 42.6367 46.9792 42.8613 46.1828C42.9961 45.7846 43.1758 45.4307 43.3556 44.944C42.8613 45.0767 42.5917 45.2979 42.2772 45.5192C41.5583 46.0501 40.8394 46.6695 39.9857 47.0235C39.7161 47.1562 39.4016 47.289 39.132 47.0235C38.8624 46.758 39.0871 46.4925 39.177 46.2271C39.3118 45.9174 39.4915 45.5634 39.5813 45.2094C38.8175 45.7404 38.0088 46.2713 37.2449 46.8465C36.9753 47.0677 36.6608 47.2005 36.3014 47.3332C35.8071 47.5102 35.4027 47.3774 35.223 46.8465C35.0882 46.4483 34.8636 46.4925 34.5491 46.581C33.6055 46.935 32.6619 47.3774 31.6735 47.5987C31.314 47.6872 30.9546 47.6872 30.64 47.6429C29.9211 47.5102 29.6516 47.0235 29.9211 46.3598C30.1009 45.8731 30.5502 45.6519 30.8647 45.2537C30.8198 45.0767 30.685 45.1652 30.5502 45.1209C30.0559 45.0325 29.9211 44.7227 30.1907 44.2803C30.2806 44.1476 30.3705 44.0148 30.5053 43.9263C31.6285 43.1299 32.8866 42.6875 34.2345 42.5105C34.5041 42.4662 34.8636 42.422 34.9534 42.7317C35.0433 43.0857 34.8186 43.3511 34.5041 43.4396C34.2345 43.5281 33.7403 44.1918 33.6954 43.2184C33.6954 43.0857 33.5156 43.0857 33.3808 43.1299C32.617 43.2626 31.8981 43.4839 31.314 43.9706C31.2242 44.0591 31.0894 44.1476 31.1343 44.3245C31.1792 44.4573 31.3589 44.4573 31.4937 44.4573C31.6285 44.4573 31.8083 44.413 31.943 44.413C32.1228 44.413 32.3474 44.3245 32.4373 44.5458C32.5272 44.8112 32.3474 44.9882 32.1228 45.0767C31.8532 45.1652 31.6285 45.2979 31.3589 45.4307C30.8647 45.6519 30.7748 46.0943 30.9096 46.5368C31.0444 47.0235 31.4937 46.935 31.8532 46.8465C33.0663 46.6695 34.1896 46.2713 35.3129 45.8289C35.6723 45.6961 35.897 45.6519 36.0318 46.0943C36.0767 46.3598 36.3463 46.4483 36.571 46.4041C36.9304 46.4041 37.2449 46.2713 37.5594 46.0501C38.5929 45.2979 39.6263 44.59 40.6597 43.8378C40.8394 43.7051 41.0191 43.5281 41.2438 43.7051C41.4685 43.8821 41.2887 44.1033 41.1989 44.2803C40.9293 44.767 40.5698 45.2537 40.3002 45.7846C40.2104 45.9174 40.0756 46.0501 40.2104 46.1828C40.3452 46.3156 40.5249 46.1828 40.6597 46.1386C41.783 45.5191 42.8164 44.767 43.715 43.9263C43.9397 43.7051 44.1643 43.2627 44.5238 43.5281C44.8832 43.7493 44.5687 44.1476 44.4339 44.413C44.2542 44.8997 43.9846 45.3864 43.7599 45.8731C43.5353 46.3156 43.7599 46.4483 44.1643 46.4041C45.2876 46.2713 46.1413 45.7404 46.8153 44.8555C47.2646 44.2803 47.7139 43.6609 48.1632 43.0857C48.5226 42.599 48.972 42.1565 49.5561 41.8468C49.7807 41.7141 50.0503 41.5371 50.23 41.8026C50.4547 42.068 50.1851 42.245 50.0054 42.422C49.4213 42.9972 48.7922 43.5281 48.2081 44.0591C47.7139 44.5458 47.3994 45.0767 47.2196 45.7404C47.1298 46.0058 47.1298 46.3156 47.4892 46.3598C47.8936 46.4041 48.298 46.3598 48.5226 46.0058C48.6125 45.8731 48.4328 45.7846 48.3878 45.6519C47.9835 44.8997 48.298 43.9706 49.0618 43.6166C49.3763 43.4396 49.7358 43.4396 50.0503 43.6609C50.3199 43.8821 50.3648 44.236 50.23 44.5458C50.1402 44.8112 49.9604 45.0767 49.8706 45.3422C49.7807 45.4749 49.5561 45.6076 49.6908 45.7846C49.8256 45.9616 50.0503 45.9174 50.23 45.9174C51.3084 45.7846 52.0273 45.2979 52.7911 44.5458ZM58.1379 45.2094C55.1275 46.935 52.3867 48.9703 50.0503 51.5807C48.972 52.8196 47.8936 54.1027 47.3544 55.6513C47.2196 56.0495 47.1298 56.4035 47.2196 56.8459C47.3095 57.3326 47.5791 57.5096 48.0733 57.2884C48.6574 57.0671 49.1067 56.6689 49.5561 56.2707C52.9708 53.0408 55.3522 48.9703 58.1379 45.2094Z" fill="#4E73BD"/>
<path d="M11.004 38.8825C10.7794 39.4134 11.0939 39.5461 11.4983 39.6346C11.9925 39.7674 12.4418 39.9886 12.7563 40.3425C13.0259 40.6523 13.3404 40.6523 13.6999 40.5638C15.6769 40.1213 17.4292 39.1479 19.0467 37.9533C20.5744 36.8472 22.1469 35.7853 23.8094 34.9004C23.9442 34.8561 24.034 34.7677 24.1688 34.7234C24.3036 34.6792 24.4384 34.6349 24.5283 34.8119C24.5732 34.9446 24.4384 35.0331 24.3486 35.0774C22.776 35.6083 21.9223 36.9799 20.9787 38.1745C19.4511 40.0328 18.193 42.0239 16.6653 43.8821C15.5421 45.2095 14.284 46.3156 12.7114 47.112C12.6665 47.1563 12.5766 47.2005 12.4867 47.289C13.2955 47.6872 14.1043 47.8642 14.913 48.0854C15.4073 48.2182 15.9015 48.3067 16.3958 48.4394C16.5755 48.4836 16.89 48.4394 16.8001 48.7934C16.7103 49.0588 16.4407 48.9703 16.261 48.9261C15.6769 48.7934 15.1377 48.6606 14.5536 48.5279C14.4637 48.5279 14.4188 48.4836 14.3289 48.4836C12.7114 47.8642 11.1388 47.5103 9.38649 47.9969C8.57773 48.2182 7.72404 48.0854 6.87035 47.9527C5.29776 47.643 4.17448 46.7581 3.63531 45.2537C3.41065 44.6786 3.45558 44.1034 3.63531 43.5282C3.72517 43.1742 3.63531 42.953 3.41065 42.6875C1.43368 40.2983 0.400266 37.5551 0.17561 34.4579C0.040817 32.2457 0.310404 30.1662 1.25396 28.1309C1.79313 26.9805 2.51203 26.0071 3.59038 25.2549C5.65721 23.7949 8.26322 24.547 9.61115 26.0956C10.375 26.9805 9.9706 28.3963 8.93718 28.883C8.80239 28.9273 8.6676 29.0158 8.57773 28.9273C8.44294 28.8388 8.48787 28.6618 8.5328 28.5291C8.6676 28.0424 8.80239 27.5114 8.75746 26.9805C8.71253 25.7416 7.99363 24.9895 6.73556 24.8567C4.98324 24.6355 3.63531 25.3877 2.64682 26.715C1.38875 28.3521 0.714784 30.0334 0.669853 31.936C0.579991 34.281 0.669853 36.5817 1.61341 38.7497C2.15258 39.9443 2.87148 41.0062 3.68024 42.0681C3.85996 42.3336 3.99476 42.3336 4.21941 42.0681C5.792 40.2098 7.8139 39.2807 10.33 39.5019C10.6895 39.4576 10.6895 39.1037 11.004 38.8825ZM4.03969 43.6609C3.72517 44.6343 3.9049 45.652 4.489 46.3599C4.66873 46.5811 4.84845 46.7138 5.11804 46.7138C7.09501 46.8023 9.07198 46.7138 10.7794 45.6077C12.0374 44.8113 13.0708 43.7494 13.0708 42.1123C13.0708 41.3602 12.981 41.2717 12.2172 41.1832C11.4533 41.0947 10.7794 40.8735 10.5996 39.9886C10.5098 39.6789 10.2851 39.5904 10.0155 39.5904C7.76897 39.4134 5.74707 40.5195 4.44407 42.2893C4.26434 42.5105 4.26434 42.7318 4.489 42.953C5.61228 44.1476 6.87035 45.1653 8.39801 45.8289C8.5328 45.9174 8.89225 45.8732 8.75746 46.1386C8.6676 46.3599 8.39801 46.3156 8.17335 46.2714C7.63418 46.0944 7.13994 45.8289 6.6457 45.5635C5.74707 45.121 4.89338 44.4131 4.03969 43.6609ZM21.6078 36.449C20.7541 37.0242 19.9453 37.5993 19.0916 38.2188C17.4292 39.4134 15.7218 40.6523 13.655 41.0947C13.3404 41.1832 13.3404 41.3602 13.3854 41.6256C13.61 42.7318 13.2955 43.7052 12.5766 44.5458C11.3635 45.9617 9.74594 46.6253 7.9487 46.9793C7.09501 47.1563 6.24131 47.0678 5.25283 47.112C5.47749 47.2448 5.56735 47.3333 5.65721 47.3775C5.83693 47.466 6.06159 47.5545 6.24131 47.5987C7.99363 48.0854 9.74594 47.9527 11.4084 47.2448C13.0708 46.5369 14.3739 45.3865 15.587 44.1034C16.4856 43.13 17.1596 41.9796 17.9683 40.962C19.2264 39.4134 20.3497 37.8648 21.6078 36.449Z" fill="#4E73BD"/>
<path d="M17.7004 49.8111C18.3294 49.3244 18.9584 48.8377 19.5425 48.351C20.6658 47.4661 21.9239 46.7581 23.182 46.006C24.0806 45.475 24.8893 44.8556 25.2937 43.838C25.3836 43.5725 26.0126 43.4398 26.1923 43.6167C26.417 43.838 26.0575 43.9707 26.0575 44.2362C26.8663 43.8822 27.6751 43.7052 28.5288 43.7052C28.9331 43.7052 29.2926 43.7495 29.4723 44.1477C29.652 44.5459 29.4723 44.8556 29.2027 45.1653C28.2592 46.1387 27.1808 46.8466 25.8329 47.1563C25.4734 47.2448 25.0691 47.2448 24.7545 46.9794C24.5299 46.8024 24.485 46.5369 24.7096 46.3157C24.8893 46.1387 25.2039 45.9617 25.3836 46.2272C25.6981 46.6254 26.0575 46.5369 26.4619 46.4927C27.1359 46.4042 27.72 46.0502 28.1693 45.5193C28.394 45.2538 28.5288 44.8998 28.349 44.5459C28.1693 44.1919 27.8099 44.3247 27.4953 44.3689C26.5069 44.5459 25.743 45.1211 25.0241 45.7405C23.5414 47.0679 22.3732 48.6607 21.2499 50.2977C19.6324 52.6427 18.1047 54.9877 16.1278 57.0673C15.3639 57.8637 14.6001 58.6158 13.6566 59.191C13.2072 59.4565 12.7579 59.5892 12.2637 59.545C11.5448 59.4565 11.2752 59.1025 11.3651 58.3946C11.4999 57.2442 11.9941 56.2708 12.5782 55.2974C13.6566 53.5719 15.0944 52.156 16.4872 50.696C16.8467 50.342 17.1612 49.988 17.0264 49.4128C16.9815 49.1916 17.0713 48.9704 17.3858 49.0146C17.6105 49.0589 17.7902 49.1474 17.7453 49.4571C17.7004 49.5013 17.5656 49.6341 17.7004 49.8111ZM23.4066 46.5369C23.4066 46.4927 23.3617 46.4927 23.3617 46.4484C23.2718 46.4927 23.182 46.5369 23.0921 46.5812C20.9803 47.997 18.9135 49.4571 16.9815 51.0942C15.3639 52.51 13.9261 54.1471 12.8927 56.0496C12.6681 56.5363 12.4883 57.023 12.4883 57.5539C12.4883 58.3504 12.9826 58.6601 13.7015 58.2619C14.1508 58.0406 14.5102 57.7309 14.8697 57.377C17.0713 55.3417 18.8686 52.9525 20.6209 50.519C21.4746 49.1916 22.4631 47.8643 23.4066 46.5369Z" fill="#4E73BD"/>
<path d="M68.5619 43.6613C68.6068 43.3074 69.101 43.0419 68.7865 42.7322C68.5169 42.4667 68.1125 42.7322 67.798 42.8207C66.9443 43.0862 66.2254 43.5286 65.6413 44.1923C65.5065 44.3693 65.3717 44.5463 65.2819 44.7232C65.1471 44.9887 65.0123 45.2542 65.2819 45.5196C65.5065 45.7851 65.8211 45.6966 66.0906 45.5639C66.6298 45.3427 67.169 45.0772 67.6632 44.8117C67.8879 44.7232 68.0676 44.5463 68.3372 44.679C68.6068 44.8117 68.4271 45.0772 68.3821 45.2542C68.2923 45.6081 68.5618 45.6081 68.7416 45.6081C69.2358 45.6081 69.7301 45.4754 70.1794 45.2542C71.1229 44.8117 72.0215 44.2808 72.5607 43.3516C73.1448 42.4225 73.01 41.7588 72.1114 41.1394C71.2128 40.5199 70.2243 40.2545 69.146 40.0332C69.0112 39.989 68.8764 39.989 68.7416 39.9448C68.5618 39.9005 68.2473 39.989 68.2473 39.7235C68.2473 39.4581 68.5619 39.4138 68.7865 39.3696C70.404 39.2368 71.8867 39.5908 72.9651 40.8297C73.6391 41.5818 73.684 42.511 73.1448 43.3959C72.7854 43.9711 72.2462 44.4135 71.707 44.8117C69.6402 46.3161 67.2139 47.1567 64.7427 47.8204C62.9455 48.3071 61.1931 48.7053 59.351 48.9265C59.1263 48.9708 58.9466 48.9708 58.677 48.838C59.6655 48.6168 60.6989 48.4398 61.6874 48.2186C62.7208 47.9531 63.7991 47.6877 64.7876 47.4222C65.821 47.1125 66.8095 46.7585 67.7531 46.3161C67.7531 46.1391 67.6183 46.1833 67.5734 46.0948C67.3487 45.3427 66.9443 45.7851 66.5849 45.9621C66.0906 46.1833 65.5964 46.4045 65.0123 46.4488C64.2934 46.493 64.0238 46.0948 64.2035 45.4312C64.2934 45.1214 64.4731 44.856 64.6528 44.6347C65.4616 43.5286 66.5399 42.7322 67.8429 42.2455C68.0227 42.157 68.2024 42.1128 68.4271 42.1128C69.0561 41.98 69.5503 42.2013 69.6402 42.6437C69.7301 43.1747 69.1909 43.6171 68.5619 43.6613Z" fill="#4E73BD"/>
<path d="M49.9157 50.2979C49.1519 50.6076 48.388 50.7403 47.5793 50.8288C43.221 51.2713 38.8626 51.1828 34.5043 51.0058C32.2578 50.9173 29.9663 50.7846 27.7197 50.6076C26.5964 50.5191 25.4732 50.3864 24.3499 50.2536C24.1702 50.2536 23.9455 50.2094 23.9904 49.9882C24.0354 49.7669 24.26 49.7669 24.4397 49.8112C27.7197 49.9439 30.9548 50.1209 34.2347 50.2536C37.4248 50.4306 40.6599 50.6518 43.85 50.5634C45.782 50.5191 47.6691 50.3421 49.6012 50.1652C49.6461 50.2094 49.7809 50.1209 49.9157 50.2979Z" fill="#4E73BD"/>
<path d="M32.7527 36.6704C31.5845 37.1128 30.551 37.0686 29.4727 36.6704C28.619 36.3164 27.9001 35.7412 27.0913 35.2988C25.8782 34.6351 24.7549 33.7944 23.3171 33.6175C20.7561 33.2635 18.3298 33.6617 15.9934 34.7236C14.7353 35.2988 13.5221 35.874 12.5786 36.9358C12.1293 37.4668 11.5901 37.9977 11.9046 38.7941C12.0843 39.2808 13.2076 39.679 14.0164 39.5463C15.2745 39.3693 16.4427 38.9269 17.521 38.3074C18.1051 37.9535 18.6892 37.5995 19.3183 37.1571C19.3183 37.4668 19.0936 37.5553 18.9588 37.688C17.2065 39.1039 15.2295 39.9003 12.938 39.7675C12.6685 39.7675 12.3989 39.7233 12.1293 39.6348C11.4104 39.4136 11.1408 38.9269 11.3205 38.1747C11.5452 37.2456 12.1293 36.5376 12.8482 35.9625C15.3194 34.0599 18.1051 33.0865 21.2054 32.9095C23.407 32.8211 25.4289 33.4847 27.1812 34.9006C28.7089 36.1394 30.4163 36.7589 32.3932 36.5819C32.528 36.5819 32.5729 36.6261 32.7527 36.6704Z" fill="#4E73BD"/>
<path d="M20.9796 45.4752C20.9347 45.8734 20.6651 46.0061 20.4405 46.1831C19.9462 46.6255 19.452 47.068 18.8679 47.3777C18.5983 47.5104 18.3287 47.6874 18.0591 47.4662C17.7895 47.245 17.8344 46.9353 17.9243 46.6698C18.104 45.6521 18.6881 44.8115 19.2273 43.9708C20.71 41.7143 22.3276 39.5463 24.2147 37.6438C24.4843 37.3783 24.7988 37.1128 25.1133 36.9358C25.293 36.8474 25.5177 36.7146 25.6525 36.8916C25.8322 37.1128 25.5177 37.2013 25.4278 37.3341C22.9117 40.0773 20.6202 42.9532 18.7331 46.1388C18.5533 46.4486 18.3736 46.8025 18.3736 47.2892C19.407 46.9353 20.0361 46.0503 20.9796 45.4752Z" fill="#4E73BD"/>
<path d="M33.5149 26.0073C32.9308 25.6091 32.6163 25.0782 32.3467 24.4587C31.538 22.6889 31.1785 20.7864 30.9539 18.8396C30.6843 16.4946 30.5495 14.1496 30.8191 11.8046C31.0887 9.28266 31.7626 6.89342 33.3352 4.85815C34.5483 3.30957 37.5138 3.08834 38.8617 4.45994C38.9965 4.59268 39.1763 4.68117 39.0864 4.90239C38.9965 5.07937 38.8168 5.03513 38.682 5.03513C36.0311 4.85815 34.6382 6.40673 33.6048 8.53049C32.6612 10.5215 32.167 12.601 31.9423 14.7691C31.6728 17.1583 31.6728 19.5475 32.0322 21.9368C32.2119 23.1756 32.6612 24.326 33.2004 25.4321C33.3352 25.6091 33.4251 25.7861 33.5149 26.0073Z" fill="#4E73BD"/>
</svg>
