<svg xmlns="http://www.w3.org/2000/svg" width="74" height="60" fill="none"><path fill="#4E73BD" d="M56.52 11.672c-.045 3.584-.854 7.345-1.933 11.061-.718 2.522-1.437 5-2.74 7.3-.809 1.416-1.663 2.788-2.83 3.938-.72.664-1.529 1.107-2.562 1.018-1.033-.044-1.797-.53-2.157-1.504-.584-1.372-.629-2.832-.809-4.248-.09-.663-.18-1.283-.404-1.902-.224-.62-.584-1.107-1.303-1.15-.719-.045-1.123.442-1.438 1.017-.404.752-.494 1.593-.584 2.39-.09.84-.18 1.725-.27 2.61-.224 2.256-1.437 3.053-3.639 2.345-1.887-.576-3.145-1.947-4.223-3.54-2.247-3.363-3.37-7.168-4.179-11.061-.45-2.168-.764-4.38-.764-6.593 0-2.522 0-5.088.899-7.522.854-2.256 2.202-4.114 4.493-5.176 1.752-.84 3.595-.752 5.482-.398 1.348.265 2.696.707 3.998 1.15.36.133.674.088 1.034-.044C44.253.699 46.006.213 47.848.168c3.594-.044 6.29 1.726 7.638 5 .764 2.035 1.034 4.115 1.034 6.504ZM35.132 1.186c-.449 0-.898 0-1.348.088-2.111.531-3.594 1.858-4.627 3.717-.989 1.858-1.259 3.938-1.348 6.017-.18 4.646.674 9.115 2.066 13.54.764 2.388 1.753 4.733 3.28 6.769.63.84 1.348 1.637 2.337 2.08 1.977.884 2.471.353 2.875-1.372.27-1.284.225-2.567.45-3.85.135-.708.314-1.371.764-1.902.584-.708 1.347-1.24 2.336-1.062 1.033.133 1.617.796 1.932 1.725.36.93.45 1.903.54 2.876.134 1.15.134 2.345.628 3.451.405.974 1.213 1.284 2.202.885.45-.177.853-.442 1.213-.796 1.213-1.106 2.067-2.478 2.786-3.894 2.92-5.928 4.538-12.167 4.313-18.804a14.905 14.905 0 0 0-.854-4.646C53.554 3 51.352 1.141 47.803 1.363c-1.393.088-2.74.354-3.999.929-1.348.62-2.561.442-3.864-.044-.09-.045-.135-.045-.225-.089-1.482-.575-2.965-.973-4.583-.973ZM52.791 44.546c-.225-.044-.36-.044-.45-.089-.449-.088-.538-.354-.269-.708a2.56 2.56 0 0 1 .494-.486c.944-.708 2.022-1.24 3.235-1.416.405-.044.9-.133 1.124.354.135.221-.54.752-.989.84-.224.045-.36 0-.314-.265.045-.354-.225-.398-.45-.354-.763.177-1.482.442-2.066 1.106.224.221.494.089.718.133.225 0 .45.044.54.265.09.266-.135.398-.36.531-.314.177-.629.31-.943.487-.27.177-.495.398-.405.752.09.354.405.354.674.443a2.97 2.97 0 0 0 1.528-.133c1.303-.354 2.516-.84 3.64-1.549.404-.265.718-.62.943-1.017.135-.177.225-.354.314-.531.18-.398.495-.664.899-.487.404.177-.09.487 0 .796.404-.044.719-.265 1.078-.398.54-.221 1.079-.354 1.663-.31.764.089 1.078.62.629 1.195-.944 1.15-2.157 1.947-3.595 2.39-.224.088-.494.044-.763-.045-.225-.133-.45-.265-.45-.575 0-.266.225-.354.45-.487.27-.133.449 0 .584.221.18.266.449.31.719.266a3.307 3.307 0 0 0 1.887-1.195c.18-.22.314-.53.18-.796-.18-.31-.495-.266-.81-.221-1.572.132-2.65 1.15-3.639 2.256-1.348 1.46-2.336 3.186-3.504 4.779-1.708 2.345-3.325 4.734-5.482 6.725-.584.53-1.168 1.017-1.977 1.239-1.213.31-1.752-.133-1.662-1.372.09-1.062.629-1.947 1.258-2.787 1.707-2.301 3.684-4.38 6.065-6.062a32.01 32.01 0 0 0 1.932-1.504c-.808.221-1.617.486-2.47.486-.495 0-.9-.132-1.08-.619-.089-.265-.269-.265-.493-.221-.584.177-1.169.265-1.798.133-.224-.045-.404.088-.584.22-.314.222-.674.443-1.123.532-.45.044-.899-.044-1.123-.487-.18-.398-.405-.31-.674-.177-.674.31-1.348.575-2.112.708-.854.133-1.123-.133-.899-.93.135-.397.315-.751.495-1.238-.495.133-.764.354-1.079.575-.719.531-1.438 1.15-2.291 1.505-.27.132-.584.265-.854 0-.27-.266-.045-.532.045-.797.135-.31.315-.664.404-1.018-.764.531-1.572 1.062-2.336 1.637-.27.222-.584.355-.944.487-.494.177-.898.044-1.078-.486-.135-.399-.36-.355-.674-.266-.944.354-1.887.796-2.875 1.018-.36.088-.72.088-1.034.044-.719-.133-.988-.62-.719-1.283.18-.487.63-.708.944-1.106-.045-.177-.18-.089-.315-.133-.494-.089-.629-.398-.36-.84.09-.133.18-.266.315-.355 1.123-.796 2.382-1.239 3.73-1.416.27-.044.629-.088.718.222.09.354-.134.62-.449.708-.27.088-.764.752-.809-.222 0-.132-.18-.132-.314-.088-.764.133-1.483.354-2.067.84-.09.09-.225.178-.18.355.045.132.225.132.36.132.134 0 .314-.044.449-.044.18 0 .404-.088.494.133.09.265-.09.442-.314.53-.27.09-.494.222-.764.355-.494.22-.584.663-.45 1.106.135.486.585.398.944.31 1.213-.178 2.337-.576 3.46-1.018.36-.133.584-.177.719.265.045.266.314.354.539.31.36 0 .674-.133.988-.354 1.034-.752 2.067-1.46 3.1-2.212.18-.133.36-.31.585-.133.224.177.045.398-.045.575-.27.487-.63.974-.899 1.505-.09.132-.224.265-.09.398.135.133.315 0 .45-.044a15.31 15.31 0 0 0 3.055-2.213c.225-.22.45-.663.809-.398.36.221.045.62-.09.885-.18.487-.45.973-.674 1.46-.225.443 0 .575.404.531 1.124-.133 1.977-.664 2.651-1.549.45-.575.899-1.194 1.348-1.77.36-.486.809-.928 1.393-1.238.225-.133.494-.31.674-.044.225.265-.045.442-.225.619-.584.575-1.213 1.106-1.797 1.637a3.583 3.583 0 0 0-.988 1.681c-.09.266-.09.576.27.62.404.044.808 0 1.033-.354.09-.133-.09-.221-.135-.354a1.473 1.473 0 0 1 .674-2.035.895.895 0 0 1 .988.044c.27.221.315.575.18.885-.09.265-.27.53-.36.796-.09.133-.314.266-.18.443.136.177.36.132.54.132 1.078-.132 1.797-.62 2.561-1.371Zm5.347.663c-3.01 1.726-5.751 3.761-8.088 6.372-1.078 1.239-2.156 2.522-2.696 4.07-.134.398-.224.752-.134 1.195.09.487.36.664.853.442.584-.22 1.034-.62 1.483-1.017 3.415-3.23 5.796-7.3 8.582-11.062ZM11.004 38.883c-.225.53.09.663.494.752.495.132.944.354 1.258.708.27.31.584.31.944.22 1.977-.442 3.73-1.415 5.347-2.61 1.527-1.106 3.1-2.168 4.762-3.053.135-.044.225-.132.36-.177.135-.044.27-.088.36.089.044.133-.09.221-.18.265-1.573.531-2.427 1.903-3.37 3.098-1.528 1.858-2.786 3.849-4.314 5.707-1.123 1.328-2.381 2.434-3.954 3.23-.045.044-.134.088-.224.177.809.398 1.617.575 2.426.796.494.133.989.222 1.483.354.18.045.494 0 .404.354-.09.266-.36.177-.539.133-.584-.133-1.123-.265-1.707-.398-.09 0-.135-.044-.225-.044-1.618-.62-3.19-.974-4.943-.487-.808.221-1.662.088-2.516-.044-1.572-.31-2.696-1.195-3.235-2.7-.224-.574-.18-1.15 0-1.725.09-.354 0-.575-.224-.84-1.977-2.39-3.01-5.133-3.235-8.23-.135-2.212.134-4.292 1.078-6.327.54-1.15 1.258-2.124 2.336-2.876 2.067-1.46 4.673-.708 6.021.84.764.886.36 2.301-.674 2.788-.135.044-.27.133-.36.044-.134-.088-.09-.265-.044-.398.135-.487.27-1.018.224-1.549-.044-1.238-.763-1.99-2.021-2.123-1.753-.221-3.1.53-4.09 1.858C1.39 28.352.716 30.033.67 31.936c-.09 2.345 0 4.646.943 6.814.54 1.194 1.258 2.256 2.067 3.318.18.266.315.266.54 0 1.572-1.858 3.594-2.787 6.11-2.566.36-.044.36-.398.674-.62ZM4.04 43.66c-.315.973-.135 1.991.449 2.699.18.221.36.354.629.354 1.977.088 3.954 0 5.661-1.106 1.258-.797 2.292-1.859 2.292-3.496 0-.752-.09-.84-.854-.929-.764-.088-1.438-.31-1.617-1.194-.09-.31-.315-.399-.585-.399-2.246-.177-4.268.93-5.57 2.7-.18.22-.18.442.044.663 1.123 1.195 2.381 2.212 3.909 2.876.135.088.494.044.36.31-.09.22-.36.177-.585.132-.539-.177-1.033-.442-1.527-.708-.899-.442-1.753-1.15-2.606-1.902Zm17.568-7.212a87.06 87.06 0 0 0-2.516 1.77c-1.663 1.194-3.37 2.433-5.437 2.876-.315.088-.315.265-.27.53.225 1.107-.09 2.08-.808 2.92-1.213 1.417-2.831 2.08-4.628 2.434-.854.177-1.708.089-2.696.133.224.133.314.221.404.265.18.089.405.177.584.222 1.753.486 3.505.354 5.167-.354 1.663-.708 2.966-1.858 4.179-3.142.899-.973 1.573-2.123 2.381-3.141 1.258-1.549 2.382-3.097 3.64-4.513ZM17.7 49.811c.63-.487 1.258-.973 1.843-1.46 1.123-.885 2.38-1.593 3.639-2.345.899-.531 1.707-1.15 2.112-2.168.09-.266.719-.398.898-.221.225.221-.134.354-.134.62a6.057 6.057 0 0 1 2.47-.532c.405 0 .765.044.944.443.18.398 0 .708-.27 1.017-.943.974-2.021 1.682-3.37 1.991-.359.089-.763.089-1.078-.177-.224-.177-.269-.442-.044-.663.18-.177.494-.354.674-.089.314.398.674.31 1.078.266.674-.089 1.258-.443 1.707-.974.225-.265.36-.62.18-.973-.18-.354-.54-.221-.854-.177-.988.177-1.752.752-2.47 1.371-1.484 1.328-2.652 2.92-3.775 4.558-1.618 2.345-3.145 4.69-5.122 6.77-.764.796-1.528 1.548-2.471 2.123-.45.265-.9.398-1.393.354-.72-.089-.989-.443-.899-1.15.135-1.15.63-2.124 1.213-3.098 1.079-1.725 2.516-3.141 3.91-4.601.359-.354.673-.708.538-1.283-.044-.221.045-.443.36-.398.224.044.404.132.36.442-.046.044-.18.177-.046.354Zm5.707-3.274c0-.044-.045-.044-.045-.089l-.27.133c-2.112 1.416-4.178 2.876-6.11 4.513-1.618 1.416-3.056 3.053-4.09 4.956-.224.486-.404.973-.404 1.504 0 .796.495 1.106 1.213.708.45-.221.81-.531 1.169-.885 2.201-2.035 3.999-4.425 5.75-6.858.855-1.327 1.843-2.655 2.787-3.982Z"/><path fill="#4E73BD" d="M68.562 43.661c.045-.354.539-.62.225-.929-.27-.265-.675 0-.989.089-.854.265-1.573.708-2.157 1.371-.135.177-.27.354-.36.531-.134.266-.269.531 0 .797.225.265.54.177.81.044.539-.221 1.078-.487 1.572-.752.225-.089.405-.266.674-.133.27.133.09.398.045.575-.09.354.18.354.36.354.494 0 .988-.133 1.437-.354.944-.442 1.843-.973 2.382-1.902.584-.93.449-1.593-.45-2.213-.898-.62-1.887-.885-2.965-1.106-.135-.044-.27-.044-.404-.088-.18-.044-.495.044-.495-.221 0-.266.315-.31.54-.354 1.617-.133 3.1.22 4.178 1.46.674.752.719 1.681.18 2.566-.36.575-.899 1.017-1.438 1.416-2.067 1.504-4.493 2.345-6.964 3.008-1.797.487-3.55.885-5.392 1.106a.935.935 0 0 1-.674-.088c.989-.221 2.022-.398 3.01-.62 1.034-.265 2.112-.53 3.1-.796a21.472 21.472 0 0 0 2.966-1.106c0-.177-.135-.133-.18-.221-.224-.752-.629-.31-.988-.133-.494.221-.989.442-1.573.487-.719.044-.988-.354-.808-1.018.09-.31.27-.575.449-.796.809-1.106 1.887-1.903 3.19-2.39.18-.088.36-.132.584-.132.63-.133 1.123.088 1.213.53.09.532-.45.974-1.078 1.018ZM49.916 50.298c-.764.31-1.528.442-2.337.53-4.358.443-8.716.355-13.075.178a174.299 174.299 0 0 1-6.784-.398 86.87 86.87 0 0 1-3.37-.354c-.18 0-.405-.045-.36-.266.045-.221.27-.221.45-.177 3.28.133 6.515.31 9.795.443 3.19.177 6.425.398 9.615.31 1.932-.045 3.82-.222 5.751-.399.045.044.18-.044.315.133ZM32.753 36.67c-1.169.443-2.202.399-3.28 0-.854-.354-1.573-.929-2.382-1.371-1.213-.664-2.336-1.505-3.774-1.681-2.56-.355-4.987.044-7.324 1.106-1.258.575-2.47 1.15-3.414 2.212-.45.53-.989 1.062-.674 1.858.18.487 1.303.885 2.111.752 1.258-.177 2.427-.62 3.505-1.239a30.168 30.168 0 0 0 1.797-1.15c0 .31-.224.398-.36.531-1.752 1.416-3.728 2.212-6.02 2.08-.27 0-.54-.045-.809-.133-.719-.221-.988-.708-.809-1.46.225-.93.81-1.637 1.528-2.212 2.471-1.903 5.257-2.877 8.357-3.053 2.202-.089 4.224.575 5.976 1.99 1.528 1.24 3.235 1.859 5.212 1.682.135 0 .18.044.36.088Z"/><path fill="#4E73BD" d="M20.98 45.475c-.045.398-.315.531-.54.708-.494.443-.988.885-1.572 1.195-.27.132-.54.31-.809.088-.27-.221-.225-.53-.135-.796.18-1.018.764-1.858 1.303-2.7 1.483-2.256 3.1-4.424 4.988-6.326.27-.266.584-.531.898-.708.18-.089.405-.221.54-.044.18.22-.135.31-.225.442-2.516 2.743-4.808 5.62-6.695 8.805-.18.31-.36.663-.36 1.15 1.034-.354 1.663-1.239 2.607-1.814ZM33.515 26.007c-.584-.398-.899-.929-1.168-1.548-.809-1.77-1.169-3.673-1.393-5.62-.27-2.344-.405-4.69-.135-7.034.27-2.522.944-4.912 2.516-6.947 1.213-1.548 4.179-1.77 5.527-.398.134.133.314.221.224.442-.09.177-.27.133-.404.133-2.65-.177-4.044 1.372-5.077 3.495-.944 1.992-1.438 4.071-1.663 6.24-.27 2.388-.27 4.777.09 7.167.18 1.239.63 2.389 1.168 3.495.135.177.225.354.315.575Z"/></svg>